<svg width="100%" height="100%" viewBox="0 0 2197 2259" version="1.1" xmlns="http://www.w3.org/2000/svg" xmlns:xlink="http://www.w3.org/1999/xlink" xml:space="preserve" xmlns:serif="http://www.serif.com/" style="fill-rule:evenodd;clip-rule:evenodd;stroke-linejoin:round;stroke-miterlimit:2;">
    <g transform="matrix(1,0,0,1,-1457.99,-720.124)">
        <g transform="matrix(0.1,0,0,-0.1,0,3872)">
            <g transform="matrix(10,0,0,-10,0,38720)">
                <path d="M2310.6,2878C2325.1,2878 2330.8,2877.6 2334,2876.5C2336.3,2875.7 2341.1,2875 2344.7,2875C2348.2,2875 2352.1,2874.5 2353.3,2873.8C2355.8,2872.4 2369.7,2871.2 2391.5,2870.4C2403.6,2869.9 2407.7,2870.2 2412.7,2871.5C2430.22,2884.33 2482.86,2879.84 2494,2877.72C2494.3,2880.53 2505.66,2878.5 2515,2879.1C2519.7,2879.4 2526.3,2880.4 2529.8,2881.4C2534.4,2882.6 2540.6,2883 2552.4,2883C2566,2883 2569.6,2883.3 2574.4,2885C2577.6,2886.1 2583.8,2887.9 2588.3,2889C2592.8,2890.2 2599.2,2891.8 2602.5,2892.7C2611.8,2895.1 2617.6,2897.8 2630.2,2905.8C2640.4,2912.3 2642.4,2914 2646,2919.4C2651,2927.1 2653.4,2934.1 2652.6,2938.3C2652.3,2940.1 2651.4,2945 2650.6,2949.4C2649.6,2954.6 2648.4,2958 2647,2959.5C2643.8,2962.9 2636.9,2965.6 2625.5,2967.9C2620,2969 2612.6,2970.9 2609,2972C2605.4,2973.1 2600.8,2974 2598.8,2974C2596.8,2974 2592.4,2974.7 2589.1,2975.6C2585.7,2976.4 2582.2,2976.9 2581.2,2976.6C2580.2,2976.3 2576.8,2976.7 2573.7,2977.5C2564.1,2980 2542.3,2979.5 2530.3,2976.6C2512.2,2972.2 2509.5,2971.8 2505.2,2973.1C2501.5,2974.2 2500.8,2974 2495.7,2971.1C2488.5,2967 2485.3,2967.1 2480,2971.5L2472.6,2973.1C2470.9,2972 2465.2,2970 2460,2968.6C2448.5,2965.6 2447.2,2965.1 2444,2963C2442.3,2961.8 2438.3,2961.1 2431.4,2960.6C2417.3,2959.7 2398.7,2959.7 2396.7,2957.4L2394.2,2954.5L2375.3,2954.8C2360,2955.1 2355.4,2954.9 2350.7,2953.5C2347,2952.4 2343.6,2952.1 2340.7,2952.5C2337.9,2952.9 2334,2952.6 2330.1,2951.6C2326.6,2950.7 2321.7,2950 2319,2950C2316.4,2950 2312.3,2949.3 2310,2948.5C2307.7,2947.7 2303.2,2947 2300.1,2947C2297,2947 2292.3,2946.3 2289.6,2945.5C2286.9,2944.7 2282.8,2944 2280.6,2944C2278.3,2944 2273.1,2943.3 2269,2942.4C2263.6,2941.3 2259.1,2941 2253,2941.5C2246.6,2941.9 2243.4,2941.7 2240.1,2940.6C2237.2,2939.5 2232.2,2939 2225.3,2939C2218.5,2939 2212.8,2938.4 2209.2,2937.4C2204.9,2936.1 2201.4,2935.9 2194.9,2936.3C2188.8,2936.8 2184.6,2936.5 2180.6,2935.5C2172.6,2933.4 2144.9,2933.4 2139,2935.5C2133.6,2937.4 2129.4,2937.4 2124,2935.5C2120.7,2934.3 2114.7,2934 2096.9,2934C2080.9,2934 2073.3,2933.6 2071.3,2932.8C2069.2,2931.8 2050.7,2931.4 1996,2930.9C1931.6,2930.4 1922.5,2930.1 1915,2928.5C1908.2,2927.1 1899.3,2926.6 1870,2926.1C1833.5,2925.4 1833.5,2925.4 1825.5,2922.6C1817.6,2919.9 1817.2,2919.9 1795.5,2920.1C1780.5,2920.3 1772.6,2920 1770.7,2919.2C1769.1,2918.5 1765.9,2918 1763.5,2918C1761.1,2918 1758,2917.6 1756.5,2917C1755.1,2916.5 1751.3,2915.6 1748.2,2915C1740.1,2913.5 1725.4,2911 1719.5,2910.1C1709.3,2908.5 1684.2,2900.7 1674.5,2896.1C1665.2,2891.6 1632.1,2870.5 1630.5,2868.1C1630.2,2867.5 1627.5,2865.2 1624.6,2863.1C1616.2,2856.9 1609.5,2849.8 1604.4,2841.9C1601.8,2837.8 1597.8,2832.4 1595.4,2829.9C1593.1,2827.4 1590.3,2823.5 1589.1,2821.2C1586.9,2816.8 1578.8,2805.7 1573.5,2799.8C1571.7,2797.8 1569.3,2794.2 1568.2,2791.8C1565.8,2786.3 1545.1,2755.2 1542,2752.5C1535.9,2747.1 1526.8,2730.5 1521.4,2714.8C1519.5,2709.3 1515.7,2700.5 1512.9,2695.2C1507.2,2684 1498.6,2657.7 1488.3,2619.5C1487.6,2616.7 1485.9,2611.1 1484.6,2607C1480.1,2593.2 1474,2571.1 1474,2568.6C1474,2567.2 1473.5,2564.9 1472.9,2563.3C1472.3,2561.8 1471.4,2556.7 1470.9,2552C1469.3,2537 1468.2,2529.6 1467.1,2526C1466.5,2524.1 1466,2520.2 1466,2517.4C1466,2514.6 1465.3,2510.3 1464.5,2508C1463.3,2504.7 1463.1,2501.2 1463.6,2493.1C1464.1,2484.8 1463.8,2481.6 1462.6,2478.1C1460.7,2473 1460.5,2462.7 1462.1,2451.1C1462.58,2447.54 1462.8,2443.79 1462.72,2441.73L1463.57,2441.7L1461.67,2401.01L1461.06,2401.57C1461.61,2387.89 1460.82,2358.89 1459.4,2354.8C1457.5,2349.3 1457.5,2331.6 1459.5,2326C1460.6,2323 1461,2317.5 1461,2307.1C1461,2296.8 1461.5,2291 1462.6,2287.5C1463.56,2284.18 1463.91,2281.08 1463.65,2275.53L1463.35,2270.47C1463.09,2264.92 1463.44,2261.83 1464.4,2258.5C1465.3,2255.7 1466,2249.9 1466,2245.3C1466,2240.8 1466.5,2235.9 1467.2,2234.3C1467.8,2232.8 1468.7,2226.8 1469.1,2221C1470.2,2205.7 1471.7,2192.8 1472.9,2189.6C1473.5,2188.1 1474,2185.3 1474,2183.3C1474,2181.4 1474.6,2177.1 1475.4,2173.7C1478.4,2161.2 1479,2157.4 1479.5,2151C1479.7,2147.4 1480.4,2143.2 1480.9,2141.7C1481.5,2140.1 1482,2136.8 1482,2134.2C1482,2128.5 1489,2098.9 1493.2,2087C1494.9,2082.3 1497.9,2075.6 1500,2072C1506.4,2061 1511,2049.9 1511.9,2043.5C1513,2035.6 1515,2031 1519.8,2025.2C1522,2022.6 1525.5,2017.1 1527.7,2013C1537.6,1994.3 1539.5,1991.6 1555.6,1974.1C1559.6,1969.9 1564,1963.8 1565.4,1960.8C1568.9,1953.4 1572.9,1950.1 1583.1,1946C1587.7,1944.2 1592.5,1941.9 1593.8,1941.1C1595.1,1940.2 1598.1,1935.9 1600.5,1931.5C1617.1,1901.5 1629.5,1872.7 1631.1,1860.7C1631.6,1856.9 1632.3,1853.3 1632.7,1852.7C1633.5,1851.6 1635.1,1824.6 1635.1,1815C1634.9,1791.3 1632,1769.8 1627.2,1757C1625.2,1751.9 1619.1,1746.7 1613.2,1745C1607.5,1743.5 1592.1,1743.8 1585.9,1745.6C1575.3,1748.7 1562.6,1754.2 1556.8,1758.1C1551.8,1761.5 1550.4,1763.2 1547.1,1769.8C1544.9,1774.1 1542,1781.5 1540.5,1786.3C1538.1,1794.3 1537.9,1796.4 1538.2,1807.8L1538.5,1820.5L1545.4,1834.2C1552.3,1847.8 1552.3,1848 1551.1,1852.1C1548.7,1860.1 1542.8,1863 1536.2,1859.6C1532.7,1857.7 1525.9,1849.7 1523,1844C1520.4,1839 1514,1819.5 1514,1816.7C1514,1815.7 1514.7,1812.6 1515.6,1809.9C1516.8,1806.3 1517.1,1803 1516.7,1798.2C1516.2,1792.4 1516.7,1789.6 1520.1,1777.1C1522.3,1769.2 1524.8,1761.3 1525.7,1759.7C1527.6,1755.9 1533.6,1747.3 1536.4,1744.1C1539.4,1740.7 1552.3,1732.2 1558.5,1729.5C1570.9,1724 1596.2,1717 1603.7,1717C1613.1,1717 1633.4,1725.5 1639.7,1732.2C1648.3,1741.2 1658.4,1772.6 1658.1,1789.5C1658,1795.4 1658.5,1800.1 1659.5,1802.9C1661.4,1808.5 1661.4,1819.3 1659.4,1825C1658.2,1828.4 1657.9,1831.6 1658.4,1838C1658.9,1845.2 1658.5,1848.1 1656,1858C1653.1,1869.8 1640.3,1902.9 1634.6,1913.5C1632.9,1916.8 1630.3,1922.2 1629,1925.5C1625.9,1933.3 1617.1,1950.9 1612.3,1958.5C1603.9,1972.2 1589.9,1992.8 1587.9,1994.6C1586.7,1995.6 1584,1999 1581.9,2002C1579.8,2005 1574.5,2012.1 1570.2,2017.7C1560.4,2030.7 1536.1,2071.1 1532.2,2081C1530.5,2085.1 1527.1,2093.4 1524.6,2099.5C1517.6,2115.9 1514,2126.7 1514,2131C1514,2133.2 1512.9,2139.3 1511.6,2144.7C1510.3,2150.1 1508.5,2158.1 1507.6,2162.5C1506.6,2166.9 1505.5,2172.4 1505,2174.8C1504.4,2177.1 1504,2180.5 1504,2182.4C1504,2184.2 1503.3,2187.9 1502.5,2190.6C1501.7,2193.3 1501,2198 1501,2201.1C1501,2204.2 1500.3,2208.7 1499.5,2211C1498.7,2213.3 1498,2216.9 1498,2218.9C1498,2220.9 1497.3,2224.7 1496.5,2227.4C1495.5,2230.5 1495.2,2234.1 1495.6,2237.4C1496,2240.8 1495.7,2244.8 1494.6,2248.9C1493.7,2252.3 1493,2258.7 1493,2263C1493,2267.3 1492.5,2272.1 1491.8,2273.7C1491.1,2275.2 1490.3,2283 1489.9,2291C1489.6,2299 1488.7,2307.6 1488.1,2310.2C1487.2,2313.6 1487,2322.5 1487.5,2342.7C1487.8,2358 1488.1,2373.6 1488.1,2377.4C1488,2385.1 1489,2387 1492.8,2387C1494.7,2387 1497.5,2384.8 1503.6,2378.7C1512.7,2369.5 1520.3,2362.9 1527,2358.3C1532.3,2354.6 1561,2325.8 1561,2324C1561,2323.4 1565.9,2317.8 1571.8,2311.7C1577.8,2305.5 1584.3,2298.1 1586.4,2295.3C1588.5,2292.4 1592.3,2288.1 1594.9,2285.8C1597.5,2283.4 1601,2279.7 1602.5,2277.5C1604.1,2275.3 1610.3,2268.5 1616.2,2262.3C1622.1,2256.2 1627,2250.7 1627,2250C1627,2249.47 1631.29,2244.59 1636.98,2238.62L1642.02,2233.39C1647.71,2227.41 1652,2222.53 1652,2222C1652,2220.3 1669,2203.1 1675.4,2198.3C1678.6,2196 1682.5,2192.2 1684.1,2190C1685.7,2187.8 1687.4,2186 1688,2186C1688.5,2186 1692.7,2182.5 1697.4,2178.2C1705.9,2170.4 1724.2,2156.5 1733.7,2150.7C1738.3,2147.9 1744.4,2143.6 1761.5,2131.4C1764.3,2129.5 1769.2,2125.3 1772.5,2122.1C1775.8,2118.9 1780.5,2114.9 1783,2113.3C1785.5,2111.6 1788.4,2109.2 1789.5,2108C1790.6,2106.8 1795.3,2103.1 1800,2099.8C1804.7,2096.6 1809.9,2092.9 1811.5,2091.7C1826.1,2080.8 1829.8,2077.9 1832,2075.5C1833.4,2074 1837,2071.1 1840,2069C1845.8,2065 1873,2038 1873,2036.2C1873,2035.6 1875.8,2032.1 1879.3,2028.3C1882.7,2024.5 1887.5,2018.5 1890,2015.1C1892.5,2011.6 1896.3,2006.7 1898.6,2004.1C1900.8,2001.6 1904,1997.5 1905.7,1995C1909.3,1989.8 1929.3,1970 1931.1,1970C1931.7,1970 1939.3,1963.1 1947.9,1954.7C1956.5,1946.3 1966.9,1937 1971,1934C1975.1,1931.1 1980.8,1926.5 1983.5,1924C1986.3,1921.4 1990.5,1917.9 1993,1916.2C1995.5,1914.6 1998.9,1911.8 2000.5,1910C2002.2,1908.3 2006.3,1904.8 2009.7,1902.4C2013.1,1900 2016.5,1897.2 2017.2,1896.2C2017.9,1895.2 2021,1892.6 2024,1890.3C2027,1888.1 2030.4,1885.3 2031.5,1884C2032.6,1882.8 2034.8,1881.1 2036.3,1880.4C2037.8,1879.6 2041.4,1876.8 2044.3,1874.2C2047.2,1871.6 2052,1867.9 2055,1866C2058,1864.1 2064.5,1859.5 2069.3,1855.7C2074.2,1851.9 2080.5,1847.5 2083.3,1845.8C2086.1,1844.2 2090.2,1841.4 2092.4,1839.6C2099.2,1834.2 2116.9,1823.9 2127,1819.4C2138.5,1814.4 2158.9,1804.3 2161,1802.5C2161.8,1801.8 2166.6,1799.1 2171.5,1796.6C2176.5,1794 2182.8,1790.1 2185.6,1788C2188.3,1785.9 2193.5,1782.8 2197,1781C2200.5,1779.2 2205,1776.8 2207,1775.6C2208.9,1774.3 2212.5,1772.6 2215,1771.6C2217.5,1770.6 2222.2,1768.1 2225.5,1766C2228.8,1763.9 2232.6,1761.7 2234,1761.1C2235.4,1760.6 2241.2,1757.2 2247,1753.5C2252.8,1749.9 2262.3,1744.5 2268.2,1741.5C2277.9,1736.5 2284.1,1734.2 2315,1723.6C2340,1715 2351.3,1710.8 2361,1706.5C2366.8,1703.9 2377.6,1699.7 2385,1697C2419.3,1684.8 2427.2,1681.9 2437.5,1677.7C2451.4,1672.1 2471.5,1665.6 2480.1,1664C2483.8,1663.4 2488.2,1661.9 2489.9,1660.9C2493.8,1658.5 2498,1650.1 2498,1644.5C2498,1642.3 2555.4,1637.9 2564.7,1634.2C2570.3,1632 2578.2,1629.4 2582.2,1628.5C2586.2,1627.6 2596.5,1624.6 2605,1622C2613.5,1619.3 2626.6,1615.7 2634,1614C2641.4,1612.3 2652.7,1609.7 2659,1608.3C2676.9,1604.2 2704,1594.6 2716.6,1587.9C2727.9,1581.9 2749.7,1574 2755,1574C2756.6,1574 2759.1,1573.5 2760.7,1572.8C2762.4,1572.1 2772.2,1571.3 2785.5,1570.9C2800.6,1570.4 2809.7,1569.7 2814.5,1568.5C2818.4,1567.6 2826,1566.5 2831.5,1566.1C2837,1565.7 2842.8,1564.8 2844.3,1564.2C2845.9,1563.5 2850.6,1563 2854.8,1563C2859,1563 2864.3,1562.3 2866.5,1561.5C2868.7,1560.7 2873.6,1560.1 2877.3,1560C2881.1,1560 2885,1559.5 2886.1,1558.9C2887.2,1558.4 2894.3,1557.6 2901.8,1557.3C2918.1,1556.7 2914.5,1556.5 2931.8,1558.6C2944.8,1560.2 2946.2,1560.2 2947.6,1558.8C2950,1556.5 2948.6,1553.6 2941.6,1545.9C2924.4,1527 2921.7,1523.4 2910,1504.1C2901.3,1489.5 2887.3,1460.9 2885.9,1454.4C2884.3,1447.1 2881.7,1443 2878.6,1443C2875.6,1443 2870.5,1448.6 2867.8,1454.9C2865.8,1459.7 2856.1,1474.5 2850.1,1481.9C2847.1,1485.6 2846.5,1487.3 2845.9,1492.9C2845.5,1498.1 2844.6,1500.7 2841.8,1505C2839.9,1508 2837.4,1512.6 2836.2,1515.2C2832.5,1523.7 2826,1525.5 2815.7,1520.8C2810.9,1518.5 2809.6,1517.4 2808,1513.8C2806.9,1511.4 2806,1508 2806,1506.1C2806,1501 2809.6,1494.4 2814.7,1490.2C2817.1,1488.2 2821.4,1483 2824.1,1478.7C2826.9,1474.5 2831.1,1468.7 2833.5,1466C2836,1463.2 2838.9,1459 2840.1,1456.7C2844.5,1448.1 2852.6,1437.6 2862.6,1427.6C2871.5,1418.7 2871.8,1416.5 2866,1405C2860.5,1394.1 2859.7,1393.7 2846.3,1394.5C2839.4,1395 2833.9,1395.9 2831,1397.1C2821.4,1401.1 2808.6,1404.2 2804.2,1403.6C2796.3,1402.5 2792.5,1399.7 2789,1392.5C2785.5,1385.2 2784.4,1380.4 2785.4,1376.5C2786.2,1373.5 2794.7,1365.2 2803,1359.5C2806.2,1357.3 2814.3,1349.8 2821,1342.8C2828.1,1335.3 2835.5,1328.7 2838.9,1326.6C2846.5,1322 2848.1,1319.9 2848.7,1314.6C2849.4,1308.8 2847.3,1305.5 2841.7,1303C2837.8,1301.3 2835.7,1301.2 2813.7,1302C2799.7,1302.5 2788.5,1302.4 2786.6,1301.9C2775.5,1298.8 2769.7,1287.6 2776.4,1282.1C2778.4,1280.4 2791.4,1277 2795.8,1277C2797.7,1277 2801,1276.5 2803.1,1275.8C2806.3,1274.9 2808.1,1275 2812.8,1276.3C2815.9,1277.2 2823.8,1278.2 2830.3,1278.5C2840.7,1279.1 2842.4,1278.9 2844.1,1277.4C2846.6,1275.2 2846.6,1270 2844.1,1262.7C2842.4,1257.7 2842.3,1256.3 2843.3,1251.5C2844.1,1247.3 2844.1,1245.2 2843.2,1242.7C2842.4,1240.6 2842,1232.9 2842,1221.3C2842,1207.8 2841.6,1202.2 2840.5,1199C2838.6,1193.6 2838.6,1185.4 2840.5,1180C2841.3,1177.7 2842,1172.7 2842,1168.9C2842,1165.2 2842.5,1160.9 2843.1,1159.3C2844.2,1156.7 2844.8,1152.4 2846.9,1132C2847.9,1123.1 2849.5,1115 2852.2,1105.5C2860,1078.1 2859.8,1079.7 2856.5,1077.1C2855,1076 2852.6,1075 2851.3,1075C2845.9,1075 2819.8,1064.5 2815,1060.5C2814.2,1059.8 2808,1056.3 2801.3,1052.7C2794.6,1049.1 2785.1,1043.4 2780.1,1040.1C2775.1,1036.7 2768.6,1033.1 2765.5,1031.9C2759.3,1029.6 2757.8,1027.6 2751.5,1013.2L2747.8,1004.8L2747.9,973.5C2748,946.7 2747.8,941.5 2746.4,937.8C2745.5,935.4 2744.5,931.7 2744.3,929.4C2743.9,925.8 2744.2,925 2746.5,923.1C2749.9,920.5 2753.1,920.4 2756,922.8C2757.6,924.1 2758.4,926.3 2759.1,931.5C2759.6,935.4 2760.5,941.2 2761,944.5C2761.6,947.8 2762.4,953.6 2762.9,957.5C2763.4,961.3 2764.6,968.3 2765.6,973C2766.5,977.7 2767.6,985.1 2768,989.5C2769.3,1003.6 2773.1,1011.5 2781.3,1017.8C2785.2,1020.7 2851.7,1054 2857.7,1055.9C2865.6,1058.5 2867.8,1056.5 2869.5,1045.1C2870.3,1040.2 2874.2,1029.6 2881.9,1011.5C2884.7,1004.9 2887,999.1 2887,998.6C2887,998 2890.1,991.3 2893.9,983.6C2899.2,972.8 2903.5,965.8 2912.4,954C2918.8,945.5 2926.1,934.6 2928.6,929.8C2931.2,925 2935.2,918.4 2937.6,915.3C2940.1,912.1 2944.4,905.9 2947.4,901.5C2950.3,897.1 2953.7,892.6 2955,891.5C2958.2,888.6 2964.6,878.9 2968.5,871.1C2970.4,867.3 2973,863 2974.3,861.4C2983.2,850.8 2997,831 3001,823C3004.9,815.3 3007.4,812 3014,805.5C3020.2,799.4 3023.1,795.6 3026.2,789.5C3028.4,785.1 3032.5,779 3035.4,776C3038.2,772.9 3042.5,767.6 3045,764C3047.5,760.5 3054.7,752.2 3061.1,745.6C3067.5,738.9 3073.9,731.6 3075.4,729.3C3078.6,724.1 3082.4,722 3088.5,722C3097.4,722 3103.6,726.9 3109.3,738.5C3113.9,747.8 3118.5,763.9 3120.1,776.5C3122.3,794 3122.9,797.7 3123.9,800.3C3124.5,801.9 3125,804.7 3125,806.7C3125,808.6 3125.7,812.7 3126.6,815.7C3127.6,819.1 3128,822.7 3127.6,825.2C3126.9,829.6 3128.3,836.4 3134,855.5C3140.5,877 3141,879.7 3140.3,888.7C3139.5,900.5 3139.4,900.4 3155,899.6C3163.2,899.1 3168.7,899.3 3171,900C3172.9,900.6 3177.4,901.5 3181,902C3184.6,902.5 3191.1,903.7 3195.5,904.6C3199.9,905.5 3206.4,906.5 3210,906.9C3217,907.8 3259.7,921.5 3275.2,928C3280.3,930.1 3294.9,936.1 3307.5,941.3C3338.9,954.2 3337.2,953.4 3349.5,959.5C3357.3,963.4 3365.9,966.5 3379.5,970.4C3397.2,975.4 3401.8,976.5 3420.5,980.7C3424.4,981.5 3429.4,982.9 3431.7,983.6C3434.1,984.4 3439.2,984.9 3443.2,984.8C3448.3,984.7 3452.6,985.3 3457.4,986.8C3461.1,988 3465.9,989 3468,989C3472.7,989 3473.5,988.1 3485,969C3489.7,961.2 3496.7,950.1 3500.6,944.2C3504.4,938.3 3512.3,925.6 3517.9,916C3523.6,906.4 3529.6,896.7 3531.2,894.5C3532.7,892.3 3535.1,888.4 3536.5,885.9C3537.8,883.4 3540,879.9 3541.4,878.3C3542.8,876.6 3545.3,872 3546.9,868C3548.6,864 3551.5,858.3 3553.4,855.4C3558.4,847.9 3569.9,823.7 3578.5,802.5C3582.8,791.9 3588.1,780.8 3591.4,775.5C3602.5,757.8 3608.9,743.6 3610.5,732.9C3611.3,727.6 3614.3,724.4 3620.6,722.1C3627.3,719.5 3631.3,719.5 3636.5,721.9C3645.5,725.9 3648.1,733 3644,742.5C3642.1,746.9 3642,749.4 3642,785.5C3642,816.9 3642.3,824.5 3643.5,828C3644.3,830.3 3645,834.1 3645,836.4C3645,838.6 3645.7,842.7 3646.5,845.4C3647.3,848.1 3648,852 3648,854.1C3648,856.2 3648.5,859.1 3649,860.5C3650.6,864.6 3650.5,927.2 3649,930.1C3648.3,931.3 3647.8,934.8 3647.8,937.8C3647.8,940.8 3647.2,945.3 3646.4,947.9C3645.7,950.4 3645,956.2 3645,960.6C3645,965.006 3644.47,969.939 3643.66,972.517L3643.34,973.483C3642.53,976.061 3642,980.994 3642,985.4C3642,989.8 3641.3,995.7 3640.5,998.5C3639.5,1001.8 3639.1,1005.2 3639.6,1008.5C3640,1011.8 3639.6,1015.7 3638.6,1019.7C3637.7,1023 3637,1027.4 3637,1029.3C3637,1031.3 3636.5,1034.1 3635.9,1035.7C3634.8,1038.5 3633.4,1047.8 3632.1,1060.5C3631,1071.2 3629.2,1079.5 3625.5,1091C3621.3,1104 3618,1117 3618,1120.7C3618,1122.3 3616.8,1126.2 3615.4,1129.5C3612.2,1136.8 3608.1,1147.4 3603.4,1160C3601.5,1165.2 3597.1,1176.5 3593.7,1185C3587.5,1200.8 3585.9,1205.9 3579,1232.6C3576.8,1240.9 3574,1250.6 3572.6,1254.1C3571.3,1257.6 3567.9,1266.6 3565.1,1274C3562.3,1281.4 3558.5,1290.5 3556.5,1294.2C3552.4,1302.1 3552.2,1303.7 3555.3,1305.1C3557.1,1305.9 3558.5,1305.8 3561.6,1304.4C3564.8,1303 3569.1,1302.6 3585,1302.2L3604.5,1301.8L3612.5,1305C3616.9,1306.8 3623.7,1309.1 3627.6,1310.1C3651.3,1316.1 3660.2,1326.8 3651.3,1338.7C3646.9,1344.6 3639.8,1344.9 3629,1339.6C3626.5,1338.3 3621.4,1336.6 3617.5,1335.7C3602.9,1332.3 3600.4,1331.8 3595,1331C3592,1330.6 3587,1329.6 3584,1328.9C3579.1,1327.8 3577.7,1327.9 3572.7,1329.5C3568.1,1330.9 3564.9,1331.2 3557.2,1330.7C3543,1330 3540.5,1331.4 3536.1,1343C3535,1345.8 3532.4,1350.9 3530.2,1354.3C3528,1357.7 3525.5,1362.8 3524.6,1365.7C3523.4,1369.1 3521.6,1372 3519,1374.4C3510.9,1381.7 3511.6,1384.4 3523.2,1390.7C3530.6,1394.7 3542,1402.8 3547.5,1408C3549.2,1409.6 3555.7,1414.1 3562,1418C3568.3,1422 3576.7,1427.6 3580.5,1430.5C3584.4,1433.3 3590.7,1437.9 3594.5,1440.6C3598.4,1443.3 3605.3,1449.3 3610,1454C3614.7,1458.8 3620.2,1463.6 3622.2,1464.9C3626.9,1467.7 3634.6,1476.2 3635.4,1479.4C3636.3,1483.1 3635,1485.5 3629.3,1490.4L3624,1494.8L3604.8,1494.4C3584,1493.9 3582.6,1493.7 3550.5,1486.1C3539,1483.4 3527.9,1480.9 3526,1480.5C3520.1,1479.5 3505.4,1475 3487,1468.8C3468.2,1462.3 3465.8,1461.3 3459.7,1456.9C3453.1,1452.1 3448,1453.4 3448,1460C3448,1463.6 3448.5,1464.4 3455.3,1470.1C3459.2,1473.5 3469.5,1482.8 3478.1,1490.9C3486.7,1498.9 3495.7,1506.8 3498,1508.4C3500.3,1510 3503.4,1513.2 3504.9,1515.4C3509.7,1523 3516.4,1530.1 3522.2,1533.6C3525.4,1535.6 3528.9,1538.7 3530.2,1540.8C3531.4,1542.8 3535,1547.3 3538.2,1550.7C3541.4,1554.1 3544,1557.4 3544,1558C3544,1558.6 3547.3,1562.5 3551.3,1566.8C3555.4,1571 3559.8,1576.2 3561.2,1578.3C3562.6,1580.4 3565.6,1583.7 3567.9,1585.7C3575.5,1592.2 3578.2,1600.9 3574.6,1607.8C3572.3,1612.3 3567.8,1614.3 3558.8,1614.8L3551.1,1615.3L3544.4,1608.9C3537.6,1602.3 3533.7,1596.7 3532.5,1591.5C3532.2,1589.9 3530.5,1586.8 3529,1584.6C3527.4,1582.5 3525.1,1577.7 3523.9,1574.1C3521.1,1565.7 3520.9,1565.4 3510.9,1556.3C3506.3,1552.2 3501.3,1546.9 3499.9,1544.6C3498.4,1542.3 3496,1539.6 3494.5,1538.6C3488.4,1534.6 3477.4,1522.5 3475.6,1517.8C3473.7,1512.7 3469.4,1508.4 3465.2,1507.4C3460,1506.1 3457,1503.9 3455,1499.9C3453.8,1497.7 3451,1494 3448.7,1491.7C3446.4,1489.4 3443.6,1486.3 3442.5,1484.8C3441.4,1483.3 3439.3,1481.8 3437.8,1481.4C3435.5,1480.9 3434.5,1481.5 3431,1485.3C3428.8,1487.7 3424.7,1491.2 3422.1,1493.1C3419.3,1494.9 3416,1498.4 3414.5,1501C3412.9,1503.7 3410.3,1506.5 3408.3,1507.5C3406.4,1508.6 3402.9,1511.9 3400.6,1514.9C3397.7,1518.8 3394.2,1521.8 3388.8,1525C3379.6,1530.4 3375.9,1533.8 3371.4,1540.7C3368.7,1544.9 3366.6,1546.6 3360.9,1549.6C3355.1,1552.6 3353.1,1554.4 3350.1,1558.9C3347.9,1562.4 3344,1566.3 3340,1569.1C3336.4,1571.7 3331.5,1575.8 3329,1578.3C3326.5,1580.7 3321.4,1584.8 3317.5,1587.3C3308.1,1593.4 3291.2,1610.8 3287.1,1618.6C3285.2,1622.3 3280.9,1627.6 3276.3,1632.1C3269.4,1638.9 3264,1647 3264,1650.8C3264,1651.6 3261.3,1654.9 3258.1,1658.3C3254.2,1662.3 3251.4,1666.4 3250,1670C3248.8,1673 3246.1,1677.7 3244,1680.5C3239.1,1686.9 3227.4,1710.5 3226.5,1715.6C3225.3,1722.7 3220.9,1736.2 3215.3,1749.9C3206.2,1772.3 3202.7,1784.1 3195.5,1815.2C3194.7,1818.9 3194,1823.3 3194,1825C3194,1826.7 3193.3,1830.7 3192.4,1833.9C3190.8,1839.4 3190.9,1840.1 3192.4,1844.6C3195.4,1853.2 3195.6,1861.7 3192.9,1871.8C3190.7,1880.6 3190.6,1880.9 3192.3,1886.9C3193.6,1891.6 3194,1897.1 3194,1911.4C3194,1925.1 3194.4,1930.8 3195.5,1934C3196.3,1936.3 3197,1941.3 3197,1945C3197,1948.7 3197.7,1953.7 3198.5,1956.1C3199.5,1958.8 3200,1963.5 3199.9,1969C3199.8,1975.7 3200.3,1979.3 3202.4,1985.8C3203.8,1990.4 3205,1995.8 3205,1997.8C3205,1999.8 3205.5,2003.1 3206.1,2005C3206.8,2006.9 3207.6,2014.8 3208,2022.5C3208.4,2030.2 3209.5,2039.6 3210.5,2043.5C3211.5,2047.3 3212.5,2055.2 3212.9,2061C3213.2,2066.8 3213.9,2072.2 3214.5,2073C3215,2073.8 3215.8,2081.9 3216.2,2091C3217.2,2112.8 3218.5,2126.9 3219.9,2130.3C3220.5,2131.9 3221,2137.3 3221,2142.3C3221,2147.4 3221.5,2153.1 3222.1,2155C3223.6,2159.9 3224.9,2171.8 3225.9,2189.5C3226.3,2197.7 3227.2,2205.8 3227.8,2207.3C3228.5,2208.9 3229,2212.7 3229,2215.9C3229,2219.1 3229.7,2223.7 3230.6,2226.1C3231.9,2229.8 3232.1,2233.6 3231.6,2250.1C3231.1,2265.9 3231.3,2270.6 3232.5,2274.6C3233.6,2278.4 3234,2285.4 3234,2306C3234,2320.6 3234.5,2334.5 3235.1,2336.9C3235.8,2340.1 3235.8,2342.7 3234.9,2346C3233.9,2349.9 3234,2351.5 3235.4,2355.5C3236.8,2359.6 3237,2365.3 3237,2393.6C3237,2421.1 3237.3,2427.5 3238.6,2431.1C3239.8,2434.7 3240.1,2439.9 3239.9,2459.5C3239.8,2475.8 3240.1,2484.4 3240.8,2486.3C3241.5,2487.9 3242,2494.2 3242,2500.4C3242,2507.9 3242.5,2513.2 3243.5,2516C3244.7,2519.3 3245,2525.2 3245,2541.4C3245,2557.7 3245.4,2563.6 3246.6,2567.5C3247.9,2571.6 3248,2575.5 3247.5,2589C3247,2602.3 3247.2,2606.5 3248.4,2610.5C3249.6,2614.2 3250,2620.1 3250,2632.6C3250,2645.3 3250.4,2650.9 3251.5,2654C3252.5,2656.9 3253,2662.2 3253,2670.6C3253,2677.3 3253.5,2684.1 3254.1,2685.7C3254.7,2687.2 3255.6,2692.1 3256,2696.5C3256.5,2700.9 3257.3,2708.5 3257.8,2713.5C3258.4,2718.4 3259.3,2723.8 3259.9,2725.3C3260.5,2726.9 3261,2729.8 3261,2731.8C3261,2733.9 3261.5,2737.1 3262,2739C3262.6,2740.9 3263.5,2745.9 3264.1,2750C3264.7,2754.1 3265.5,2760.2 3266,2763.5C3266.4,2766.8 3267.3,2771.5 3267.8,2774C3268.4,2776.5 3269.6,2781.7 3270.5,2785.7C3271.6,2790.3 3272,2794.5 3271.6,2797.7C3271.1,2800.9 3271.4,2804.2 3272.4,2807.5C3274.6,2814.7 3274.8,2874.1 3272.6,2879.3C3270.7,2884 3265,2890.2 3259.2,2893.9C3253.2,2897.7 3241.9,2902 3237.7,2902C3236,2902 3232.3,2902.7 3229.6,2903.5C3223.8,2905.3 3215.9,2905.4 3211,2903.9C3209.1,2903.3 3204.7,2902.5 3201.4,2902C3197.9,2901.6 3191,2899.4 3185.4,2896.9C3177.7,2893.5 3174.2,2891.3 3169.9,2887C3164.6,2881.8 3164,2880.8 3160.1,2869C3154.6,2852.1 3149,2829.1 3149,2823.1C3149,2820.4 3148.3,2816.3 3147.5,2814C3146.3,2810.5 3146,2802.5 3146,2767.5C3146,2733 3145.7,2724.4 3144.5,2720.4C3143.4,2716.8 3143,2710.4 3143,2696.5C3143,2682.7 3142.6,2676.2 3141.5,2672.7C3140.5,2669.2 3140.2,2665.3 3140.6,2659.2C3141,2652.6 3140.8,2649.4 3139.6,2646.1C3138.7,2643.6 3138,2638.6 3138,2634.3C3138,2630.2 3137.4,2624.1 3136.6,2620.7C3132.7,2603.6 3132.3,2600.3 3132.7,2589.8C3133.1,2581.6 3132.8,2578 3131.6,2574.4C3130.5,2571.2 3130,2566.2 3130,2559.3C3130,2552.3 3129.5,2547.8 3128.5,2545.3C3127.5,2543 3127,2538.4 3127,2531.7C3127,2521.6 3126.2,2515.3 3123.4,2502.8C3122.5,2499.1 3121.8,2490.9 3121.8,2484.3C3121.7,2477.8 3121.2,2471.4 3120.7,2470C3120.1,2468.6 3119.3,2462.8 3118.9,2457C3117.8,2441.2 3116.3,2428.3 3115.5,2426.9C3115.1,2426.3 3114.4,2423 3114,2419.6C3113.6,2416.3 3112.4,2410.1 3111.2,2406C3110,2401.9 3107.2,2390.4 3104.9,2380.5C3102.3,2369.6 3099.2,2359.1 3097,2354C3094.9,2349.3 3091.4,2341.2 3089.1,2336C3082,2319.7 3075.2,2309.5 3064.8,2299.4C3057.3,2292 3054.6,2290 3051,2289.1C3048.5,2288.4 3045.2,2287.4 3043.5,2286.9C3041.9,2286.3 3036.2,2285.6 3030.9,2285.3C3022.3,2284.8 3020.7,2285 3016.7,2286.9C3010.7,2289.8 3008.7,2292.7 2999.6,2310.8C2990.9,2328.3 2988.1,2337.1 2982.5,2364.5C2981.6,2368.9 2980.4,2374.5 2979.9,2377C2978.9,2381.1 2977.8,2388.2 2976.5,2398.5C2975.8,2403.9 2973.1,2417.6 2971.8,2422.5C2970.5,2427.3 2969.3,2437.9 2968.1,2455C2967.7,2461.9 2966.8,2468.8 2966.1,2470.3C2965.4,2472.2 2965,2481.3 2965,2496.7C2965,2516 2964.7,2521.3 2963.3,2525.6C2961.9,2530.1 2961.8,2532 2962.7,2536.9C2963.4,2540.6 2963.5,2544.2 2962.9,2546.6C2962.5,2548.8 2962,2585.4 2962,2628.1C2962,2694.6 2962.2,2706.4 2963.5,2710C2964.6,2713.1 2965,2718.6 2965,2730.4C2965,2741.8 2965.5,2747.9 2966.5,2751.4C2968.7,2758.6 2968.7,2813.8 2966.5,2820C2965.54,2822.8 2965.11,2827.51 2965.02,2838.1L2964.98,2847.91C2964.89,2858.49 2964.46,2863.2 2963.5,2866C2962.5,2868.8 2962,2874.1 2962,2881.7C2962,2889.3 2961.5,2895.1 2960.4,2898.8C2958,2907.1 2950.8,2920.9 2942.1,2933.9C2934,2946.2 2927.6,2952 2916,2957.7C2909.3,2961.1 2905,2961.1 2898.5,2957.7C2891,2954 2884.8,2946.7 2879.7,2935.7C2874.3,2924.2 2866,2895.7 2866,2888.8C2866,2886 2865.3,2881.3 2864.4,2878.3C2863.4,2874.9 2863,2870.9 2863.3,2868.2C2863.6,2865.5 2863.2,2862 2862.4,2859.7C2861.4,2856.9 2861,2850.6 2861,2838C2861,2824.8 2860.6,2819.2 2859.5,2816C2858.6,2813.3 2858,2808.1 2858,2801.9C2858,2796.5 2857.5,2790.9 2856.8,2789.3C2855.5,2786.1 2854.3,2772.4 2853.2,2747C2852.7,2737.4 2851.9,2728.2 2851.2,2726.7C2850.5,2725.1 2850,2720.8 2850,2717.1C2850,2713.3 2849.4,2708.5 2848.6,2706.3C2847.5,2703.2 2847.4,2701.3 2848.3,2697.6C2849.1,2694.1 2849.1,2691.3 2848.2,2687.1C2847.5,2684 2847,2675.9 2847,2669.2C2847,2660.8 2846.5,2655.1 2845.3,2650.9C2843.8,2645.3 2843.7,2644.4 2845.3,2637.9C2846.8,2631.7 2846.8,2630.4 2845.5,2625.3C2843.6,2618.1 2843.6,2613.6 2845.5,2607.4C2847.5,2600.9 2847.4,2589.2 2845.4,2582.2C2844,2577.6 2843.8,2573.6 2844.3,2560.6C2844.7,2548.6 2844.5,2543.6 2843.4,2540.1C2842.5,2537.2 2842,2530.8 2842,2523.1C2842,2515.1 2841.4,2508.7 2840.4,2504.6C2839.2,2500.1 2838.7,2492.9 2838.5,2477.5C2838.3,2456.3 2837.7,2451.7 2833.8,2440.1C2831.3,2432.3 2831.3,2429.5 2833.8,2423.8C2837,2416.5 2837.1,2416 2835,2409.2C2833.4,2403.9 2833.1,2401.2 2833.6,2395.4C2834.2,2388.9 2834,2387.7 2831.5,2382.4C2829,2377.3 2828.7,2375.4 2828.8,2368.5C2828.9,2364.1 2828.5,2357.8 2827.9,2354.4C2827,2349.9 2827,2346.1 2827.8,2339.9C2829,2330.2 2828.5,2326.3 2825.9,2324.9C2822.9,2323.3 2819.7,2327.4 2816.6,2336.7C2813.8,2345.1 2807.7,2356.2 2797,2372C2785.9,2388.6 2780.6,2395.2 2764.9,2412.3C2761.3,2416.3 2756.9,2421.6 2755.1,2424.2C2753.4,2426.8 2749.2,2431.3 2745.9,2434.2C2742.6,2437.1 2738.8,2441.3 2737.5,2443.5C2736.1,2445.7 2733.7,2448.9 2731.9,2450.5C2730.2,2452.2 2727.3,2456.4 2725.4,2460C2723.5,2463.6 2719,2470.1 2715.5,2474.5C2711.9,2478.9 2707.1,2485 2704.8,2488C2702.5,2491 2697.8,2496.1 2694.2,2499.4C2690.7,2502.7 2686.4,2507.4 2684.7,2509.9C2680,2516.8 2660.2,2537.2 2655.4,2540C2650.5,2542.9 2646,2546.1 2637,2553C2633.4,2555.8 2628.6,2559.3 2626.3,2560.8C2623.9,2562.3 2617.7,2566.3 2612.5,2569.7C2607.2,2573.1 2599.8,2577 2596.1,2578.5C2592.3,2579.9 2587.4,2582.7 2585.1,2584.6C2582.3,2587.1 2579.6,2588.4 2576.7,2588.7C2574.4,2589 2568.1,2591.5 2562.7,2594.2C2557.4,2596.8 2550.4,2599.6 2547.2,2600.4C2544.1,2601.1 2537.5,2603.2 2532.6,2604.9C2521.2,2608.9 2501.7,2614 2497.6,2614C2493.7,2614 2481.1,2618.2 2476.3,2621C2474.4,2622.1 2469.6,2623.9 2465.7,2625C2455.1,2627.8 2444.3,2632.5 2437,2637.5C2428.1,2643.5 2404.8,2651 2395.1,2651C2391.4,2651 2386.1,2651.7 2383.4,2652.5C2381.04,2653.2 2377.45,2653.82 2374.91,2653.97L2372.89,2654.03C2370.35,2654.18 2366.76,2654.8 2364.4,2655.5C2361.7,2656.3 2355.8,2657 2351.3,2657C2346.8,2657 2341.9,2657.5 2340.3,2658.1C2338.8,2658.7 2333,2659.4 2327.5,2659.7C2318.2,2660.2 2317,2660.1 2311,2657.5C2307.1,2655.9 2301.3,2654.5 2296.5,2654C2292.1,2653.5 2284.2,2652.2 2279,2651.1C2273.8,2650 2268.2,2649 2266.7,2649C2265.2,2649 2260.9,2648.3 2257.2,2647.5C2253.5,2646.6 2248.5,2645.5 2246,2645C2213.2,2638.5 2209,2637.5 2184.1,2629.9C2178.9,2628.3 2174.1,2627 2173.4,2627C2172.7,2627 2169.6,2625.9 2166.6,2624.5C2156.4,2619.9 2154.8,2621.2 2153.8,2634.9C2151.8,2662.6 2151.2,2668.7 2150.1,2671.3C2149.5,2672.9 2149,2679 2149,2684.9C2149,2695.4 2149.1,2695.8 2152,2699.5C2153.7,2701.6 2155,2704.2 2155,2705.4C2155,2708.4 2152.4,2711.8 2149.7,2712.2C2147,2712.6 2146.8,2715.3 2149.5,2715.8C2152.9,2716.4 2154,2719 2154,2726.9C2154.1,2731.2 2154.8,2736.2 2155.6,2738.5C2156.5,2740.7 2157.8,2744.7 2158.7,2747.5C2164.5,2765.9 2166.8,2772.6 2170.6,2781.1C2172.9,2786.3 2175.4,2792.6 2176,2795C2178.6,2804.7 2188,2819.1 2198.9,2830.3C2207.5,2839.1 2209.8,2840.6 2223.1,2845C2228.3,2846.8 2245.8,2854.9 2262,2863.1L2291.5,2878L2310.6,2878ZM2956.1,1587C2937.2,1587 2930.4,1586.6 2926.6,1585.5C2923.6,1584.6 2917.7,1584 2911.5,1584C2905.3,1584 2899.4,1584.6 2896.4,1585.5C2893.7,1586.3 2887.9,1587 2883.6,1587C2876.6,1587 2874.9,1587.4 2868.1,1590.6C2862.6,1593.3 2858.5,1594.5 2853,1595.1C2848.9,1595.5 2844.2,1596.3 2842.7,1596.9C2841.1,1597.5 2833.4,1598 2825.5,1598C2815.8,1598 2809.2,1598.5 2805.3,1599.5C2801.2,1600.6 2797.3,1600.9 2791.9,1600.4C2786.3,1599.9 2782.9,1600.2 2778.7,1601.4C2775.5,1602.3 2769.5,1603 2764.2,1603C2756.5,1603 2753.9,1603.5 2745.8,1606.4C2740.7,1608.3 2733.5,1611.2 2730,1612.8C2703.3,1625.4 2689.1,1631.2 2680.5,1633C2677.8,1633.6 2671.9,1634.9 2667.5,1635.9C2663.1,1637 2653.9,1639 2647,1640.5C2640.1,1641.9 2627.5,1645.3 2619,1648C2610.5,1650.7 2598.6,1654.2 2592.5,1655.9C2555.7,1666.2 2556.6,1665.9 2553.8,1669C2550.4,1672.7 2449.6,1704.3 2445.7,1705.6C2439.2,1707.8 2426.6,1712.6 2393,1725.8C2371,1734.4 2334.8,1747.8 2329,1749.5C2326.5,1750.2 2320,1752.6 2314.5,1754.8C2309,1757 2301.6,1759.6 2298.1,1760.5C2294.5,1761.4 2286.9,1764.7 2281.1,1767.9C2275.3,1771.1 2268.3,1774.5 2265.5,1775.5C2258.4,1778.2 2246.3,1785.6 2240.9,1790.6C2238.2,1793 2231,1797.5 2224.1,1800.9C2217.5,1804.3 2209.5,1808.6 2206.4,1810.6C2203.3,1812.6 2196.2,1816.2 2190.7,1818.7C2185.3,1821.1 2178.2,1824.8 2175.1,1826.9C2164.6,1833.9 2155.5,1838.8 2149.6,1840.5C2146.4,1841.4 2141.4,1843.4 2138.6,1845C2135.7,1846.6 2131.1,1848.2 2128,1848.6C2120.7,1849.5 2113.6,1853.6 2103.5,1862.9C2087.2,1877.8 2076.1,1885.9 2050.5,1901.5C2045.5,1904.5 2038.2,1910.5 2030.8,1917.7C2024.4,1923.9 2018.6,1929 2018,1929C2017.4,1929 2012.1,1933.6 2006.2,1939.3C2000.3,1945 1994.2,1950.4 1992.5,1951.5C1989.6,1953.2 1984.9,1957.3 1970,1970.8C1966.2,1974.2 1962.6,1977 1962.1,1977C1961.5,1977 1958,1979.8 1954.3,1983.3C1950.5,1986.7 1945.6,1990.8 1943.3,1992.3C1941,1993.8 1937.3,1997.4 1935.1,2000.4C1932.9,2003.3 1929.5,2006.7 1927.6,2007.9C1925.7,2009.1 1922.8,2012.2 1921.1,2014.9C1919.4,2017.5 1917,2020.6 1915.9,2021.6C1914.7,2022.6 1912.4,2025.5 1910.7,2028C1909,2030.5 1905.8,2034.6 1903.6,2037.2C1896.8,2045 1890.1,2053.3 1888.1,2056.5C1885.7,2060.4 1862.4,2083 1858.5,2085.4C1856.9,2086.4 1854,2089.2 1852.2,2091.7C1849.7,2095 1847.1,2096.9 1841.7,2099.4C1835.3,2102.4 1832.5,2104.7 1816.5,2120.9C1800.6,2136.8 1797.5,2139.5 1790.5,2143.1C1786.1,2145.3 1781.2,2148.5 1779.5,2150C1777.9,2151.6 1772.6,2154.5 1767.8,2156.5C1761.2,2159.3 1757.9,2161.4 1753.6,2165.6C1750,2169.1 1745.6,2172.2 1741.3,2174.2C1737.5,2175.9 1733,2178.5 1731.2,2180.1C1729.4,2181.7 1725.6,2184.2 1722.7,2185.6C1719.2,2187.4 1712.3,2193.4 1701.5,2204C1692.7,2212.6 1684,2220.5 1682.2,2221.6C1680.4,2222.6 1677.9,2225.1 1676.7,2227C1675.6,2228.9 1668.4,2236.8 1660.8,2244.6C1653.2,2252.4 1647,2259.3 1647,2259.9C1647,2260.6 1641.9,2266.4 1635.7,2272.8C1629.4,2279.3 1622.9,2286.5 1621.3,2289C1619.6,2291.5 1614,2297.5 1608.8,2302.5C1601.8,2309.2 1598.7,2313.1 1596.3,2318C1593.7,2323.3 1592.2,2324.9 1588.8,2326.8C1584,2329.3 1577,2338.7 1575,2345.5C1573.3,2351 1572.6,2351.7 1564.1,2356C1556.1,2360 1553.3,2362.5 1548.2,2370.1C1544.1,2376.1 1535.9,2383.5 1527.9,2388.4C1524.4,2390.6 1518.8,2394.9 1515.5,2398C1512.2,2401.1 1506,2405.6 1501.8,2407.9C1497.5,2410.3 1493.7,2412.7 1493.3,2413.3C1492.9,2414 1492.6,2435.2 1492.8,2460.5C1493,2495 1493.4,2508 1494.4,2512.5C1495.2,2515.8 1496.3,2520.6 1496.9,2523.3C1497.5,2525.9 1498,2530.6 1498,2533.8C1498,2539.3 1498.6,2542.3 1503.6,2563.3C1504.9,2568.7 1506,2574.6 1506,2576.5C1506,2581 1509.4,2593.2 1513.1,2602.2C1514.7,2606.1 1516.4,2611.8 1516.9,2614.9C1517.4,2618 1519.2,2624.7 1520.9,2629.9C1522.6,2635 1524.3,2641.1 1524.7,2643.4C1525.5,2648.6 1530,2660.9 1533.8,2668.6C1539.8,2680.5 1544.3,2693.2 1546,2702.7C1546.5,2705.7 1548.2,2709.9 1549.8,2712.2C1551.4,2714.6 1554,2719 1555.5,2722C1557,2725 1561.5,2732.2 1565.5,2738C1569.4,2743.8 1573.5,2750.1 1574.5,2752C1577.4,2757.8 1585.9,2769.1 1592.6,2776C1596.4,2780 1600.2,2785.3 1602.4,2789.7C1604.4,2793.7 1607.3,2798.4 1608.8,2800.2C1610.4,2802 1613,2805.5 1614.7,2808C1618.7,2813.7 1641.1,2835.8 1647,2839.8C1649.5,2841.4 1652.4,2843.8 1653.5,2845C1657,2849 1678.2,2862.5 1684.5,2864.7C1687.8,2865.9 1697.9,2868.6 1707,2870.8C1731.4,2876.7 1733.9,2877.2 1740.5,2878.1C1743.8,2878.5 1750.6,2879.6 1755.5,2880.5C1760.7,2881.5 1773.1,2882.5 1785,2883C1796.3,2883.4 1807.3,2884.2 1809.5,2884.8C1823.6,2888.6 1828.3,2889.3 1836.8,2888.6C1843.3,2888.1 1846.8,2888.3 1850.5,2889.5C1854,2890.5 1860.1,2891 1871.3,2891C1881.5,2891 1889.1,2891.5 1892.8,2892.4C1911.8,2897.1 1913.1,2897.3 1923.3,2896.7C1930.9,2896.2 1935.1,2896.4 1939.8,2897.6C1945.8,2899.1 1953.4,2899.1 1962.2,2897.5C1964.4,2897.1 1968.3,2897.4 1972.2,2898.4C1978,2899.9 1979.1,2899.9 1984.6,2898.4C1989.4,2897.2 1996.9,2896.8 2024,2896.8C2046.7,2896.8 2058.4,2897.1 2060.3,2897.9C2062,2898.5 2069.2,2899 2077.9,2899C2088.5,2899 2094,2899.4 2097,2900.5C2100.5,2901.7 2108.2,2902 2141.2,2902C2175.2,2902 2182,2902.2 2186.8,2903.6C2190.7,2904.8 2194.3,2905.1 2198.6,2904.7C2202.7,2904.3 2206.9,2904.6 2210.5,2905.5C2213.7,2906.4 2220.6,2907 2226.7,2907C2232.7,2907 2239.8,2907.6 2242.9,2908.4C2246,2909.2 2252.1,2910.3 2256.5,2910.9C2266.5,2912.2 2276.2,2913.8 2282,2915.2C2284.5,2915.8 2289.9,2916.6 2294,2917.1C2298.1,2917.6 2305.6,2918.5 2310.5,2919C2315.5,2919.6 2324.9,2920.5 2331.5,2920.9C2338.1,2921.4 2345.5,2922.3 2348,2923C2351,2923.8 2356.1,2924 2363.1,2923.6C2371.1,2923.1 2374.8,2923.4 2378.6,2924.5C2381.3,2925.4 2387.8,2926.3 2393,2926.7C2397.91,2926.97 2400.34,2927.09 2401.95,2926.79L2401.93,2926.85L2412.8,2927.78L2412.81,2927.72C2429.53,2934.07 2490.68,2947.59 2511,2947.2C2522.3,2947 2526.4,2947.3 2529.2,2948.5C2533.7,2950.3 2552.5,2950.6 2556.7,2948.8C2558.2,2948.2 2565.1,2947.3 2572,2946.9C2578.9,2946.4 2587,2945.7 2590,2945.2C2593,2944.7 2599.1,2943.7 2603.5,2943C2615.8,2941.2 2619,2938.6 2616,2933.1C2613.7,2928.8 2585.9,2919.8 2569,2918C2565.4,2917.6 2561.2,2916.7 2559.7,2916.1C2558.1,2915.5 2552.5,2915 2547.2,2915C2541.5,2915 2535.5,2914.4 2532.6,2913.5C2529.9,2912.7 2524.7,2912 2521.1,2912C2517.3,2911.9 2513.4,2911.3 2512,2910.5C2508.66,2908.55 2429.08,2903.83 2415.99,2904.92L2415.99,2904.91L2407.73,2905.05C2404.13,2902.65 2366.2,2900.2 2359.2,2902.1C2356.6,2902.7 2350.7,2903.7 2346,2904.1C2330.8,2905.6 2319.6,2906.9 2314.7,2907.6C2312,2908 2307.5,2907.8 2304.7,2907.2C2301.8,2906.7 2295.5,2905.4 2290.5,2904.5C2280.4,2902.7 2271.8,2899.2 2244.5,2886C2234.1,2881 2219,2874.2 2211,2871.1C2185,2860.7 2182.9,2859.2 2173.6,2845.5C2170.8,2841.4 2164.8,2832.6 2160.2,2826C2150.2,2811.5 2142.9,2796.7 2139.4,2784C2138,2778.8 2136.2,2773.4 2135.5,2772C2133.4,2767.9 2130,2753 2130,2747.9C2130,2745.4 2129.3,2741.3 2128.5,2739C2126.7,2733.9 2126.6,2727.7 2128.2,2723C2128.9,2720.8 2129.7,2708.9 2130.1,2691.5C2130.8,2662.6 2132,2645.7 2133.9,2640.5C2135.1,2637 2137.3,2622.6 2137.1,2619C2137,2617.6 2136.3,2616 2135.5,2615.4C2134.1,2614.4 2115.2,2609.7 2108,2608.5C2106.1,2608.2 2101.6,2606.6 2098,2604.9C2091,2601.5 2079.2,2598 2074.7,2598C2070.4,2598 2045.6,2587.7 2036.6,2582.2C2032.1,2579.5 2025.1,2575.6 2021,2573.5C2005.7,2565.8 1985,2549.2 1976.6,2538C1968.1,2526.4 1958.8,2512.5 1956,2507.1C1952,2499.1 1938,2454.1 1938,2449.1C1938,2447.7 1937.3,2444.3 1936.5,2441.6C1934.3,2434.5 1934.3,2382.5 1936.5,2375.4C1937.3,2372.7 1938,2369.4 1938,2368C1938,2365.3 1941.6,2352.4 1946.1,2339C1947.6,2334.3 1949.9,2327.1 1951.1,2323C1954.2,2312.3 1962,2297.3 1967,2292.5C1969.3,2290.3 1972.9,2286 1975.1,2282.9C1980.6,2274.8 1989.6,2269.3 2002.2,2266.3C2007.6,2265.1 2014.2,2262.9 2017,2261.5C2021.5,2259.2 2023.1,2259 2034,2259C2044.6,2259 2047.1,2259.3 2055.7,2262.1C2084.8,2271.3 2100.1,2278.6 2110.3,2287.9C2112.6,2290 2117.7,2293.8 2121.5,2296.3C2131.7,2302.9 2144.5,2316.3 2146,2322C2148.2,2330.7 2150.9,2339 2152.4,2341.8C2153.2,2343.4 2154.8,2348.4 2156,2353.1C2157.1,2357.7 2160.1,2365.5 2162.6,2370.5C2165.4,2376.1 2167.4,2381.8 2168,2385.5C2168.5,2388.8 2169.4,2393.1 2169.9,2395C2170.5,2396.9 2171,2400.7 2171,2403.5C2171,2406.5 2172,2410.9 2173.5,2414.5C2174.8,2417.8 2176,2422.3 2176,2424.5C2176,2426.7 2177.1,2432 2178.5,2436.3C2180.7,2443.1 2181,2445.9 2181,2458.4C2181,2468.2 2181.5,2474.2 2182.5,2477.6C2184.3,2483.5 2184.4,2490.8 2182.9,2494.7C2182.2,2496.2 2181.3,2501.8 2180.9,2507C2180.5,2512.2 2179.5,2519.6 2178.7,2523.5C2177.9,2527.3 2176.9,2532.1 2176.5,2534C2173.1,2551.7 2165.1,2584.6 2162.9,2590.3C2160.4,2596.5 2160.5,2600.2 2163,2602.5C2164.2,2603.6 2171.4,2606 2179.3,2608.1C2214,2617.1 2240.4,2623.4 2248.8,2624.6C2251.2,2624.9 2255.7,2626.6 2258.8,2628.3C2264.2,2631.2 2265.1,2631.3 2278.4,2631.7C2286.8,2631.9 2294.3,2632.6 2297.3,2633.5C2300.1,2634.3 2305.8,2635 2310.1,2635C2314.3,2635 2319.6,2635.7 2322,2636.5C2327.4,2638.4 2332.6,2638.4 2338,2636.5C2340.3,2635.7 2345.2,2635 2348.9,2635C2352.5,2635 2357.2,2634.5 2359.4,2633.9C2363.1,2632.9 2365,2632.5 2378.9,2630C2382.3,2629.4 2388.3,2627.4 2392.1,2625.5C2397.5,2622.7 2400.2,2622 2404.6,2622C2408.2,2622 2412.3,2621.1 2416.4,2619.5C2419.9,2618.1 2426.2,2615.9 2430.6,2614.6C2434.9,2613.2 2449.1,2607.8 2462,2602.5C2495.9,2588.6 2510.5,2583.4 2528,2579C2546.4,2574.4 2564.5,2568.2 2575.3,2562.8C2579.5,2560.7 2587.3,2557.5 2592.4,2555.6C2601.8,2552.3 2606,2549.8 2617.8,2540.8C2621.3,2538.2 2624.8,2536 2625.6,2536C2626.4,2536 2631.7,2531.6 2637.3,2526.2C2642.9,2520.8 2649.5,2515 2652,2513.3C2657.1,2509.9 2678,2488.6 2678,2486.9C2678,2486.3 2683.1,2480.5 2689.4,2474.1C2695.6,2467.7 2701.7,2460.5 2703,2458C2704.2,2455.5 2706.7,2451.7 2708.4,2449.5C2710.1,2447.3 2712.8,2443.6 2714.4,2441.3C2715.9,2439 2718.2,2436.5 2719.4,2435.7C2720.5,2434.9 2724.9,2429.9 2729,2424.5C2733.1,2419.1 2739,2412 2742,2408.6C2745.1,2405.3 2748.6,2400.9 2749.9,2399C2751.3,2397.1 2756.5,2391.2 2761.5,2386C2766.6,2380.8 2771.7,2374.6 2772.9,2372.2C2774.1,2369.8 2779.9,2360.6 2785.8,2351.7C2795.7,2336.8 2805.9,2317.7 2816.9,2293.5L2821,2284.5L2821,2267.4C2821,2254.7 2820.6,2249.1 2819.5,2246C2818.2,2242.4 2818,2232.1 2818,2178C2818,2123.9 2818.2,2113.6 2819.5,2110C2820.5,2107.3 2821,2102 2821,2095.1C2821,2088.8 2821.6,2082.6 2822.4,2079.8C2823.3,2076.8 2823.7,2073.1 2823.3,2069.6C2822.8,2064.3 2823.3,2060.9 2827.6,2043.9C2828.4,2040.9 2829,2035.9 2829,2032.8C2829,2029.7 2829.9,2024.8 2831.1,2021.4C2832.5,2017.6 2833.6,2011.5 2834,2004.5C2834.5,1998.4 2835.7,1990.3 2836.9,1986.5C2838,1982.6 2839,1977.9 2839,1975.9C2839,1973.9 2840.4,1967.7 2842,1962.2C2843.7,1956.6 2845,1950.6 2845,1948.8C2845,1947 2845.7,1943.2 2846.6,1940.5C2847.4,1937.7 2849.9,1928.6 2852.1,1920.2C2854.3,1911.7 2856.9,1903.1 2857.9,1901.1C2859,1899.1 2860.1,1895.6 2860.5,1893.5C2860.9,1891.3 2863,1883.4 2865.1,1875.9C2867.3,1868.4 2869,1861.2 2869,1859.9C2869,1858.6 2870.1,1853.9 2871.5,1849.5C2872.9,1845.1 2874,1840.7 2874,1839.6C2874,1835 2880.5,1815.7 2884.6,1808.1C2887.1,1803.5 2890.5,1795.7 2892.1,1790.6C2894.9,1782 2899.4,1773.6 2902.5,1771C2903.3,1770.4 2905.1,1766.6 2906.6,1762.7C2910,1753.4 2918.9,1744.1 2926.2,1742.1C2930.5,1740.9 2931.4,1741 2937,1743.1C2944.2,1745.9 2949.8,1750.3 2954.2,1756.8C2961.1,1767.1 2965.2,1771.2 2971.2,1773.7C2976.1,1775.9 2977.7,1777.2 2981,1782.2C2985.1,1788.4 2988.5,1798.1 2992,1814C2993.1,1819.2 2994.6,1825.3 2995.2,1827.5C2997.1,1834.7 2997.4,1855.4 2995.6,1860.7C2994.7,1863.3 2994,1868.5 2994,1872.4C2994,1876.3 2993.3,1881.5 2992.4,1883.9C2991.3,1887.1 2991.1,1890.1 2991.6,1895.1C2992.2,1900.9 2991.8,1903.9 2989.2,1914.2C2987.6,1921 2985.7,1928.7 2985.1,1931.5C2981.3,1949.6 2976.2,1967.7 2972.9,1975.1C2970.2,1981.1 2969,1985.2 2969,1988.3C2969,1991.4 2968,1994.6 2966,1998.5C2964.3,2001.7 2961.6,2007.9 2960,2012.4C2958.4,2016.9 2956.6,2021.9 2955.9,2023.7C2954.8,2026.4 2954.9,2027.4 2956.4,2030.9C2958.9,2036.2 2957.9,2039.4 2953,2042.5C2948.3,2045.5 2946.5,2048.2 2945.5,2053.5C2945.2,2055.7 2943.3,2060.6 2941.4,2064.4C2939.5,2068.1 2937.4,2073.8 2936.9,2076.9C2936.3,2080 2934.5,2086.1 2932.9,2090.5C2931.2,2094.9 2928.5,2102.7 2926.8,2107.9C2924.2,2116.1 2923.1,2118.1 2918.5,2122.9C2912.9,2128.9 2910.6,2134.4 2908.9,2146.5C2906,2166.9 2905,2169.1 2892.4,2183.9C2890.7,2185.9 2887.4,2190.6 2885,2194.4C2880.6,2201.8 2880.6,2201.2 2882.6,2211.8C2883.2,2215 2882.8,2215.6 2875.2,2223C2868.4,2229.5 2866.4,2232.1 2863.2,2239.1C2861,2243.7 2858.9,2248.6 2858.5,2250C2856.3,2257.1 2850.8,2267.2 2846.6,2271.8C2842,2277.1 2842,2277.1 2842,2284.5C2842,2289.8 2842.9,2295.3 2845.1,2303.2C2847.6,2312.5 2848.1,2315.7 2847.7,2321.3C2847.3,2325.7 2847.6,2329.7 2848.5,2332.8C2849.4,2335.8 2850,2342 2850,2349.6C2850,2357.8 2850.5,2363.1 2851.5,2366C2852.29,2368.28 2852.85,2372.54 2852.97,2377.39L2853.03,2381.61C2853.16,2386.46 2853.71,2390.72 2854.5,2393C2855.7,2396.3 2856,2402.2 2856,2418.9C2856,2435.4 2856.4,2441.7 2857.6,2445.5C2858.7,2449.3 2858.9,2453.1 2858.5,2461.5C2858,2470 2858.2,2473.6 2859.4,2477.5C2860.6,2481.2 2861,2486.9 2861,2499.6C2861,2512.3 2861.4,2517.9 2862.5,2521C2863.7,2524.3 2864,2530.5 2864,2549.4C2864,2568.2 2864.4,2574.6 2865.6,2578.5C2866.8,2582.5 2867.1,2588.1 2866.9,2606C2866.8,2621 2867.1,2629.4 2867.9,2631.3C2868.5,2633 2869,2640.2 2869,2649.1C2869,2659.2 2869.4,2664.8 2870.2,2666.3C2870.9,2667.5 2871.8,2672.3 2872.1,2677C2873.1,2689.7 2874.6,2700.2 2875.9,2703.3C2876.5,2704.9 2877,2709.2 2877,2712.9C2877,2716.6 2877.7,2722.1 2878.6,2725C2879.9,2729.4 2880.1,2732.9 2879.5,2742.5C2879,2752 2879.2,2755.6 2880.4,2759.5C2881.3,2762.2 2882,2767.5 2882,2771.1C2882,2774.8 2882.7,2779.7 2883.5,2782C2884.4,2784.6 2885,2789.9 2885,2795.7C2885,2801.5 2885.6,2807.4 2886.6,2810.8C2887.7,2814.5 2888,2818 2887.6,2821.5C2887.2,2824.9 2887.5,2828.4 2888.5,2831.6C2889.3,2834.3 2890,2839 2890,2842.1C2890,2845.2 2890.7,2849.7 2891.5,2852C2892.3,2854.3 2893,2859 2893,2862.3C2893,2868.7 2893.6,2872.8 2897.5,2892.5C2898.9,2899.1 2900.4,2907.4 2901.1,2911C2902.3,2918.2 2904.1,2921 2907.6,2921C2910.2,2921 2910.4,2920.8 2920.5,2904.8C2928.5,2892.1 2931.6,2884.4 2933,2873.5C2933.5,2869.6 2934.3,2864.9 2935,2863C2935.6,2860.9 2935.8,2856.4 2935.5,2852C2935,2846.6 2935.3,2843.1 2936.4,2839.5C2937.6,2835.9 2938,2830.1 2938,2818.4C2938,2806.6 2938.4,2801.1 2939.5,2798C2940.7,2794.7 2941,2788.4 2941,2768.5C2941,2748.6 2940.7,2742.3 2939.5,2739C2938.4,2736 2938,2730.5 2938,2720.1C2938,2710.1 2937.5,2704 2936.5,2700.6C2935.2,2696.5 2935,2686.5 2935,2640.5C2935,2594.5 2935.2,2584.5 2936.5,2580.4C2937.7,2576.4 2938,2567.4 2938,2530.3C2938,2503.6 2938.4,2484.1 2939,2482.6C2940.2,2479.3 2942,2467.1 2943,2455C2943.4,2449.8 2944.3,2444.2 2944.9,2442.7C2945.5,2441.1 2946,2436.9 2946,2433.2C2946,2429.5 2946.7,2424.3 2947.5,2421.6C2948.3,2418.9 2949,2415.2 2949,2413.4C2949,2411.5 2950.1,2405.7 2951.5,2400.4C2952.9,2395.1 2954,2388.7 2954,2386.1C2954,2383.6 2954.7,2379.3 2955.5,2376.6C2956.3,2373.9 2957,2369.1 2957,2365.9C2957,2362.4 2957.8,2358.4 2959,2355.4C2960.1,2352.8 2961.5,2347.9 2961.9,2344.4C2962.4,2340.9 2963.8,2335 2964.9,2331.3C2966,2327.6 2968.3,2319.8 2970,2314C2975.1,2297.1 2984.8,2276 2990.6,2269.2C2995.4,2263.5 3004.8,2258.9 3020.7,2254.4L3033.5,2250.8L3040.5,2252.5C3056.7,2256.4 3070.5,2263.5 3078.7,2272.1C3084.1,2277.8 3101.8,2304.7 3106.8,2314.7C3112.2,2325.6 3119.6,2344.3 3121.5,2352C3122.4,2355.6 3124.7,2363.1 3126.6,2368.8C3128.5,2374.4 3130,2380 3130,2381.1C3130,2383.1 3131.7,2391.8 3134.2,2402C3135.4,2407.1 3136.6,2415.6 3137.9,2428C3138.4,2432.7 3139.3,2437.8 3139.9,2439.3C3140.43,2440.7 3140.87,2443.63 3140.98,2446.35L3141.02,2448.65C3141.13,2451.37 3141.58,2454.3 3142.1,2455.7C3142.8,2457.2 3143.7,2463.7 3144.1,2470C3145.8,2491.5 3146.8,2500.5 3147.9,2503.3C3148.5,2504.9 3149,2510.6 3149,2516.1C3149,2521.9 3149.5,2527.1 3150.2,2528.3C3150.8,2529.5 3151.7,2535.9 3152.2,2542.5C3154.1,2569.2 3154.8,2575.6 3155.9,2578.3C3156.5,2579.9 3157,2584.9 3157,2589.4C3157,2594.3 3157.6,2599.5 3158.5,2602C3159.6,2605.1 3160,2610.6 3160,2622.7C3160,2633.4 3160.4,2639.9 3161.2,2641.3C3161.9,2642.7 3162.3,2647.5 3162.1,2654C3162,2661 3162.5,2666.2 3163.5,2669.5C3164.3,2672.3 3165,2676.6 3165,2679.1C3165,2681.6 3165.7,2686 3166.5,2688.8C3168,2693.6 3167.9,2694.4 3166.3,2699C3164.6,2703.7 3164.6,2704.2 3166.3,2710.4C3167.2,2713.9 3168,2720.2 3168,2724.3C3168,2728.5 3168.5,2733.1 3169.1,2734.7C3169.8,2736.4 3170.2,2744.2 3170.1,2755C3169.9,2768.5 3170.3,2773.5 3171.5,2776.9C3172.5,2779.8 3173,2784.9 3173,2791.9C3173,2798.2 3173.6,2804.4 3174.5,2807.2C3175.2,2809.8 3175.9,2815 3175.8,2818.7C3175.8,2822.5 3176.3,2826.8 3176.9,2828.3C3177.5,2829.9 3178,2832.9 3178,2835.1C3178,2840.6 3181.5,2852.7 3184.4,2857.1C3187.4,2861.5 3194.1,2865 3199.7,2865C3201.9,2865 3205.7,2865.7 3208.1,2866.5C3211.9,2867.9 3212.9,2867.9 3217.6,2866.5C3220.5,2865.7 3224.4,2865 3226.3,2865C3231.6,2865 3242.7,2861.2 3244.4,2858.9C3245.6,2857.1 3245.8,2853.7 3245.3,2840.1C3245,2830.6 3244.2,2821.4 3243.4,2818.6C3242.5,2815.3 3242,2808.3 3242,2797.4C3242,2787.8 3241.5,2780 3240.9,2778.3C3239.3,2774.4 3238,2764.7 3237.1,2750C3236.7,2743.1 3235.8,2736.2 3235.2,2734.7C3234.5,2733.1 3234,2728.8 3234,2725C3234,2721.2 3233.5,2716.9 3232.9,2715.3C3231.5,2711.5 3230.1,2701 3229.1,2686C3228.7,2679.1 3227.8,2672.2 3227.1,2670.7C3226.5,2669.1 3226,2663.7 3226,2658.7C3226,2653.6 3225.5,2647.9 3224.9,2646C3223,2640.2 3221.9,2622.4 3221.2,2586C3220.7,2562 3220.1,2550.6 3219.2,2548.7C3218.4,2546.8 3218,2540.1 3218,2528.1C3218,2515.4 3217.6,2509.1 3216.6,2506.3C3215.1,2501.9 3214,2462.8 3215.3,2457.5C3215.8,2455.6 3215.5,2452.6 3214.5,2449.5C3213.4,2445.9 3213,2439.8 3213,2427.4C3213,2414.7 3212.6,2409.1 3211.5,2406C3210.3,2402.5 3210,2395.1 3210,2365C3210,2334.3 3209.7,2327.5 3208.4,2323.9C3207.3,2320.7 3207,2316.4 3207.1,2308.5C3207.3,2301.5 3206.9,2296.1 3206.1,2293.6C3205.2,2291.1 3205,2288 3205.5,2284.6C3206.3,2278.8 3206.3,2280 3205.2,2253.5C3204.7,2242.1 3203.9,2232.3 3203.2,2230.7C3202.4,2228.8 3202,2220.2 3202,2203.5C3202,2187.6 3201.6,2178.2 3200.9,2176.3C3199.6,2173.3 3198.4,2163.8 3197.1,2146.5C3196.7,2140.4 3195.8,2134.2 3195.2,2132.7C3194.5,2131 3194,2124.2 3194,2116.2C3194,2102.9 3193,2091.2 3190.9,2080C3190.4,2077 3189.6,2070.2 3189.1,2065C3188.7,2059.8 3187.8,2054.2 3187.1,2052.7C3186.5,2051.1 3186,2046.9 3186,2043.2C3186,2039.5 3185.5,2034.9 3184.9,2033C3184.3,2031.1 3183.4,2025.2 3182.9,2020C3181.1,2000.8 3180.2,1994.4 3179.1,1991.7C3178.5,1990.1 3178,1984.6 3178,1979.4C3178,1974.2 3177.4,1967.4 3176.6,1964.2C3173.1,1950.2 3172.6,1947 3172.9,1939C3173,1933.3 3172.6,1929 3171.5,1926C3169.3,1919.6 3169.1,1819.8 3171.3,1810.5C3172.1,1807.2 3173.3,1801.8 3173.9,1798.5C3176.8,1783.8 3179.7,1772.6 3183.6,1760.7C3187.6,1748.7 3189.6,1743.8 3197.2,1727C3198.9,1723.4 3201.7,1716.1 3203.7,1710.6C3207.1,1700.7 3224.8,1664.6 3231.6,1653.5C3242.7,1635.5 3259.6,1612 3269.2,1601.3C3271.3,1598.9 3274.2,1594.6 3275.6,1591.6C3277.9,1586.8 3279.1,1585.5 3286.9,1580.6C3291.8,1577.5 3298.5,1572.6 3301.9,1569.6C3305.2,1566.5 3308.9,1563.6 3310,1563C3311.1,1562.4 3313.5,1558.9 3315.4,1555.2C3319.4,1547.2 3329.8,1536.9 3335.7,1534.9C3341.5,1533 3343.8,1531.2 3346.7,1526.1C3351.3,1518.1 3357.7,1512.3 3365.3,1509.3C3373.4,1506.1 3377,1502.9 3380.9,1495.1C3383.1,1490.9 3385.2,1488.5 3389.3,1485.7C3392.4,1483.5 3396.3,1479.6 3398.3,1476.6C3400.3,1473.7 3404,1469.5 3406.7,1467.4C3413.1,1462.2 3413.9,1461.1 3414,1457.3C3414,1454.8 3413.2,1453.5 3410.7,1451.6C3408.8,1450.1 3406.9,1449 3406.3,1449C3405.8,1449 3403,1446.9 3400,1444.4C3397.1,1441.9 3392.4,1438.7 3389.6,1437.3C3386.8,1435.9 3382.1,1432.5 3379.2,1429.7C3375.8,1426.2 3370.9,1423 3364.7,1420C3358.6,1417 3355.1,1414.7 3354.3,1413C3353.5,1411.5 3353,1406.5 3353,1400.8C3353,1391.9 3353.2,1390.9 3355.5,1388.1C3358.5,1384.6 3364,1382.5 3368.2,1383.4C3369.8,1383.7 3374.6,1386.7 3378.8,1390.1C3384.6,1394.7 3392.9,1399.5 3413.3,1409.6C3446.3,1426.1 3448,1426.3 3452.4,1415.7C3453.8,1412.2 3455.8,1409.5 3467.2,1396.3C3476,1386.1 3474.9,1380.4 3463,1373.6C3458.8,1371.1 3453.9,1368 3452.3,1366.6C3449.2,1364 3437.9,1358.5 3427.5,1354.5C3407.7,1347 3396.8,1336.7 3398.4,1326.8C3399.3,1321 3402.4,1315.6 3405.7,1314.1C3409.8,1312.1 3419.4,1311 3438,1310.1C3447.4,1309.7 3455.8,1308.8 3457.5,1308.1C3459.8,1307.2 3467.7,1306.9 3489.5,1307.1C3517.9,1307.4 3518.6,1307.3 3522.8,1305.1C3526.7,1303.1 3527.6,1301.9 3531.7,1293.2C3534.2,1287.9 3538.2,1277.4 3540.7,1270C3545.7,1255.2 3548.3,1250 3553,1245.6C3555.7,1243.1 3556.1,1242.2 3555.6,1239.6C3553.3,1228.6 3553.6,1226.1 3559.4,1208.8C3562.5,1199.7 3565,1191.4 3565,1190.5C3565,1187.9 3568,1182.8 3571.8,1178.7C3575.3,1175.1 3575.4,1174.9 3574.3,1170.7C3573.2,1166.9 3573.4,1165.7 3576.1,1158C3584.1,1135.7 3595.2,1100.5 3598.9,1086C3600.5,1079.7 3603.2,1070 3604.8,1064.5C3607.4,1055.6 3607.7,1053.4 3607.3,1045.9C3606.9,1039.7 3607.2,1035.9 3608.4,1031.8C3609.4,1028.4 3610,1022.5 3610,1016.7C3610,1010.9 3610.6,1005.6 3611.5,1003C3612.3,1000.7 3613,997.1 3613,995.1C3613,993.1 3613.7,989.4 3614.5,986.8C3615.5,983.4 3615.7,979.6 3615.3,973.7C3614.9,967.6 3615.2,964 3616.4,959.8C3617.8,955 3618,947.6 3618,905.2C3618,871.7 3617.6,855.2 3616.9,853.3C3616.3,851.8 3615.6,846.2 3615.5,841C3614,798.6 3613.4,795.5 3607.8,799.2C3606,800.4 3604.5,803.3 3602.6,809.2C3601.1,813.8 3597.8,822.4 3595.2,828.4C3591.5,837.1 3589.3,840.6 3584.9,845.3C3580.1,850.4 3578.8,852.6 3576.5,859.7C3574.9,864.4 3571.5,871.8 3568.8,876.3C3566.1,880.8 3562.5,887.1 3560.9,890.2C3559.3,893.3 3555.5,899.5 3552.5,904C3549.5,908.5 3545.6,914.8 3544,918C3542.3,921.3 3538.3,928.1 3535,933.1C3531.7,938.1 3527.3,945.7 3525.3,949.9C3519.9,961 3507.9,981 3500.8,990.6C3494.4,999.2 3495.7,1002.9 3507.2,1008.6C3515.6,1012.8 3531.6,1029 3540.3,1041.9C3542.5,1045.2 3548.5,1064.4 3549.8,1072.6C3551.8,1084.4 3549.3,1089.8 3536.3,1102.7C3526.1,1112.8 3524.1,1114.1 3509.3,1119.7C3496.2,1124.7 3490.6,1124.7 3475,1119.7C3464.9,1116.5 3456.9,1112.6 3443.5,1104.3C3441.3,1103 3438.8,1099.1 3434.3,1090.2C3428.3,1078.4 3428,1077.5 3428,1070.5C3428,1065.3 3428.9,1060.3 3431.1,1053C3435,1039.7 3435.9,1038 3443.1,1031.1C3451.8,1022.6 3450.9,1020 3437.9,1016.5C3433.3,1015.2 3423,1011.9 3415,1009.2C3407,1006.4 3396.5,1003 3391.5,1001.6C3363.9,993.7 3354.2,990.6 3349.9,988.4C3347.3,987.1 3342.3,985 3338.8,983.7C3335.3,982.3 3324.7,977.4 3315.1,972.6C3305.6,967.8 3292.8,961.9 3286.6,959.6C3280.5,957.2 3272.3,953.7 3268.5,951.7C3256.1,945.6 3239,940.4 3214.5,935.5C3210.1,934.6 3203.6,933.3 3200,932.5C3190.4,930.5 3183.4,929.3 3175,928.1C3170.9,927.5 3165.3,926.6 3162.5,926C3157.1,924.8 3151.4,925.3 3143.3,927.6C3138.4,928.9 3138.1,929.3 3137.5,932.8C3136.3,940.7 3134.6,946.8 3131.8,953C3130.2,956.6 3127.5,962.9 3125.9,967.1C3123.4,973.7 3121.9,975.7 3114.7,982.7C3107.5,989.8 3105,991.4 3093.5,997C3076.5,1005.2 3072.9,1005.9 3062.5,1003.2C3048,999.5 3043.3,997.2 3035.6,990.2C3031.7,986.6 3027.5,982.3 3026.3,980.5C3023.5,976.4 3021.7,969.5 3022.4,965.6C3023.2,961.6 3030.9,949 3036.4,942.9C3038.6,940.3 3041.3,937.1 3042.3,935.6C3044.2,932.8 3057.7,922.4 3064.5,918.5C3071.4,914.5 3095,906 3101.9,905C3107.2,904.3 3109,903.5 3110.8,901.4C3113,898.9 3113.1,898.1 3112.5,892.1C3112.1,888.5 3111.2,884 3110.4,882.1C3109.6,880.3 3109,877.8 3109,876.5C3109,875.3 3107.2,868.2 3105,860.7C3102.5,852.4 3101,845.1 3101,841.8C3101,838.9 3100.3,834.3 3099.5,831.6C3098.7,828.9 3098,824.5 3098,821.8C3098,819.1 3096.9,813 3095.7,808.2C3091.8,793.9 3091.2,791 3090,780.5C3088.5,767.3 3088.3,766.4 3086.4,764.6C3082.9,761 3078.5,763.8 3073.2,773C3071.8,775.5 3069.1,779.3 3067.3,781.6C3065.5,783.8 3063.3,787.4 3062.4,789.6C3060,795.5 3056.7,799.4 3050.6,803.4C3043.2,808.3 3033,818.8 3027.3,827.5C3024.7,831.3 3021,836.3 3019.1,838.6C3015,843.1 3008.7,852.2 3000.1,865.6C2996.8,870.7 2993.7,875.1 2993.1,875.5C2992.5,875.8 2990.3,879.4 2988.3,883.3C2984.6,890.8 2975.8,904.4 2974,905.5C2973.5,905.8 2967.3,914.8 2960.4,925.3C2953.5,935.9 2945.6,946.7 2943,949.5C2940.3,952.2 2936.5,957.4 2934.4,961C2932.4,964.6 2929.5,969.5 2928.1,972C2926.7,974.5 2922.8,980.5 2919.5,985.5C2914.3,993.2 2912.6,997 2907.6,1012C2904.3,1021.6 2898.8,1035.7 2895.2,1043.2C2890.4,1053.3 2888.9,1057.5 2889.4,1059.4C2890.1,1062.4 2890.9,1062.6 2902.5,1064C2909.6,1064.9 2918.1,1067.4 2941.5,1075.4C2958,1081.1 2977.6,1088.3 2985,1091.4C2992.4,1094.5 3001.2,1098.2 3004.5,1099.6C3010.2,1101.9 3025.8,1112.7 3029,1116.5C3029.8,1117.5 3031.6,1120.3 3033,1122.9C3034.4,1125.4 3036.7,1128.1 3038.2,1128.8C3040.6,1129.9 3041.6,1129.8 3045.8,1128C3049.9,1126.2 3053,1125.9 3064.6,1125.7C3076.6,1125.5 3079.4,1125.8 3085.2,1127.7C3099.4,1132.4 3106.6,1137.9 3113.2,1149.4C3115.5,1153.3 3118.7,1158.1 3120.3,1160C3122,1161.9 3125.4,1167.7 3127.9,1173C3132.2,1181.9 3132.5,1183.1 3133,1193C3133.5,1202.6 3133.9,1204.2 3137.3,1211.2C3142,1220.8 3142.2,1224.5 3138.1,1232.9C3135.7,1237.9 3135.1,1240.7 3135.1,1245.1C3135.2,1248.3 3134.9,1251.3 3134.6,1251.9C3134.2,1252.5 3133.5,1256.2 3133,1260.2C3132.5,1264.2 3131.5,1269.4 3130.8,1271.8C3129.8,1275.3 3129.8,1277 3131.2,1282.1C3133.2,1289.5 3133.5,1288.6 3122.8,1309.5C3112.8,1329 3109.3,1334.6 3102.1,1342.5C3099,1345.8 3094.5,1351.5 3092,1355C3086,1363.7 3076.2,1373.3 3066.6,1380C3062.3,1383 3056.7,1387.2 3054.2,1389.3C3051.8,1391.4 3046.8,1394.6 3043.1,1396.5C3039.4,1398.3 3035.8,1400.5 3035.1,1401.4C3031.6,1405.5 3037.3,1410.4 3050.8,1415C3056.2,1416.7 3059.2,1417 3070.3,1416.9C3078.6,1416.8 3084.9,1417.1 3087.2,1417.9C3089.9,1418.8 3091.9,1418.8 3094.7,1418.1C3096.8,1417.5 3101.5,1417 3105.1,1417C3112,1417 3122.4,1414.4 3129.2,1410.9C3137.6,1406.6 3148,1409.9 3153.5,1418.4C3157,1423.8 3165.9,1432.8 3170,1435C3171.4,1435.7 3179.8,1441.2 3188.6,1447.1C3203.4,1456.9 3205.9,1458.2 3217.4,1461.9C3224.3,1464.2 3232.5,1466.7 3235.7,1467.4C3238.9,1468.2 3243.3,1469.6 3245.5,1470.4C3250.2,1472.2 3254.4,1472.4 3257.1,1471C3259.8,1469.5 3259.5,1468 3255.1,1461.9C3249.7,1454.3 3243.2,1441.1 3239.9,1430.6C3237.3,1422.5 3237,1420.3 3237,1407.7C3237,1393 3236.9,1392.5 3230.7,1373C3227.5,1362.8 3221.1,1349.2 3218.6,1347.1C3217.8,1346.4 3216.1,1346 3214.8,1346.2C3212.6,1346.5 3211.6,1347.9 3208.5,1355.6C3207.6,1357.8 3204.3,1362.3 3201.2,1365.5C3196.6,1370.2 3192.9,1372.5 3181.6,1378.1C3174,1381.9 3166.7,1385 3165.4,1385C3161.6,1385 3152.1,1381 3148.5,1377.9C3144.5,1374.4 3142,1368.4 3137.9,1352.2C3134.8,1340 3134.8,1339.8 3136.4,1334.1C3137.3,1331 3138,1326.9 3138,1325.1C3138,1319.5 3143.5,1315.1 3156.4,1310.5L3167.2,1306.7L3185.1,1307.3C3205.9,1308.1 3205.8,1308.2 3208.5,1298.3C3216.1,1271.1 3231,1236.7 3246,1212C3254.6,1197.7 3273.8,1180.4 3290.7,1171.6C3295.2,1169.4 3311.9,1163.5 3319.2,1161.7C3337.6,1157 3359.6,1162.9 3373.8,1176.1C3383.4,1185.2 3383.4,1185.1 3408,1184.4C3431.2,1183.6 3436.1,1184.3 3448.5,1190.2C3455.4,1193.4 3458.3,1193.6 3464,1191.4C3468.4,1189.6 3468.1,1189.6 3485.7,1193.4C3500.3,1196.5 3501.7,1197 3505.9,1200.5C3510.9,1204.8 3513.3,1210.4 3512.8,1216.7C3511.9,1227.8 3501,1235.3 3490.5,1232C3488.3,1231.3 3480.4,1230.4 3473,1230.1C3458.2,1229.4 3454.1,1228.2 3445.2,1221.6C3437,1215.7 3432.7,1214 3425.7,1214C3421.9,1214 3416.6,1213.1 3412.9,1211.9C3405.1,1209.4 3398.9,1210 3395.4,1213.5C3393.1,1215.9 3393,1216.2 3393.6,1227.2C3394.4,1240.2 3393.6,1242.5 3385.1,1253.5C3382.5,1256.8 3378.4,1263.1 3376,1267.5C3367,1283.5 3350.9,1295.9 3333.5,1300.1L3324.4,1302.3L3318.2,1299.5C3314.8,1298 3310.7,1295.3 3309.1,1293.5C3305.7,1289.6 3292.5,1268.4 3291.6,1265.3C3291.1,1263.9 3291.7,1261.3 3292.9,1258.4C3294.2,1255.5 3295,1251.6 3295,1248.2L3295,1242.7L3308.8,1228.7C3316.3,1221 3325.2,1213 3328.4,1210.9C3334.2,1207.1 3334.6,1207 3343.3,1207C3352.1,1207 3352.2,1207 3355.6,1203.6C3357.5,1201.7 3359,1199.5 3359,1198.6C3359,1193 3348.7,1190.5 3331.7,1191.8L3320,1192.7L3305,1200C3290.4,1207.2 3289.8,1207.6 3279.5,1217.9C3267.9,1229.7 3263.5,1235.6 3260,1244.5C3258.7,1247.8 3254.6,1256.6 3250.9,1264.2C3242.3,1281.5 3231,1309.5 3231,1313.6C3231,1315.6 3232.2,1318.3 3234.3,1321.1C3236.2,1323.5 3238.5,1327.1 3239.5,1329C3240.5,1330.9 3243.3,1335.3 3245.7,1338.7C3252,1347.6 3256.6,1358.2 3261.6,1375.6L3266,1391L3266,1409.3C3266,1424.8 3266.3,1428.1 3267.9,1431.5C3270.4,1436.9 3277.6,1443.3 3285.7,1447.3C3289.5,1449.1 3294.8,1452.1 3297.7,1453.9C3304.2,1458.1 3318.9,1462 3327.9,1462C3336,1462 3341.7,1464.4 3345.4,1469.3C3352.9,1479.1 3346.8,1490.2 3331.1,1495C3325.3,1496.8 3323,1497 3309.1,1496.4C3296.2,1495.8 3292.5,1496 3287.8,1497.4C3284.7,1498.3 3278.7,1499 3274.3,1499C3269.9,1499 3264,1499.7 3261,1500.6C3255.7,1502.2 3253.1,1502.1 3245.5,1500.2C3243.3,1499.6 3237.9,1498.4 3233.5,1497.5C3229.1,1496.6 3222.1,1494.8 3218,1493.5C3213.9,1492.3 3206.9,1490.2 3202.6,1489C3193.6,1486.6 3168.8,1474.5 3163.8,1470.2C3162,1468.6 3158.1,1466.1 3155.2,1464.5C3152.2,1462.9 3149.1,1460.2 3147.9,1458.3C3146.7,1456.5 3144.2,1453.8 3142.2,1452.3C3140.1,1450.8 3136.8,1448 3134.7,1446.1C3131.5,1443 3130.2,1442.5 3126.2,1442.5C3123.6,1442.5 3118.8,1443.2 3115.5,1444.2C3106.9,1446.6 3099.6,1448.1 3092.6,1449.1C3089.3,1449.6 3084.6,1450.3 3082.3,1450.6C3079.9,1451 3076.8,1450.8 3075.3,1450.1C3073.7,1449.5 3068.4,1448.8 3063.4,1448.6C3054.7,1448.3 3053.7,1448 3042.8,1442.8C3036.5,1439.8 3027.3,1434.6 3022.4,1431.3C3009,1422.4 3000.1,1417.4 2994.4,1415.6C2988.7,1413.7 2981.9,1407.7 2978.8,1401.6C2976.1,1396.3 2975.9,1389.6 2978.5,1387.2C2982.1,1383.7 2989.6,1382 3000.9,1382C3011.2,1382 3011.8,1381.9 3021.5,1377.7C3027,1375.3 3034.2,1371.6 3037.5,1369.5C3045.7,1364.2 3062.5,1348.5 3069.1,1339.8C3072.1,1335.9 3076.4,1330.6 3078.6,1328.1C3084.3,1321.8 3100.2,1289.9 3103.5,1278.1C3104.9,1273.2 3106,1267.3 3106,1265.2C3106,1263 3106.7,1259.3 3107.5,1257C3108.6,1253.8 3109,1248.2 3109,1235C3109,1221.8 3108.6,1216.2 3107.5,1213C3106.7,1210.7 3106,1206.5 3106,1203.8C3106,1198 3104,1189.4 3100.3,1179.7C3098.4,1174.5 3096.1,1171 3090.8,1165.2C3078.2,1151.4 3079.2,1152 3069.2,1152C3059.8,1152 3053.5,1153.3 3050.8,1155.8C3048.3,1157.9 3048.5,1166.1 3051,1173.5C3054.4,1183.5 3053.6,1193.3 3047.5,1215C3045.7,1221.5 3045.3,1224.9 3045.7,1229.6C3046.2,1235.4 3046.1,1235.7 3043,1238.3C3041.3,1239.8 3039.2,1241 3038.5,1241C3037.8,1241 3032.4,1244.2 3026.6,1248C3020.8,1251.9 3014.9,1255.5 3013.5,1256C3009.2,1257.6 3003.8,1257.2 2996.2,1254.6C2981.2,1249.5 2973.6,1243.4 2970.5,1233.9C2968.9,1229.2 2968.9,1228.7 2971.1,1221.7C2973.4,1214.2 2977.3,1205.6 2979.5,1203C2980.3,1202.2 2983,1197.4 2985.5,1192.5C2996.4,1171.5 3002.3,1162.7 3010.7,1154.5C3015.9,1149.4 3019,1145.6 3019,1144.3C3019,1143 3016.7,1140.2 3012.8,1136.8C3009.4,1133.9 3004.5,1129.2 3001.8,1126.4C2998.4,1122.8 2994.3,1120 2987.3,1116.6C2976,1111.1 2961.2,1105 2949,1101C2944.3,1099.4 2936,1096.3 2930.5,1094.1C2925,1091.8 2916.5,1089.1 2911.5,1088C2906.6,1086.8 2900.5,1085.2 2898,1084.3C2885.3,1079.9 2882.6,1081.5 2879.8,1095.1C2878.7,1100.3 2877.5,1108.8 2877.1,1114C2876.7,1119.2 2876,1124.2 2875.5,1125C2875,1125.8 2874.2,1131 2873.8,1136.5C2872.6,1152 2871.3,1162.2 2870.1,1166C2869.5,1167.9 2869,1171.1 2869,1173.1C2869,1175.1 2868.4,1178.5 2867.6,1180.7C2866.5,1183.9 2866.1,1194.4 2865.9,1231.9C2865.6,1273.6 2865.8,1279.2 2867.2,1280.6C2868.5,1282 2870.3,1282 2881.5,1281.1C2890.8,1280.3 2895.4,1280.3 2898.4,1281.1C2904.6,1282.8 2919.2,1289 2921.4,1290.9C2924.3,1293.4 2925.8,1297.9 2926.6,1306.2C2927.2,1313.5 2927.2,1313.7 2924.6,1315.8C2923.1,1316.9 2918.4,1318.6 2914.2,1319.6C2896.2,1323.5 2873.9,1334.6 2871.2,1341C2869.7,1344.5 2869.9,1346.4 2873.6,1365.8C2874.3,1369.3 2877.4,1369.8 2893,1368.9C2906.1,1368.1 2908.2,1368.2 2915.3,1370C2925.5,1372.7 2927.7,1373.8 2932.8,1379.4C2937,1383.9 2937,1384 2937,1391.5C2937,1400.8 2935.4,1404.2 2929.7,1407.1C2923.1,1410.5 2917,1414.9 2911,1420.5C2907.9,1423.4 2904,1426.5 2902.3,1427.4C2896,1430.6 2896.1,1431.5 2904.6,1448.8C2908.8,1457.4 2913,1466.5 2914,1469C2917.8,1478.4 2940.2,1513.1 2946,1518.5C2947.8,1520.1 2950.9,1524 2953,1527C2955.1,1530.1 2957.6,1533.2 2958.5,1534C2959.5,1534.8 2961.4,1537.3 2962.8,1539.5C2966.5,1545.3 2976.1,1555.9 2979.2,1557.6C2980.7,1558.4 2982.9,1559 2984.1,1559C2986.7,1559 2997.5,1555.9 3007,1552.4C3013.2,1550.1 3014.9,1550 3035,1550C3051.2,1550 3057.7,1550.4 3061.4,1551.5C3065,1552.6 3068.5,1552.8 3074.1,1552.4C3081,1551.8 3083.5,1552.2 3100.6,1556.4C3111,1558.9 3121.4,1561.4 3123.8,1562C3126.1,1562.5 3131.2,1563 3135,1563C3140.6,1563 3144.7,1563.9 3155.9,1567.6C3176,1574.2 3179.7,1578 3185.1,1597.8C3187.6,1606.9 3187.4,1608 3183.2,1618.5C3182.1,1621.2 3180.2,1626.9 3179,1631C3176.2,1640.3 3171.4,1645.6 3162.5,1649C3156.8,1651.3 3155.4,1651.4 3135.5,1651.1C3124,1651 3112.9,1650.5 3111,1650C3099.9,1647.2 3093.6,1646 3089.5,1646C3086.9,1646 3079.5,1644.7 3072.9,1643C3052.3,1637.9 3026.4,1623.3 3006.1,1605.4C3001.9,1601.7 2995.1,1596.7 2984.6,1589.6L2980.7,1587L2956.1,1587ZM2051.8,2287.9C2065.8,2290 2083.5,2296.9 2095,2304.7C2103.3,2310.3 2125.2,2332.1 2129.4,2338.8C2130.9,2341.2 2133.5,2346.6 2135.1,2350.8C2136.8,2355 2139.7,2362.2 2141.5,2366.7C2143.4,2371.3 2145.2,2376.7 2145.6,2378.7C2145.9,2380.8 2147.1,2386.1 2148.2,2390.5C2149.2,2394.9 2150.5,2400.7 2150.9,2403.5C2151.4,2406.2 2152.9,2413.2 2154.5,2418.9C2156.5,2426.5 2157,2430.4 2156.5,2433.6C2156.1,2436.4 2156.5,2440 2157.5,2443.7C2159.8,2452.1 2159.2,2511.2 2156.6,2524.5C2155.6,2529.4 2154.5,2536 2154.1,2539C2153.6,2542 2152.1,2549.7 2150.6,2556C2147.4,2569.8 2146.4,2575.1 2145.1,2585.3C2144.6,2589.6 2143.6,2593.7 2143,2594.5C2141.1,2596.8 2137.4,2596.3 2126.6,2592.5C2121.2,2590.5 2113.5,2588.1 2109.5,2587C2105.4,2585.9 2096.6,2582.7 2089.8,2579.9C2083,2577.1 2073.9,2573.3 2069.5,2571.5C2054.1,2565.1 2032.6,2553.8 2025.1,2548C2014.5,2539.8 1993.2,2517.7 1989.1,2510.5C1981.2,2496.7 1979.8,2493.8 1977.4,2486.8C1973.8,2476.8 1971,2466.6 1969.9,2460C1969.4,2457 1968.3,2451.3 1967.3,2447.5C1966,2441.9 1965.6,2434.1 1965.3,2408C1964.9,2373 1965,2371.7 1970.7,2352C1975.6,2335.2 1976.3,2333.3 1981.6,2322.9C1987.2,2311.9 1991.8,2306.7 2002,2299.3C2004.5,2297.5 2009.1,2294.1 2012.3,2291.8C2017.4,2288.1 2019,2287.4 2024.8,2286.9C2033.2,2286.1 2042.4,2286.4 2051.8,2287.9ZM2940.5,1770.2C2941.9,1770.8 2944,1773 2945.2,1774.9C2946.4,1776.9 2948.6,1779.8 2950.1,1781.5C2953.8,1785.5 2965,1814.4 2965,1820C2965,1821.4 2965.7,1824.7 2966.5,1827.4C2967.5,1830.8 2968,1836.9 2968,1847C2968,1857.1 2967.5,1863.2 2966.5,1866.6C2965.7,1869.3 2965,1875.2 2965,1879.6C2965,1884.3 2964.4,1889.6 2963.5,1892C2962.7,1894.3 2962,1898.6 2962,1901.4C2962,1904.3 2961.4,1908.9 2960.6,1911.6C2959.8,1914.3 2958.7,1919.6 2958,1923.5C2957.4,1927.3 2955.8,1934.3 2954.5,1939C2953.2,1943.7 2951.2,1951.5 2950,1956.5C2944.5,1978.3 2942,1987.1 2938.7,1996.6C2936.8,2002.1 2933.1,2015 2930.6,2025.1C2928.1,2035.2 2924.7,2046.8 2923,2050.9C2921.4,2055 2920,2058.7 2920,2059.2C2920,2060.3 2905,2100.9 2900,2113C2897.9,2118.2 2895.7,2124.5 2895,2126.9C2894.4,2129.4 2889.8,2140.7 2884.9,2152.2C2880,2163.7 2876,2173.3 2876,2173.6C2876,2173.9 2874.6,2176.2 2872.9,2178.6C2871.2,2181.1 2868.7,2185.9 2867.3,2189.3C2865.9,2192.7 2863.3,2198.2 2861.5,2201.5C2859.6,2204.8 2856.2,2212.9 2853.9,2219.5C2848.7,2234.4 2847.6,2236.7 2844.8,2237.6C2841.5,2238.6 2840,2235.7 2840,2228.1C2840,2224.4 2839.3,2219.4 2838.3,2216.8C2836.7,2212.3 2836.7,2211.7 2838.4,2206.4C2839.9,2201.7 2840,2200.1 2839,2195.9C2837.7,2190.8 2838.5,2182.9 2841.5,2168.5C2842.2,2164.7 2842.6,2155.8 2842.5,2144.5C2842.4,2131.5 2842.7,2125.4 2843.6,2122.6C2844.4,2120.5 2845,2116.3 2845,2113.4C2845,2110.4 2845.6,2105.4 2846.4,2102.2C2849.7,2089 2850,2086.4 2850,2073.6C2850,2064.3 2850.5,2059 2851.5,2056C2852.4,2053.4 2853,2048.2 2853,2042.9C2853,2035.7 2853.5,2032.8 2855.5,2027.8C2856.9,2024.4 2858,2019.9 2858,2017.7C2858,2015.6 2858.7,2011.1 2859.5,2007.7C2860.3,2004.3 2862.2,1996.1 2863.6,1989.5C2865,1982.9 2867.9,1970.3 2870,1961.5C2874.6,1942.5 2875.9,1934.6 2875.3,1930.3C2874.8,1927 2877.1,1919 2884.1,1899.7C2886.2,1893.8 2888,1888.4 2888,1887.8C2888,1887.2 2889.5,1883.3 2891.4,1879.1C2893.2,1874.9 2895.5,1867.9 2896.4,1863.5C2901.7,1837.7 2908.3,1815.3 2915,1800C2917,1795.3 2919.5,1789.4 2920.4,1786.9C2923.2,1779.1 2927.4,1773.5 2932.1,1771.2C2937.2,1768.6 2937.1,1768.7 2940.5,1770.2ZM3042.5,1581C3049.7,1581.5 3060.8,1581.9 3067.4,1581.9C3073.9,1582 3080.9,1582.4 3082.9,1582.9C3084.9,1583.5 3089.9,1584.6 3094,1585.5C3098.1,1586.4 3104.9,1588.2 3109,1589.5C3120.1,1593.1 3129.5,1595 3135.5,1595C3142.7,1595 3151.4,1598.4 3156.4,1603.1C3160.2,1606.6 3160.5,1607.2 3160.5,1612.3C3160.5,1619.3 3158.3,1621.9 3149.7,1625.1C3142.9,1627.6 3132.7,1628 3127.4,1625.9C3125.8,1625.3 3119.6,1624.4 3113.5,1623.9C3092.5,1622.2 3085.4,1621.1 3076,1618.2C3057.9,1612.5 3048.7,1608.2 3034.7,1598.6C3029.5,1595.1 3023.3,1591.2 3020.9,1590C3015.3,1587.2 3013,1585.1 3013,1583C3013,1579.6 3015.2,1578.8 3022.5,1579.4C3026.4,1579.8 3035.4,1580.5 3042.5,1581ZM3506.1,1403.3C3508.5,1405.2 3514.6,1409.4 3519.5,1412.7C3527.8,1418.3 3534.9,1425 3541,1432.9C3542.9,1435.4 3544.8,1436.5 3549.1,1437.4C3558.6,1439.7 3559.3,1440.3 3568.3,1454.1C3570.6,1457.6 3569.3,1460.6 3565.1,1461.5C3561.8,1462.2 3549.1,1458.3 3542.3,1454.4C3539.8,1453 3535.2,1451.6 3531.3,1451.1C3527.6,1450.6 3520.5,1449 3515.5,1447.5C3500.6,1443 3488.9,1440 3481,1438.5C3476.9,1437.7 3473,1436.4 3472.2,1435.6C3470,1433.4 3471.6,1430.5 3476.1,1428.5C3481.1,1426.2 3485.6,1421.2 3486.5,1416.8C3487.2,1413.7 3491.7,1405.5 3494.8,1401.7C3497.1,1399.1 3501.2,1399.6 3506.1,1403.3ZM2889.3,1389.9C2895.6,1392.3 2896.7,1397.4 2892.1,1402.1C2888.7,1405.5 2885.2,1405.8 2882.2,1403C2877.9,1398.9 2878.4,1392 2883.2,1390C2886.2,1388.8 2886.5,1388.8 2889.3,1389.9ZM2853.4,1359.2C2855.5,1362.2 2855.4,1367.3 2853.3,1369.9C2850.9,1372.8 2836.8,1376.5 2834,1375C2830.4,1373.1 2831.5,1368.9 2836.8,1363.8C2842.6,1358.2 2844.6,1357.1 2848.7,1357C2850.9,1357 2852.4,1357.7 2853.4,1359.2ZM3508.1,1333C3511.1,1334.6 3510.4,1338.4 3506,1343.9C3503.8,1346.7 3499.9,1352.1 3497.5,1356C3495,1359.8 3492,1363.5 3490.9,1364.1C3488.2,1365.5 3484.9,1364.6 3481.3,1361.7C3478.4,1359.2 3461.6,1348.6 3456.6,1346C3452.2,1343.7 3450.5,1340.5 3451.9,1337.3L3453.1,1334.7L3466.8,1335.4C3476.6,1335.9 3481.4,1335.8 3483.5,1335C3489.7,1332.5 3504.9,1331.3 3508.1,1333ZM3184.8,1336.2C3186.7,1338.1 3186.2,1343.4 3184,1345.8C3181.2,1348.7 3170.7,1354 3167.6,1354C3164.7,1354 3162,1350.7 3162,1347.2C3162,1343.6 3164.7,1339.4 3167.7,1338.2C3176.5,1335 3182.8,1334.2 3184.8,1336.2ZM3370.8,1224.2C3372.9,1226.3 3372.2,1233.2 3369.4,1238C3367.9,1240.5 3364.5,1246.5 3361.8,1251.5C3356.8,1260.6 3347,1271.8 3341.8,1274.6C3338.1,1276.5 3329.5,1276.4 3326,1274.3C3321.2,1271.5 3319.6,1265.5 3322.4,1260.2C3324.1,1257.1 3331.7,1249.6 3337.5,1245.4C3339.7,1243.8 3344.1,1240.2 3347.3,1237.3C3350.5,1234.4 3353.5,1232 3354,1232C3354.4,1232 3357.2,1230 3360.1,1227.5C3365.4,1223 3368.6,1222 3370.8,1224.2ZM3031.5,1173.7C3032.7,1174.9 3033,1176.2 3032.5,1178.4C3031,1185.7 3030,1192.8 3030,1196.6C3030,1202.8 3024.5,1217.9 3020.9,1221.6C3016.8,1225.8 3010.3,1227.7 3006.3,1225.8C3002.5,1224 3002.1,1220.1 3005.3,1214.7C3006.7,1212.4 3009.9,1205.8 3012.5,1200C3015.1,1194.2 3018.7,1186.3 3020.4,1182.5C3025.2,1172.3 3027.9,1170.1 3031.5,1173.7ZM3486.9,1033.1C3498.1,1040.1 3505.8,1048.7 3512.4,1061.7C3516.3,1069.6 3515.9,1073.4 3510.7,1078.5C3503.9,1085 3500.8,1086 3488.2,1086C3473.8,1086 3464.2,1083.9 3460.4,1079.8C3457.6,1077 3457.5,1076.5 3457.6,1066.9L3457.6,1057L3462.8,1049.7C3465.6,1045.6 3469.1,1039.7 3470.5,1036.4C3471.9,1033.2 3473.6,1030.2 3474.3,1029.8C3476.8,1028.2 3480.5,1029.1 3486.9,1033.1ZM3109,931C3111.8,933.8 3111.5,935.5 3107.1,943.6C3097.9,960.5 3088.1,970.4 3077.4,973.6C3072.6,975 3058.5,975.5 3055.5,974.4C3052.7,973.3 3050.9,968.6 3052.1,965.3C3053.5,961.2 3064.3,951.9 3078.4,942.6C3099.2,928.9 3104.8,926.8 3109,931Z"/>
            </g>
        </g>
    </g>
</svg>
