<svg width="100%" height="100%" viewBox="0 0 1886 1424" version="1.1" xmlns="http://www.w3.org/2000/svg" xmlns:xlink="http://www.w3.org/1999/xlink" xml:space="preserve" xmlns:serif="http://www.serif.com/" style="fill-rule:evenodd;clip-rule:evenodd;stroke-linecap:round;stroke-linejoin:round;stroke-miterlimit:1.5;">
    <g transform="matrix(1,0,0,1,-7.31421,3.90833)">
        <path d="M32.942,41.326C51.747,337.106 32.942,968.256 32.942,1390.21C477.077,1364.66 1809.81,1404.72 1863.29,1406.91C1860.62,1475.27 1855.32,724.202 1863.29,24.907C1535.07,8.315 501.916,29.834 32.942,41.326Z" style="fill:rgb(231,227,217);"/>
        <path d="M1860.18,1409.29C1772.33,1406.1 470.903,1367.52 33.086,1392.7C32.399,1392.74 31.726,1392.5 31.226,1392.02C30.726,1391.55 30.442,1390.89 30.442,1390.21C30.442,968.306 49.25,337.229 30.447,41.485C30.404,40.806 30.639,40.139 31.098,39.638C31.557,39.136 32.201,38.844 32.881,38.827C501.902,27.334 1535.16,5.817 1863.41,22.41C1864.75,22.478 1865.8,23.593 1865.79,24.935C1858.61,654.248 1862.19,1325.49 1864.92,1403.62L1864.98,1405.07C1865.5,1405.55 1865.81,1406.24 1865.78,1407C1865.69,1409.36 1865.59,1410.81 1865.49,1411.39C1865.37,1412.08 1865.14,1412.46 1865.02,1412.63C1864.26,1413.77 1863.27,1413.85 1862.5,1413.71C1861.98,1413.62 1861.24,1413.37 1860.72,1412.43C1860.62,1412.26 1860.43,1411.84 1860.33,1411.11C1860.28,1410.73 1860.23,1410.12 1860.18,1409.29ZM1859.94,1404.28C1768.53,1400.99 475.241,1362.71 35.442,1387.56C35.52,966.804 54.096,340.037 35.6,43.762L35.601,43.762C504.59,32.284 1530.58,10.949 1860.76,27.284C1853.62,656.006 1857.2,1325.75 1859.93,1403.79L1859.94,1404.28Z"/>
    </g>
    <g id="Layer1">
        <g transform="matrix(1,0,0,1,-77.6151,42.7615)">
            <text x="640.958px" y="633.085px" style="font-family:'IntroScriptB-Base', 'Intro Script B';font-size:40px;">Newark</text>
        </g>
        <g transform="matrix(1,0,0,1,-184.652,341.742)">
            <text x="640.958px" y="633.085px" style="font-family:'IntroScriptB-Base', 'Intro Script B';font-size:40px;">Airport</text>
        </g>
        <g transform="matrix(0.351359,-0.936241,0.936241,0.351359,551.481,916.542)">
            <text x="640.958px" y="633.085px" style="font-family:'IntroScriptB-Base', 'Intro Script B';font-size:40px;">Hudson River</text>
        </g>
        <g transform="matrix(1,0,0,1,-498.327,-42.6584)">
            <text x="640.958px" y="647.345px" style="font-family:'IntroScriptB-Base', 'Intro Script B';font-size:60px;">Maplewood</text>
        </g>
        <g transform="matrix(1,0,0,1,826.63,-61.3475)">
            <text x="640.958px" y="647.345px" style="font-family:'IntroScriptB-Base', 'Intro Script B';font-size:60px;">Manhattan</text>
        </g>
        <g transform="matrix(1,0,0,1,455.26,87.3783)">
            <text x="640.958px" y="633.085px" style="font-family:'IntroScriptB-Base', 'Intro Script B';font-size:40px;">J<tspan x="662.398px " y="633.085px ">e</tspan>rsey City</text>
        </g>
        <g transform="matrix(1,0,0,1,-78.2281,-31.8945)">
            <path d="M1455.19,1186.03C1455.14,1186.07 1455,1186.18 1454.91,1186.23C1454.65,1186.38 1454.37,1186.5 1454.1,1186.6C1435.25,1194.06 1415.46,1197.49 1395.89,1201.81C1375.96,1206.21 1356.26,1211.54 1337.95,1222.67C1337.52,1222.89 1336.54,1223.39 1336.13,1223.77C1335.38,1224.46 1335.17,1225.27 1335.17,1225.86C1335.17,1227.18 1335.58,1229.03 1336.43,1231.29C1338.14,1235.82 1341.64,1242.36 1346.13,1249.98C1360.68,1274.7 1385.73,1311.14 1390.75,1326.21C1391.76,1329.25 1391.22,1331.96 1389.92,1334.5C1388.42,1337.42 1385.99,1340.11 1383.51,1342.75C1380.77,1345.67 1377.97,1348.53 1376.02,1351.46C1373.75,1354.89 1372.59,1358.44 1373.43,1362.26C1373.7,1363.5 1374.68,1365.36 1375.99,1367.48C1377.62,1370.1 1379.76,1373.25 1381.01,1376.12C1381.46,1377.16 1381.8,1378.14 1381.87,1379.03C1381.92,1379.65 1381.78,1380.19 1381.17,1380.49C1379.94,1381.11 1379.44,1382.61 1380.06,1383.84C1380.67,1385.08 1382.18,1385.58 1383.41,1384.96C1386.65,1383.34 1387.45,1380.46 1386.57,1376.9C1385.72,1373.5 1383.03,1369.28 1380.81,1365.76C1379.62,1363.87 1378.55,1362.25 1378.32,1361.19C1377.77,1358.71 1378.71,1356.45 1380.19,1354.23C1382,1351.51 1384.62,1348.88 1387.16,1346.17C1393.09,1339.85 1398.3,1333.03 1395.5,1324.63C1390.41,1309.38 1365.16,1272.46 1350.44,1247.44C1346.73,1241.15 1343.71,1235.63 1341.89,1231.44C1341.13,1229.69 1340.58,1228.23 1340.32,1227.07L1340.46,1227C1358.32,1216.12 1377.54,1210.99 1396.97,1206.7C1416.8,1202.32 1436.84,1198.81 1455.94,1191.25C1457.43,1190.66 1459,1189.68 1459.68,1188.23C1462.98,1181.25 1461.38,1172.52 1456.37,1162.84C1449.41,1149.42 1435.9,1133.93 1422.02,1118.65C1408.39,1103.66 1394.4,1088.88 1386.18,1076.49C1383.55,1072.53 1381.52,1068.84 1380.33,1065.47C1379.28,1062.48 1378.88,1059.8 1379.5,1057.48C1380.51,1053.66 1383.52,1050.25 1387.78,1047.02C1394.78,1041.7 1405.11,1037.03 1416.59,1032.59C1434.22,1025.78 1454.55,1019.56 1470.26,1012.73C1481.19,1007.97 1489.92,1002.82 1494.29,997.102C1495.28,995.806 1496.38,993.349 1497.41,990.287C1499.6,983.8 1501.66,974.432 1502.56,969.099C1504.26,958.936 1502.56,948.396 1499.03,938.019C1493.9,922.902 1484.91,908.125 1477.5,895.452C1472.73,887.286 1468.62,880.034 1466.79,874.169C1465.78,870.913 1465.42,868.18 1466.47,866.083C1472.73,853.553 1477.8,838.975 1484.94,826.287C1486.41,823.673 1489.13,821.816 1491.68,819.821C1494.88,817.305 1497.84,814.609 1499.07,810.921C1502.97,799.191 1498.01,786.576 1492.49,773.865C1487.45,762.251 1481.94,750.554 1484.4,739.324C1485.7,733.353 1488.95,723.092 1493.11,714.652C1495.72,709.358 1498.63,704.759 1501.73,702.692C1504.36,700.939 1508.19,700.034 1511.55,698.6C1515.83,696.776 1519.37,694.179 1520.4,689.465C1522.28,680.855 1518.56,666.568 1513.55,650.554C1506.4,627.688 1496.69,601.091 1499.67,583.199C1505.3,549.473 1530.86,541.737 1551.95,533.964C1559.43,531.208 1566.39,528.451 1571.91,524.73C1577.81,520.757 1582.12,515.699 1583.91,508.543C1587.45,494.377 1581.56,475.035 1575.3,455.12C1569.32,436.099 1563.04,416.522 1565.67,400.688C1568.2,385.526 1581.58,373.646 1596.28,362.558C1611.74,350.903 1628.74,340.183 1637.73,328.192C1640.22,324.878 1641.5,320.314 1641.79,314.844C1642.18,307.302 1640.71,297.934 1638.43,287.968C1635.1,273.4 1630.07,257.512 1627.05,244.319C1625.13,235.915 1623.99,228.664 1624.82,223.686C1626.54,213.355 1636.28,204.201 1648.43,196.161C1667.53,183.529 1692.79,173.927 1705.74,168.257C1707.01,167.704 1707.58,166.229 1707.03,164.965C1706.48,163.701 1705,163.124 1703.74,163.677C1690.61,169.423 1665.03,179.189 1645.67,191.991C1632.19,200.908 1621.79,211.405 1619.88,222.864C1618.98,228.306 1620.08,236.248 1622.18,245.435C1625.2,258.627 1630.22,274.514 1633.55,289.083C1635.72,298.541 1637.17,307.425 1636.8,314.582C1636.57,318.912 1635.7,322.569 1633.73,325.192C1623.17,339.27 1601.23,351.43 1584.28,365.686C1572.38,375.69 1562.93,386.735 1560.74,399.867C1557.99,416.363 1564.3,436.802 1570.53,456.62C1576.48,475.545 1582.42,493.868 1579.06,507.33C1577.59,513.214 1573.97,517.317 1569.12,520.583C1563.9,524.102 1557.29,526.666 1550.22,529.272C1527.67,537.585 1500.75,546.309 1494.74,582.376C1491.66,600.867 1501.39,628.417 1508.78,652.047C1513.47,667.031 1517.28,680.34 1515.51,688.396C1514.85,691.419 1512.33,692.832 1509.59,694.001C1505.94,695.559 1501.81,696.627 1498.95,698.532C1495.31,700.96 1491.7,706.218 1488.63,712.439C1484.27,721.271 1480.88,732.008 1479.51,738.255C1476.84,750.45 1482.43,763.244 1487.9,775.856C1492.9,787.371 1497.86,798.714 1494.32,809.34C1493.4,812.114 1491,813.995 1488.59,815.887C1485.52,818.298 1482.36,820.677 1480.58,823.837C1473.4,836.595 1468.29,851.248 1461.99,863.848C1460.47,866.906 1460.54,870.903 1462.02,875.654C1463.93,881.798 1468.18,889.421 1473.18,897.975C1479.24,908.337 1486.4,920.122 1491.53,932.348C1496.51,944.224 1499.6,956.512 1497.62,968.272C1496.76,973.411 1494.78,982.44 1492.67,988.692C1491.87,991.089 1491.09,993.052 1490.31,994.067C1486.33,999.289 1478.25,1003.8 1468.27,1008.14C1452.62,1014.95 1432.35,1021.14 1414.79,1027.92C1402.81,1032.55 1392.06,1037.49 1384.75,1043.03C1379.46,1047.05 1375.92,1051.45 1374.66,1056.2C1373.08,1062.2 1375.99,1070.19 1382.01,1079.26C1390.35,1091.81 1404.51,1106.82 1418.32,1122.02C1431.88,1136.94 1445.13,1152.04 1451.93,1165.15C1456.07,1173.13 1457.88,1180.27 1455.19,1186.03Z"/>
        </g>
        <g transform="matrix(1,0,0,1,-57.8224,-29.406)">
            <path d="M1455.19,1186.03C1455.14,1186.07 1455,1186.18 1454.91,1186.23C1454.65,1186.38 1454.37,1186.5 1454.1,1186.6C1435.25,1194.06 1415.46,1197.49 1395.89,1201.81C1375.96,1206.21 1356.26,1211.54 1337.95,1222.67C1337.52,1222.89 1336.54,1223.39 1336.13,1223.77C1335.38,1224.46 1335.17,1225.27 1335.17,1225.86C1335.17,1227.18 1335.58,1229.03 1336.43,1231.29C1338.14,1235.82 1341.64,1242.36 1346.13,1249.98C1360.68,1274.7 1385.73,1311.14 1390.75,1326.21C1391.76,1329.25 1391.22,1331.96 1389.92,1334.5C1388.42,1337.42 1385.99,1340.11 1383.51,1342.75C1380.77,1345.67 1377.97,1348.53 1376.02,1351.46C1373.75,1354.89 1372.59,1358.44 1373.43,1362.26C1373.7,1363.5 1374.68,1365.36 1375.99,1367.48C1377.62,1370.1 1379.76,1373.25 1381.01,1376.12C1381.46,1377.16 1381.8,1378.14 1381.87,1379.03C1381.92,1379.65 1381.78,1380.19 1381.17,1380.49C1379.94,1381.11 1379.44,1382.61 1380.06,1383.84C1380.67,1385.08 1382.18,1385.58 1383.41,1384.96C1386.65,1383.34 1387.45,1380.46 1386.57,1376.9C1385.72,1373.5 1383.03,1369.28 1380.81,1365.76C1379.62,1363.87 1378.55,1362.25 1378.32,1361.19C1377.77,1358.71 1378.71,1356.45 1380.19,1354.23C1382,1351.51 1384.62,1348.88 1387.16,1346.17C1393.09,1339.85 1398.3,1333.03 1395.5,1324.63C1390.41,1309.38 1365.16,1272.46 1350.44,1247.44C1346.73,1241.15 1343.71,1235.63 1341.89,1231.44C1341.13,1229.69 1340.58,1228.23 1340.32,1227.07L1340.46,1227C1358.32,1216.12 1377.54,1210.99 1396.97,1206.7C1416.8,1202.32 1436.84,1198.81 1455.94,1191.25C1457.43,1190.66 1459,1189.68 1459.68,1188.23C1462.98,1181.25 1461.38,1172.52 1456.37,1162.84C1449.41,1149.42 1435.9,1133.93 1422.02,1118.65C1408.39,1103.66 1394.4,1088.88 1386.18,1076.49C1383.55,1072.53 1381.52,1068.84 1380.33,1065.47C1379.28,1062.48 1378.88,1059.8 1379.5,1057.48C1380.51,1053.66 1383.52,1050.25 1387.78,1047.02C1394.78,1041.7 1405.11,1037.03 1416.59,1032.59C1434.22,1025.78 1454.55,1019.56 1470.26,1012.73C1481.19,1007.97 1489.92,1002.82 1494.29,997.102C1495.28,995.806 1496.38,993.349 1497.41,990.287C1499.6,983.8 1501.66,974.432 1502.56,969.099C1504.26,958.936 1502.56,948.396 1499.03,938.019C1493.9,922.902 1484.91,908.125 1477.5,895.452C1472.73,887.286 1468.62,880.034 1466.79,874.169C1465.78,870.913 1465.42,868.18 1466.47,866.083C1472.73,853.553 1477.8,838.975 1484.94,826.287C1486.41,823.673 1489.13,821.816 1491.68,819.821C1494.88,817.305 1497.84,814.609 1499.07,810.921C1502.97,799.191 1498.01,786.576 1492.49,773.865C1487.45,762.251 1481.94,750.554 1484.4,739.324C1485.7,733.353 1488.95,723.092 1493.11,714.652C1495.72,709.358 1498.63,704.759 1501.73,702.692C1504.36,700.939 1508.19,700.034 1511.55,698.6C1515.83,696.776 1519.37,694.179 1520.4,689.465C1522.28,680.855 1518.56,666.568 1513.55,650.554C1506.4,627.688 1496.69,601.091 1499.67,583.199C1505.3,549.473 1530.86,541.737 1551.95,533.964C1559.43,531.208 1566.39,528.451 1571.91,524.73C1577.81,520.757 1582.12,515.699 1583.91,508.543C1587.45,494.377 1581.56,475.035 1575.3,455.12C1569.32,436.099 1563.04,416.522 1565.67,400.688C1568.2,385.526 1581.58,373.646 1596.28,362.558C1611.74,350.903 1628.74,340.183 1637.73,328.192C1640.22,324.878 1641.5,320.314 1641.79,314.844C1642.18,307.302 1640.71,297.934 1638.43,287.968C1635.1,273.4 1630.07,257.512 1627.05,244.319C1625.13,235.915 1623.99,228.664 1624.82,223.686C1626.54,213.355 1636.28,204.201 1648.43,196.161C1667.53,183.529 1692.79,173.927 1705.74,168.257C1707.01,167.704 1707.58,166.229 1707.03,164.965C1706.48,163.701 1705,163.124 1703.74,163.677C1690.61,169.423 1665.03,179.189 1645.67,191.991C1632.19,200.908 1621.79,211.405 1619.88,222.864C1618.98,228.306 1620.08,236.248 1622.18,245.435C1625.2,258.627 1630.22,274.514 1633.55,289.083C1635.72,298.541 1637.17,307.425 1636.8,314.582C1636.57,318.912 1635.7,322.569 1633.73,325.192C1623.17,339.27 1601.23,351.43 1584.28,365.686C1572.38,375.69 1562.93,386.735 1560.74,399.867C1557.99,416.363 1564.3,436.802 1570.53,456.62C1576.48,475.545 1582.42,493.868 1579.06,507.33C1577.59,513.214 1573.97,517.317 1569.12,520.583C1563.9,524.102 1557.29,526.666 1550.22,529.272C1527.67,537.585 1500.75,546.309 1494.74,582.376C1491.66,600.867 1501.39,628.417 1508.78,652.047C1513.47,667.031 1517.28,680.34 1515.51,688.396C1514.85,691.419 1512.33,692.832 1509.59,694.001C1505.94,695.559 1501.81,696.627 1498.95,698.532C1495.31,700.96 1491.7,706.218 1488.63,712.439C1484.27,721.271 1480.88,732.008 1479.51,738.255C1476.84,750.45 1482.43,763.244 1487.9,775.856C1492.9,787.371 1497.86,798.714 1494.32,809.34C1493.4,812.114 1491,813.995 1488.59,815.887C1485.52,818.298 1482.36,820.677 1480.58,823.837C1473.4,836.595 1468.29,851.248 1461.99,863.848C1460.47,866.906 1460.54,870.903 1462.02,875.654C1463.93,881.798 1468.18,889.421 1473.18,897.975C1479.24,908.337 1486.4,920.122 1491.53,932.348C1496.51,944.224 1499.6,956.512 1497.62,968.272C1496.76,973.411 1494.78,982.44 1492.67,988.692C1491.87,991.089 1491.09,993.052 1490.31,994.067C1486.33,999.289 1478.25,1003.8 1468.27,1008.14C1452.62,1014.95 1432.35,1021.14 1414.79,1027.92C1402.81,1032.55 1392.06,1037.49 1384.75,1043.03C1379.46,1047.05 1375.92,1051.45 1374.66,1056.2C1373.08,1062.2 1375.99,1070.19 1382.01,1079.26C1390.35,1091.81 1404.51,1106.82 1418.32,1122.02C1431.88,1136.94 1445.13,1152.04 1451.93,1165.15C1456.07,1173.13 1457.88,1180.27 1455.19,1186.03Z"/>
        </g>
        <g transform="matrix(1,0,0,1,-78.2281,-31.8945)">
            <path d="M1455.19,1186.03C1455.14,1186.07 1455,1186.18 1454.91,1186.23C1454.65,1186.38 1454.37,1186.5 1454.1,1186.6C1435.25,1194.06 1415.46,1197.49 1395.89,1201.81C1375.96,1206.21 1356.26,1211.54 1337.95,1222.67C1337.52,1222.89 1336.54,1223.39 1336.13,1223.77C1335.38,1224.46 1335.17,1225.27 1335.17,1225.86C1335.17,1227.18 1335.58,1229.03 1336.43,1231.29C1338.14,1235.82 1341.64,1242.36 1346.13,1249.98C1360.68,1274.7 1385.73,1311.14 1390.75,1326.21C1391.76,1329.25 1391.22,1331.96 1389.92,1334.5C1388.42,1337.42 1385.99,1340.11 1383.51,1342.75C1380.77,1345.67 1377.97,1348.53 1376.02,1351.46C1373.75,1354.89 1372.59,1358.44 1373.43,1362.26C1373.7,1363.5 1374.68,1365.36 1375.99,1367.48C1377.62,1370.1 1379.76,1373.25 1381.01,1376.12C1381.46,1377.16 1381.8,1378.14 1381.87,1379.03C1381.92,1379.65 1381.78,1380.19 1381.17,1380.49C1379.94,1381.11 1379.44,1382.61 1380.06,1383.84C1380.67,1385.08 1382.18,1385.58 1383.41,1384.96C1386.65,1383.34 1387.45,1380.46 1386.57,1376.9C1385.72,1373.5 1383.03,1369.28 1380.81,1365.76C1379.62,1363.87 1378.55,1362.25 1378.32,1361.19C1377.77,1358.71 1378.71,1356.45 1380.19,1354.23C1382,1351.51 1384.62,1348.88 1387.16,1346.17C1393.09,1339.85 1398.3,1333.03 1395.5,1324.63C1390.41,1309.38 1365.16,1272.46 1350.44,1247.44C1346.73,1241.15 1343.71,1235.63 1341.89,1231.44C1341.13,1229.69 1340.58,1228.23 1340.32,1227.07L1340.46,1227C1358.32,1216.12 1377.54,1210.99 1396.97,1206.7C1416.8,1202.32 1436.84,1198.81 1455.94,1191.25C1457.43,1190.66 1459,1189.68 1459.68,1188.23C1462.98,1181.25 1461.38,1172.52 1456.37,1162.84C1449.41,1149.42 1435.9,1133.93 1422.02,1118.65C1408.39,1103.66 1394.4,1088.88 1386.18,1076.49C1383.55,1072.53 1381.52,1068.84 1380.33,1065.47C1379.28,1062.48 1378.88,1059.8 1379.5,1057.48C1380.51,1053.66 1383.52,1050.25 1387.78,1047.02C1394.78,1041.7 1405.11,1037.03 1416.59,1032.59C1434.22,1025.78 1454.55,1019.56 1470.26,1012.73C1481.19,1007.97 1489.92,1002.82 1494.29,997.102C1495.28,995.806 1496.38,993.349 1497.41,990.287C1499.6,983.8 1501.66,974.432 1502.56,969.099C1504.26,958.936 1502.56,948.396 1499.03,938.019C1493.9,922.902 1484.91,908.125 1477.5,895.452C1472.73,887.286 1468.62,880.034 1466.79,874.169C1465.78,870.913 1465.42,868.18 1466.47,866.083C1472.73,853.553 1477.8,838.975 1484.94,826.287C1486.41,823.673 1489.13,821.816 1491.68,819.821C1494.88,817.305 1497.84,814.609 1499.07,810.921C1502.97,799.191 1498.01,786.576 1492.49,773.865C1487.45,762.251 1481.94,750.554 1484.4,739.324C1485.7,733.353 1488.95,723.092 1493.11,714.652C1495.72,709.358 1498.63,704.759 1501.73,702.692C1504.36,700.939 1508.19,700.034 1511.55,698.6C1515.83,696.776 1519.37,694.179 1520.4,689.465C1522.28,680.855 1518.56,666.568 1513.55,650.554C1506.4,627.688 1496.69,601.091 1499.67,583.199C1505.3,549.473 1530.86,541.737 1551.95,533.964C1559.43,531.208 1566.39,528.451 1571.91,524.73C1577.81,520.757 1582.12,515.699 1583.91,508.543C1587.45,494.377 1581.56,475.035 1575.3,455.12C1569.32,436.099 1563.04,416.522 1565.67,400.688C1568.2,385.526 1581.58,373.646 1596.28,362.558C1611.74,350.903 1628.74,340.183 1637.73,328.192C1640.22,324.878 1641.5,320.314 1641.79,314.844C1642.18,307.302 1640.71,297.934 1638.43,287.968C1635.1,273.4 1630.07,257.512 1627.05,244.319C1625.13,235.915 1623.99,228.664 1624.82,223.686C1626.54,213.355 1636.28,204.201 1648.43,196.161C1667.53,183.529 1692.79,173.927 1705.74,168.257C1707.01,167.704 1707.58,166.229 1707.03,164.965C1706.48,163.701 1705,163.124 1703.74,163.677C1690.61,169.423 1665.03,179.189 1645.67,191.991C1632.19,200.908 1621.79,211.405 1619.88,222.864C1618.98,228.306 1620.08,236.248 1622.18,245.435C1625.2,258.627 1630.22,274.514 1633.55,289.083C1635.72,298.541 1637.17,307.425 1636.8,314.582C1636.57,318.912 1635.7,322.569 1633.73,325.192C1623.17,339.27 1601.23,351.43 1584.28,365.686C1572.38,375.69 1562.93,386.735 1560.74,399.867C1557.99,416.363 1564.3,436.802 1570.53,456.62C1576.48,475.545 1582.42,493.868 1579.06,507.33C1577.59,513.214 1573.97,517.317 1569.12,520.583C1563.9,524.102 1557.29,526.666 1550.22,529.272C1527.67,537.585 1500.75,546.309 1494.74,582.376C1491.66,600.867 1501.39,628.417 1508.78,652.047C1513.47,667.031 1517.28,680.34 1515.51,688.396C1514.85,691.419 1512.33,692.832 1509.59,694.001C1505.94,695.559 1501.81,696.627 1498.95,698.532C1495.31,700.96 1491.7,706.218 1488.63,712.439C1484.27,721.271 1480.88,732.008 1479.51,738.255C1476.84,750.45 1482.43,763.244 1487.9,775.856C1492.9,787.371 1497.86,798.714 1494.32,809.34C1493.4,812.114 1491,813.995 1488.59,815.887C1485.52,818.298 1482.36,820.677 1480.58,823.837C1473.4,836.595 1468.29,851.248 1461.99,863.848C1460.47,866.906 1460.54,870.903 1462.02,875.654C1463.93,881.798 1468.18,889.421 1473.18,897.975C1479.24,908.337 1486.4,920.122 1491.53,932.348C1496.51,944.224 1499.6,956.512 1497.62,968.272C1496.76,973.411 1494.78,982.44 1492.67,988.692C1491.87,991.089 1491.09,993.052 1490.31,994.067C1486.33,999.289 1478.25,1003.8 1468.27,1008.14C1452.62,1014.95 1432.35,1021.14 1414.79,1027.92C1402.81,1032.55 1392.06,1037.49 1384.75,1043.03C1379.46,1047.05 1375.92,1051.45 1374.66,1056.2C1373.08,1062.2 1375.99,1070.19 1382.01,1079.26C1390.35,1091.81 1404.51,1106.82 1418.32,1122.02C1431.88,1136.94 1445.13,1152.04 1451.93,1165.15C1456.07,1173.13 1457.88,1180.27 1455.19,1186.03Z"/>
        </g>
        <g transform="matrix(1,0,0,1,-96.9658,-42.4829)">
            <path d="M1455.19,1186.03C1455.14,1186.07 1455,1186.18 1454.91,1186.23C1454.65,1186.38 1454.37,1186.5 1454.1,1186.6C1435.25,1194.06 1415.46,1197.49 1395.89,1201.81C1375.96,1206.21 1356.26,1211.54 1337.95,1222.67C1337.52,1222.89 1336.54,1223.39 1336.13,1223.77C1335.38,1224.46 1335.17,1225.27 1335.17,1225.86C1335.17,1227.18 1335.58,1229.03 1336.43,1231.29C1338.14,1235.82 1341.64,1242.36 1346.13,1249.98C1360.68,1274.7 1385.73,1311.14 1390.75,1326.21C1391.76,1329.25 1391.22,1331.96 1389.92,1334.5C1388.42,1337.42 1385.99,1340.11 1383.51,1342.75C1380.77,1345.67 1377.97,1348.53 1376.02,1351.46C1373.75,1354.89 1372.59,1358.44 1373.43,1362.26C1373.7,1363.5 1374.68,1365.36 1375.99,1367.48C1377.62,1370.1 1379.76,1373.25 1381.01,1376.12C1381.46,1377.16 1381.8,1378.14 1381.87,1379.03C1381.92,1379.65 1381.78,1380.19 1381.17,1380.49C1379.94,1381.11 1379.44,1382.61 1380.06,1383.84C1380.67,1385.08 1382.18,1385.58 1383.41,1384.96C1386.65,1383.34 1387.45,1380.46 1386.57,1376.9C1385.72,1373.5 1383.03,1369.28 1380.81,1365.76C1379.62,1363.87 1378.55,1362.25 1378.32,1361.19C1377.77,1358.71 1378.71,1356.45 1380.19,1354.23C1382,1351.51 1384.62,1348.88 1387.16,1346.17C1393.09,1339.85 1398.3,1333.03 1395.5,1324.63C1390.41,1309.38 1365.16,1272.46 1350.44,1247.44C1346.73,1241.15 1343.71,1235.63 1341.89,1231.44C1341.13,1229.69 1340.58,1228.23 1340.32,1227.07L1340.46,1227C1358.32,1216.12 1377.54,1210.99 1396.97,1206.7C1416.8,1202.32 1436.84,1198.81 1455.94,1191.25C1457.43,1190.66 1459,1189.68 1459.68,1188.23C1462.98,1181.25 1461.38,1172.52 1456.37,1162.84C1449.41,1149.42 1435.9,1133.93 1422.02,1118.65C1408.39,1103.66 1394.4,1088.88 1386.18,1076.49C1383.55,1072.53 1381.52,1068.84 1380.33,1065.47C1379.28,1062.48 1378.88,1059.8 1379.5,1057.48C1380.51,1053.66 1383.52,1050.25 1387.78,1047.02C1394.78,1041.7 1405.11,1037.03 1416.59,1032.59C1434.22,1025.78 1454.55,1019.56 1470.26,1012.73C1481.19,1007.97 1489.92,1002.82 1494.29,997.102C1495.28,995.806 1496.38,993.349 1497.41,990.287C1499.6,983.8 1501.66,974.432 1502.56,969.099C1504.26,958.936 1502.56,948.396 1499.03,938.019C1493.9,922.902 1484.91,908.125 1477.5,895.452C1472.73,887.286 1468.62,880.034 1466.79,874.169C1465.78,870.913 1465.42,868.18 1466.47,866.083C1472.73,853.553 1477.8,838.975 1484.94,826.287C1486.41,823.673 1489.13,821.816 1491.68,819.821C1494.88,817.305 1497.84,814.609 1499.07,810.921C1502.97,799.191 1498.01,786.576 1492.49,773.865C1487.45,762.251 1481.94,750.554 1484.4,739.324C1485.7,733.353 1488.95,723.092 1493.11,714.652C1495.72,709.358 1498.63,704.759 1501.73,702.692C1504.36,700.939 1508.19,700.034 1511.55,698.6C1515.83,696.776 1519.37,694.179 1520.4,689.465C1522.28,680.855 1518.56,666.568 1513.55,650.554C1506.4,627.688 1496.69,601.091 1499.67,583.199C1505.3,549.473 1530.86,541.737 1551.95,533.964C1559.43,531.208 1566.39,528.451 1571.91,524.73C1577.81,520.757 1582.12,515.699 1583.91,508.543C1587.45,494.377 1581.56,475.035 1575.3,455.12C1569.32,436.099 1563.04,416.522 1565.67,400.688C1568.2,385.526 1581.58,373.646 1596.28,362.558C1611.74,350.903 1628.74,340.183 1637.73,328.192C1640.22,324.878 1641.5,320.314 1641.79,314.844C1642.18,307.302 1640.71,297.934 1638.43,287.968C1635.1,273.4 1630.07,257.512 1627.05,244.319C1625.13,235.915 1623.99,228.664 1624.82,223.686C1626.54,213.355 1636.28,204.201 1648.43,196.161C1667.53,183.529 1692.79,173.927 1705.74,168.257C1707.01,167.704 1707.58,166.229 1707.03,164.965C1706.48,163.701 1705,163.124 1703.74,163.677C1690.61,169.423 1665.03,179.189 1645.67,191.991C1632.19,200.908 1621.79,211.405 1619.88,222.864C1618.98,228.306 1620.08,236.248 1622.18,245.435C1625.2,258.627 1630.22,274.514 1633.55,289.083C1635.72,298.541 1637.17,307.425 1636.8,314.582C1636.57,318.912 1635.7,322.569 1633.73,325.192C1623.17,339.27 1601.23,351.43 1584.28,365.686C1572.38,375.69 1562.93,386.735 1560.74,399.867C1557.99,416.363 1564.3,436.802 1570.53,456.62C1576.48,475.545 1582.42,493.868 1579.06,507.33C1577.59,513.214 1573.97,517.317 1569.12,520.583C1563.9,524.102 1557.29,526.666 1550.22,529.272C1527.67,537.585 1500.75,546.309 1494.74,582.376C1491.66,600.867 1501.39,628.417 1508.78,652.047C1513.47,667.031 1517.28,680.34 1515.51,688.396C1514.85,691.419 1512.33,692.832 1509.59,694.001C1505.94,695.559 1501.81,696.627 1498.95,698.532C1495.31,700.96 1491.7,706.218 1488.63,712.439C1484.27,721.271 1480.88,732.008 1479.51,738.255C1476.84,750.45 1482.43,763.244 1487.9,775.856C1492.9,787.371 1497.86,798.714 1494.32,809.34C1493.4,812.114 1491,813.995 1488.59,815.887C1485.52,818.298 1482.36,820.677 1480.58,823.837C1473.4,836.595 1468.29,851.248 1461.99,863.848C1460.47,866.906 1460.54,870.903 1462.02,875.654C1463.93,881.798 1468.18,889.421 1473.18,897.975C1479.24,908.337 1486.4,920.122 1491.53,932.348C1496.51,944.224 1499.6,956.512 1497.62,968.272C1496.76,973.411 1494.78,982.44 1492.67,988.692C1491.87,991.089 1491.09,993.052 1490.31,994.067C1486.33,999.289 1478.25,1003.8 1468.27,1008.14C1452.62,1014.95 1432.35,1021.14 1414.79,1027.92C1402.81,1032.55 1392.06,1037.49 1384.75,1043.03C1379.46,1047.05 1375.92,1051.45 1374.66,1056.2C1373.08,1062.2 1375.99,1070.19 1382.01,1079.26C1390.35,1091.81 1404.51,1106.82 1418.32,1122.02C1431.88,1136.94 1445.13,1152.04 1451.93,1165.15C1456.07,1173.13 1457.88,1180.27 1455.19,1186.03Z"/>
        </g>
        <g transform="matrix(0.976632,0.21492,-0.21492,0.976632,36.9436,-89.6581)">
            <path d="M403.979,427.921C403.376,426.067 401.649,424.812 399.699,424.812C397.75,424.812 396.022,426.067 395.419,427.921L380.769,473.01C380.769,473.01 333.36,473.01 333.36,473.01C331.41,473.01 329.682,474.265 329.08,476.12C328.477,477.974 329.137,480.005 330.715,481.151L369.07,509.017C369.07,509.017 354.419,554.106 354.419,554.106C353.817,555.96 354.477,557.992 356.054,559.137C357.631,560.283 359.767,560.283 361.344,559.137L399.699,531.271C399.699,531.271 438.054,559.137 438.054,559.137C439.631,560.283 441.767,560.283 443.344,559.137C444.921,557.992 445.581,555.96 444.979,554.106L430.329,509.017C430.329,509.017 468.684,481.151 468.684,481.151C470.261,480.005 470.921,477.974 470.318,476.12C469.716,474.265 467.988,473.01 466.039,473.01L418.629,473.01C418.629,473.01 403.979,427.921 403.979,427.921ZM399.699,443.874L411.08,478.901C411.682,480.755 413.41,482.01 415.36,482.01L452.189,482.01C452.189,482.01 422.394,503.658 422.394,503.658C420.816,504.804 420.156,506.835 420.759,508.689L432.14,543.716C432.14,543.716 402.344,522.068 402.344,522.068C400.767,520.922 398.631,520.922 397.054,522.068L367.259,543.716C367.259,543.716 378.639,508.689 378.639,508.689C379.242,506.835 378.582,504.804 377.005,503.658L347.209,482.01C347.209,482.01 384.038,482.01 384.038,482.01C385.988,482.01 387.716,480.755 388.318,478.901L399.699,443.874Z"/>
        </g>
        <g transform="matrix(0.999985,-0.00541699,0.00541699,0.999985,-61.7497,-7.81041)">
            <g transform="matrix(0.999985,0.00541699,-0.00541699,0.999985,61.7065,8.14479)">
                <path d="M533.265,149.224L500.366,165.924L533.465,182.224C525.165,174.024 525.065,157.524 533.265,149.224Z"/>
                <path d="M526.799,171.264C576.717,170.962 679.99,170.338 679.99,170.338C683.026,170.32 685.475,167.84 685.457,164.805C685.438,161.769 682.959,159.32 679.924,159.338C679.924,159.338 576.651,159.962 526.732,160.264C523.697,160.282 521.247,162.762 521.265,165.797C521.284,168.833 523.763,171.282 526.799,171.264Z"/>
            </g>
        </g>
        <g transform="matrix(-1,0,0,1,1820.05,-11.9328)">
            <g transform="matrix(-1,0,0,1,1820.05,11.9328)">
                <path d="M1225.87,181.323L1258.88,164.844L1225.89,148.323C1234.13,156.578 1234.12,173.078 1225.87,181.323Z"/>
                <path d="M1232.48,159.327C1182.56,159.296 1079.29,159.231 1079.29,159.231C1076.25,159.229 1073.79,161.692 1073.79,164.728C1073.78,167.763 1076.25,170.229 1079.28,170.231C1079.28,170.231 1182.56,170.296 1232.48,170.327C1235.51,170.329 1237.98,167.866 1237.98,164.83C1237.98,161.795 1235.52,159.329 1232.48,159.327Z"/>
            </g>
        </g>
        <g transform="matrix(1,0,0,1,-16.0909,-202.829)">
            <text x="786.244px" y="382.611px" style="font-family:'IntroRustBook-Base', 'Intro Rust Book';font-size:48px;">1<tspan x="806.02px " y="382.611px ">9</tspan> mile<tspan x="957.508px " y="382.611px ">s</tspan></text>
        </g>
    </g>
    <g transform="matrix(1,0,0,1,-73.1713,3.90833)">
        <g id="Route">
            <path d="M1610.17,612.896C1610.17,612.896 1618.98,674.226 1457.86,669.178C1419.76,636.956 1421.12,644.226 1372.99,649.823C1328.09,616.902 1340.3,590.591 1217.53,612.896C1044.6,685.103 1137.07,537.242 882.806,725.865C882.806,755.787 867.146,793.281 840.194,782.449C813.242,771.618 743.201,778.137 719.306,782.449C566.887,687.462 536.493,801.841 488.244,807.82C439.995,813.798 347.027,761.928 271.945,759.379C318.428,733.293 344.94,660.025 356.719,649.823" style="fill:none;stroke:black;stroke-width:11px;stroke-dasharray:11,17.6,0,0;"/>
        </g>
    </g>
    <g transform="matrix(0.546943,0,0,0.546943,232.813,259.494)">
        <g id="Plane">
            <g id="Plane1" serif:id="Plane">
                <g transform="matrix(0.149357,0,0,0.149357,271.569,863.965)">
                    <path d="M1872.94,1990.26L1761.14,1892.31" style="fill:none;stroke:black;stroke-width:36.72px;"/>
                </g>
                <g transform="matrix(0.149357,0,0,0.149357,271.569,863.965)">
                    <path d="M1458.96,2034.44L1595.66,2110.62" style="fill:none;stroke:black;stroke-width:36.72px;"/>
                </g>
                <g transform="matrix(0.149357,0,0,0.149357,271.569,863.965)">
                    <path d="M1595.66,2110.62C1141.73,2306.71 586.694,2543.01 586.694,2543.01L497.434,2563.22L440.921,2507.76L497.434,2483.74L319.251,2289.13L497.434,2289.13L586.694,2385.51C586.694,2385.51 1899.09,1583.68 2035.1,1529.38C2215.68,1403.82 2586.3,1631.87 2169.18,1857C2142.02,1871.66 2028.12,1922.46 1872.94,1990.26L2339.66,2399.21C2339.66,2399.21 2239.7,2469.51 2239.7,2469.51L1595.66,2110.62" style="fill:none;stroke:black;stroke-width:36.72px;"/>
                </g>
                <g transform="matrix(0.149357,0,0,0.149357,271.569,863.965)">
                    <path d="M1597.53,1771.59L978.532,1566.55L904.269,1615.39L1324.2,1924.39" style="fill:none;stroke:black;stroke-width:36.72px;"/>
                </g>
                <g transform="matrix(0.149357,0,0,0.149357,271.569,867.622)">
                    <path d="M2139.2,1625.02L2097.55,1555.86C2097.55,1555.86 2142.78,1516.67 2236.23,1555.86C2198.24,1587.47 2139.2,1625.02 2139.2,1625.02Z" style="fill:none;stroke:black;stroke-width:36.72px;"/>
                </g>
            </g>
        </g>
    </g>
</svg>
