<svg width="100%" height="100%" viewBox="0 0 1420 2289" version="1.1" xmlns="http://www.w3.org/2000/svg" xmlns:xlink="http://www.w3.org/1999/xlink" xml:space="preserve" xmlns:serif="http://www.serif.com/" style="fill-rule:evenodd;clip-rule:evenodd;stroke-linejoin:round;stroke-miterlimit:2;">
    <g transform="matrix(1,0,0,1,-313.2,-408.124)">
        <g transform="matrix(0.1,0,0,-0.1,0,3872)">
            <path d="M14626,14315C14629,14302 14620,14666 14603,14635C14597,14624 14547,14590 14493,14560C14439,14530 14335,14467 14263,14420C14190,14373 14091,14310 14043,14280C13994,14250 13934,14206 13908,14182C13882,14158 13808,14105 13743,14065C13678,14025 13591,13969 13550,13941C13242,13731 13038,13611 12886,13551C12843,13534 12770,13499 12726,13475C12681,13451 12614,13419 12577,13405C12540,13392 12462,13356 12403,13326C12343,13297 12261,13259 12220,13242C12179,13226 12073,13178 11985,13135C11863,13077 11794,13051 11695,13025C11622,13007 11495,12963 11405,12926C11317,12889 11225,12855 11200,12849C11139,12836 10959,12780 10770,12715C10685,12686 10570,12650 10515,12635C10419,12609 10281,12568 10064,12502C10009,12485 9935,12466 9899,12460C9864,12453 9797,12437 9750,12424C9608,12385 9148,12268 9100,12260C8942,12232 8830,12207 8750,12180C8658,12149 8581,12137 8445,12130C8374,12127 8302,12119 8287,12112C8266,12103 8139,12100 7806,12100C7425,12100 7347,12102 7317,12115C7295,12124 7249,12130 7198,12130C7152,12130 7094,12137 7068,12145C7034,12155 6996,12157 6937,12153C6876,12149 6840,12152 6798,12164C6767,12173 6721,12180 6694,12180C6668,12180 6624,12187 6596,12195C6371,12261 6254,12290 6213,12290C6150,12290 6020,12320 5595,12435C5476,12467 5273,12518 5151,12546C5116,12555 5057,12577 5019,12595C4924,12644 4626,12761 4494,12803C4343,12851 4174,12947 4095,13030C4073,13053 4013,13097 3961,13127C3849,13194 3830,13211 3830,13249C3830,13271 3843,13288 3893,13331C3927,13360 3996,13424 4047,13472C4097,13521 4143,13560 4149,13560C4167,13560 4409,13799 4443,13850C4459,13875 4532,13956 4604,14030C4676,14104 4743,14179 4752,14197C4761,14215 4788,14242 4811,14257C4871,14297 5035,14455 5083,14520C5106,14550 5147,14600 5176,14630C5204,14660 5238,14705 5250,14730C5280,14789 5342,14880 5369,14904C5381,14915 5417,14960 5448,15003C5479,15047 5528,15109 5555,15140C5583,15172 5620,15224 5639,15256C5709,15377 5797,15506 5843,15558C5870,15588 5908,15646 5928,15688C5958,15751 5984,15783 6076,15875C6156,15955 6199,16006 6231,16063C6255,16106 6290,16160 6308,16183C6327,16205 6353,16247 6367,16274C6406,16351 6510,16522 6535,16550C6547,16564 6569,16598 6585,16625C6601,16653 6634,16707 6660,16745C6686,16784 6719,16840 6734,16871C6748,16902 6780,16948 6805,16974C6849,17021 6880,17092 6880,17146C6880,17159 6905,17219 6935,17281C6965,17343 6999,17424 7011,17462C7026,17513 7037,17534 7054,17542C7091,17558 7110,17540 7160,17446C7209,17354 7319,17232 7418,17158C7486,17107 7621,16974 7655,16924C7670,16902 7742,16823 7816,16748C7950,16610 7972,16575 7938,16553C7931,16549 7842,16544 7740,16543C7638,16542 7479,16539 7385,16536C7162,16529 7163,16529 7065,16334C7027,16257 6964,16113 6926,16015C6889,15916 6843,15811 6824,15782C6805,15753 6780,15706 6769,15678C6758,15650 6740,15613 6728,15597C6653,15492 6365,14831 6341,14710C6337,14685 6319,14631 6302,14590C6286,14548 6260,14479 6245,14435C6231,14391 6206,14326 6190,14290C6174,14254 6150,14182 6136,14130C6122,14077 6102,14012 6090,13985C6064,13925 6035,13821 6014,13717C5986,13572 6025,13482 6119,13478C6203,13474 6238,13478 6277,13498C6344,13533 6362,13560 6370,13642C6377,13708 6387,13735 6476,13911C6531,14018 6593,14144 6615,14190C6637,14236 6677,14306 6703,14345C6734,14390 6761,14447 6779,14505C6823,14644 6916,14825 6962,14862C7008,14898 7061,14974 7121,15089C7167,15177 7181,15190 7205,15170C7232,15148 7217,14934 7184,14855C7174,14829 7170,14774 7170,14637C7170,14499 7166,14442 7155,14410C7143,14376 7140,14313 7140,14104C7140,13864 7142,13836 7160,13786C7201,13678 7264,13621 7343,13620C7397,13620 7435,13646 7481,13714C7516,13767 7520,13778 7520,13837C7520,13888 7527,13919 7556,13988C7576,14036 7599,14098 7607,14125C7615,14153 7652,14234 7689,14305C7727,14377 7773,14476 7793,14525C7838,14640 7856,14679 7904,14765C7953,14852 7977,14880 8006,14880C8049,14880 8054,14859 8042,14737C8023,14549 8017,14289 8030,14255C8037,14239 8046,14196 8051,14160C8055,14124 8063,14059 8068,14015C8087,13866 8149,13744 8263,13632C8358,13540 8422,13510 8521,13510C8570,13510 8595,13517 8668,13552C8717,13575 8776,13614 8804,13639C8860,13692 8942,13808 8975,13885C9010,13964 9055,14122 9075,14235C9084,14290 9097,14349 9102,14365C9117,14412 9132,14560 9139,14745C9143,14839 9151,14928 9158,14943C9176,14986 9174,15246 9155,15300C9146,15326 9140,15379 9140,15439C9140,15497 9134,15555 9124,15585C9116,15613 9100,15668 9089,15708C9067,15791 9024,15882 8985,15928C8971,15944 8953,15975 8944,15997C8922,16050 8901,16070 8868,16070C8852,16070 8825,16076 8807,16083C8765,16101 8679,16196 8649,16256L8627,16303L8650,16322C8667,16336 8683,16340 8705,16336C8721,16332 8829,16326 8943,16321C9114,16313 9161,16314 9206,16326C9236,16334 9276,16340 9295,16340C9313,16340 9340,16344 9354,16350C9369,16355 9408,16364 9443,16370C9477,16376 9546,16388 9595,16396C9645,16405 9712,16415 9745,16420C9778,16425 9839,16436 9880,16445C9964,16464 10102,16487 10200,16500C10236,16505 10278,16513 10293,16519C10309,16525 10344,16530 10372,16530C10399,16530 10447,16537 10478,16546C10517,16558 10553,16561 10596,16557C10637,16553 10679,16556 10715,16565C10759,16577 10845,16580 11104,16580C11375,16580 11445,16583 11480,16595C11503,16603 11539,16610 11560,16610C11581,16610 11615,16616 11636,16624C11659,16632 11745,16641 11836,16645C11979,16651 11998,16650 12013,16635C12022,16626 12030,16608 12030,16595C12030,16570 11985,16526 11948,16514C11899,16499 11765,16415 11712,16365C11680,16336 11639,16305 11620,16295C11585,16277 11492,16214 11390,16139C11360,16116 11265,16063 11180,16020C11015,15938 10886,15895 10555,15814C10382,15772 10369,15766 10276,15692C10194,15626 10180,15597 10180,15492C10180,15447 10173,15394 10165,15370C10139,15297 10145,15225 10184,15145C10234,15041 10290,14841 10290,14766C10290,14747 10295,14719 10301,14703C10315,14670 10328,14532 10339,14325C10343,14243 10351,14162 10358,14147C10365,14131 10370,14095 10370,14065C10370,14035 10375,13999 10381,13983C10391,13956 10401,13895 10419,13735C10433,13614 10463,13528 10505,13491C10572,13432 10657,13429 10711,13483C10755,13526 10762,13551 10771,13675C10780,13816 10800,13914 10840,14020C10869,14098 10875,14134 10897,14335C10902,14389 10978,14663 11010,14745C11028,14794 11042,14858 11055,14952C11063,15015 11088,15045 11123,15036C11160,15027 11172,14998 11215,14815C11253,14656 11354,14381 11429,14234C11446,14200 11460,14167 11460,14161C11460,14137 11500,14073 11544,14023C11592,13970 11676,13920 11717,13920C11754,13920 11798,13947 11815,13981C11840,14028 11852,14163 11839,14250C11833,14298 11831,14447 11834,14665C11838,14852 11840,15044 11840,15091C11839,15158 11843,15181 11855,15194C11864,15203 11875,15210 11880,15210C11900,15210 11948,15158 11974,15108C11990,15079 12019,15035 12039,15010C12060,14985 12086,14949 12097,14930C12109,14911 12186,14829 12267,14748C12432,14585 12448,14575 12654,14506C12788,14462 12850,14459 12885,14495C12899,14508 12910,14527 12910,14537C12910,14547 12928,14579 12950,14609C12972,14638 12990,14673 12990,14687C12990,14720 12964,14767 12919,14817C12897,14841 12879,14865 12878,14872C12878,14879 12876,14946 12876,15020L12875,15155L12808,15300C12748,15428 12740,15451 12740,15504C12740,15567 12695,15726 12623,15918C12603,15970 12584,16042 12580,16078C12573,16137 12516,16338 12459,16501C12449,16532 12440,16566 12440,16577C12440,16605 12493,16654 12540,16670C12561,16677 12602,16703 12632,16727C12661,16751 12701,16780 12720,16790C12739,16800 12779,16826 12808,16848C12838,16871 12885,16897 12913,16907C12986,16932 13142,17083 13194,17177C13214,17215 13263,17288 13301,17340C13340,17392 13385,17462 13402,17495C13444,17579 13497,17662 13636,17863C13715,17976 13909,18353 13936,18446C13945,18478 13973,18555 13997,18615C14056,18761 14137,19008 14155,19095C14162,19134 14178,19194 14189,19230C14200,19266 14210,19305 14210,19318C14210,19331 14216,19369 14224,19403C14232,19437 14244,19492 14250,19525C14257,19558 14275,19640 14291,19707C14307,19774 14320,19842 14320,19859C14320,19875 14331,19931 14345,19982C14359,20033 14370,20097 14370,20123C14370,20150 14377,20197 14386,20228C14398,20267 14401,20307 14398,20364C14395,20413 14398,20465 14405,20495C14414,20527 14420,20658 14424,20865C14427,21041 14434,21201 14440,21220C14446,21240 14450,21374 14450,21531C14450,21758 14453,21815 14466,21854C14482,21900 14481,21971 14464,22088C14461,22113 14463,22150 14470,22175C14482,22217 14481,22222 14450,22277C14405,22356 14405,22412 14448,22503C14474,22558 14480,22582 14480,22639C14480,22677 14473,22727 14465,22750C14457,22773 14450,22819 14450,22851C14450,22883 14445,22921 14438,22937C14432,22952 14423,23006 14419,23055C14404,23228 14392,23325 14381,23353C14375,23369 14370,23411 14370,23448C14370,23485 14363,23537 14355,23564C14347,23591 14340,23636 14340,23663C14340,23690 14336,23729 14331,23749C14326,23769 14314,23823 14305,23870C14296,23917 14282,23982 14275,24015C14267,24048 14259,24098 14256,24125C14253,24153 14244,24207 14235,24245C14227,24284 14216,24347 14211,24385C14206,24424 14197,24468 14191,24483C14185,24499 14180,24529 14180,24551C14180,24588 14174,24621 14144,24742C14136,24774 14130,24810 14130,24823C14130,24860 14054,25148 14020,25240C14003,25287 13984,25343 13978,25365C13899,25657 13874,25742 13853,25783C13840,25810 13807,25886 13780,25953C13696,26163 13635,26302 13591,26385C13567,26429 13522,26513 13490,26572C13430,26685 13381,26748 13259,26869C13217,26911 13178,26955 13171,26968C13155,26997 13166,27286 13185,27345C13195,27376 13197,27467 13193,27740C13188,28079 13189,28098 13209,28158C13229,28218 13229,28223 13213,28268C13201,28300 13195,28352 13194,28430C13193,28504 13187,28562 13176,28594C13158,28649 13155,28751 13170,28780C13175,28790 13277,28894 13396,29012C13515,29129 13624,29242 13638,29262C13683,29324 13743,29399 13786,29448C13808,29474 13838,29511 13851,29532C13865,29552 13947,29644 14035,29736C14123,29828 14211,29920 14231,29941C14273,29986 14303,29990 14326,29955C14340,29934 14340,29921 14330,29861C14321,29808 14321,29778 14330,29738C14338,29703 14340,29611 14337,29460C14332,29216 14323,29137 14298,29098C14281,29073 14162,28972 14107,28937C14092,28927 14050,28892 14014,28860C13978,28827 13944,28800 13939,28800C13934,28800 13889,28738 13838,28663C13747,28526 13700,28419 13700,28349C13700,28334 13693,28303 13685,28280C13651,28183 13670,28079 13736,28001C13794,27932 13855,27924 13963,27972C14087,28026 14178,28050 14262,28050C14377,28050 14437,28076 14529,28164C14569,28203 14616,28255 14633,28280C14650,28305 14682,28346 14704,28371C14727,28397 14765,28446 14790,28480C14815,28515 14852,28563 14873,28589C14939,28670 14983,28782 15025,28975C15034,29019 15046,29071 15051,29090C15056,29109 15060,29142 15060,29162C15060,29182 15065,29211 15071,29227C15077,29242 15084,29338 15086,29440C15089,29542 15095,29638 15100,29654C15106,29670 15110,29697 15110,29714C15110,29731 15119,29789 15129,29843C15151,29957 15162,29972 15252,30020C15286,30038 15329,30067 15349,30085C15369,30103 15409,30130 15439,30144C15498,30174 15532,30173 15551,30139C15557,30128 15565,30048 15570,29962C15579,29778 15575,29764 15502,29699C15446,29650 15391,29571 15336,29462C15272,29334 15258,29291 15248,29175C15235,29029 15236,29016 15264,28962C15307,28877 15371,28838 15450,28847C15484,28851 15522,28844 15597,28821C15707,28787 15757,28783 15798,28804C15851,28832 15917,28915 15977,29030C16076,29220 16231,29595 16250,29690C16256,29720 16268,29771 16276,29802C16284,29834 16290,29901 16290,29952C16290,30005 16297,30066 16305,30094C16326,30165 16326,30605 16305,30676C16296,30705 16290,30765 16290,30821C16290,30896 16285,30932 16265,30990C16247,31041 16240,31085 16240,31135C16240,31216 16227,31264 16196,31299C16176,31322 16063,31380 16038,31380C16032,31380 15997,31365 15961,31346C15925,31328 15871,31305 15843,31296C15814,31286 15756,31256 15715,31229C15673,31202 15616,31168 15587,31154C15559,31139 15500,31101 15457,31069C15365,30999 15339,30985 15250,30955C15163,30925 15114,30894 15020,30805C14973,30762 14926,30727 14903,30720C14846,30701 14780,30666 14736,30631C14670,30578 14611,30595 14624,30664C14633,30710 14770,30835 14904,30919C14958,30953 15031,31004 15066,31033C15101,31062 15154,31103 15185,31125C15215,31147 15266,31185 15298,31209C15329,31232 15387,31270 15425,31293C15464,31315 15528,31355 15568,31382C15622,31419 15677,31443 15776,31476C15909,31520 15911,31520 16053,31520C16150,31520 16211,31515 16244,31505C16271,31497 16315,31490 16341,31490C16367,31490 16401,31485 16417,31478C16432,31472 16486,31464 16535,31460C16585,31456 16654,31447 16690,31441C16726,31434 16780,31424 16810,31419C16949,31393 17071,31357 17143,31320C17246,31268 17302,31267 17321,31317C17337,31361 17305,31414 17210,31498C17115,31582 17126,31577 16790,31690C16628,31744 16552,31765 16460,31779C16430,31784 16392,31793 16377,31799C16361,31805 16330,31810 16307,31810C16284,31810 16243,31817 16216,31825C16184,31835 16125,31840 16048,31840C15949,31840 15910,31835 15817,31811C15633,31763 15380,31654 15308,31592C15290,31576 15244,31543 15205,31518C15167,31493 15127,31464 15117,31452C15107,31441 15062,31405 15018,31373C14973,31341 14907,31287 14870,31253C14833,31219 14783,31182 14759,31169C14735,31157 14697,31133 14675,31115C14653,31097 14599,31064 14555,31042C14470,31000 14403,30939 14383,30885C14366,30838 14340,30718 14340,30684C14340,30667 14347,30635 14356,30615C14372,30575 14372,30538 14351,30401C14338,30315 14324,30295 14240,30247C14165,30205 14039,30108 13960,30034C13924,30000 13875,29957 13850,29938C13825,29919 13789,29880 13769,29850C13749,29820 13697,29761 13654,29720C13576,29646 13551,29616 13436,29463C13404,29420 13356,29363 13329,29335C13302,29308 13261,29256 13238,29221C13187,29146 13168,29130 13143,29146C13123,29159 13123,29152 13135,29512C13142,29706 13141,29736 13125,29786C13110,29833 13109,29862 13114,29964C13119,30059 13118,30096 13106,30135C13097,30163 13090,30201 13090,30220C13090,30239 13085,30271 13079,30290C13073,30309 13064,30361 13059,30405C13045,30539 13032,30624 13021,30653C13015,30669 13010,30710 13010,30745C13010,30796 12999,30841 12959,30960C12932,31043 12888,31190 12863,31288C12797,31546 12787,31582 12735,31725C12683,31870 12672,31905 12634,32035C12620,32085 12588,32171 12564,32226C12505,32363 12506,32377 12581,32475C12645,32559 12689,32638 12735,32755C12750,32794 12778,32855 12796,32892C12827,32954 12850,33023 12885,33165C12963,33483 12963,33483 12956,33551C12951,33610 12954,33629 12987,33726C13035,33870 13038,33954 12998,34053C12968,34125 12961,34205 12981,34243C12988,34254 13017,34292 13046,34327C13115,34408 13130,34439 13130,34499C13130,34569 13097,34606 13015,34625C12937,34644 12905,34643 12864,34624C12816,34601 12519,34297 12469,34220C12446,34184 12411,34137 12391,34115C12371,34093 12328,34037 12295,33990C12232,33902 11929,33581 11896,33567C11881,33561 11854,33571 11797,33600C11666,33669 11216,33810 11130,33810C11109,33810 11079,33815 11063,33821C11048,33827 10990,33836 10935,33841C10735,33860 10674,33867 10647,33879C10631,33885 10586,33890 10547,33890C10507,33890 10453,33897 10426,33905C10359,33925 10083,33926 10014,33906C9945,33885 9209,33889 9138,33910C9097,33922 9083,33922 9048,33911C9021,33902 8925,33895 8790,33891C8658,33887 8564,33880 8547,33872C8510,33856 8472,33857 8424,33874C8389,33886 8376,33885 8310,33868C8269,33857 8186,33845 8125,33840C8065,33836 8002,33828 7987,33821C7971,33815 7942,33810 7921,33810C7900,33810 7863,33803 7840,33795C7808,33784 7752,33780 7620,33780C7514,33780 7430,33775 7410,33769C7385,33760 7365,33760 7323,33770C7279,33781 7262,33781 7233,33771C7211,33763 7154,33758 7080,33759C6999,33760 6950,33756 6920,33745C6886,33733 6824,33730 6619,33730C6438,33730 6353,33726 6333,33718C6316,33710 6223,33703 6090,33699C5972,33695 5850,33688 5820,33682C5691,33658 5528,33611 5429,33569C5388,33551 5343,33540 5316,33540C5255,33540 5159,33515 5077,33479C5033,33459 5001,33450 4985,33454C4972,33457 4923,33493 4877,33532C4830,33572 4766,33620 4733,33639C4579,33729 4388,33860 4325,33920C4287,33957 4239,33996 4220,34008C4169,34038 4140,34072 4100,34148C4071,34204 4057,34219 4020,34237C3925,34284 3868,34260 3801,34145L3755,34066L3755,33881C3755,33750 3751,33688 3743,33673C3725,33643 3727,33593 3746,33535C3762,33490 3762,33484 3744,33431C3729,33387 3726,33351 3727,33263C3729,33185 3725,33139 3715,33110C3703,33076 3700,33009 3700,32785C3700,32559 3697,32494 3685,32460C3666,32406 3666,32354 3685,32300C3693,32277 3700,32241 3700,32221C3700,32200 3707,32163 3716,32138C3731,32093 3730,32089 3699,31989C3670,31896 3668,31881 3679,31845C3703,31760 3730,31560 3730,31458C3730,31399 3734,31331 3740,31308C3745,31284 3757,31229 3765,31185C3774,31141 3790,31074 3801,31035C3812,30997 3830,30920 3841,30865C3880,30676 3896,30629 3970,30500C3982,30480 3990,30447 3990,30422C3990,30398 4011,30308 4037,30222C4081,30077 4088,30063 4126,30027C4149,30005 4175,29971 4184,29951C4192,29931 4213,29883 4229,29843C4247,29803 4260,29754 4260,29731C4260,29698 4267,29682 4295,29651C4336,29606 4374,29525 4420,29386C4438,29331 4470,29259 4490,29226C4511,29192 4538,29131 4550,29090C4566,29036 4590,28989 4637,28921C4673,28870 4709,28804 4717,28776C4747,28675 4831,28553 4952,28433C5060,28326 5095,28301 5265,28200C5307,28175 5380,28131 5428,28101C5560,28018 5651,27972 5753,27935C5804,27917 5867,27891 5894,27876C5959,27841 6005,27842 6061,27879C6089,27898 6149,27920 6223,27939C6288,27956 6351,27975 6363,27982C6378,27991 6424,27994 6510,27992C6629,27990 6638,27991 6695,28018C6728,28034 6761,28055 6769,28064C6790,28089 6844,28115 6930,28140C7005,28162 7096,28209 7200,28280C7230,28300 7271,28325 7290,28335C7309,28344 7339,28365 7355,28380C7372,28396 7444,28451 7515,28504C7705,28644 7718,28656 7766,28731C7816,28810 7846,28828 7934,28837C7983,28841 8009,28838 8051,28822C8092,28807 8143,28800 8253,28795C8442,28785 8435,28791 8426,28636C8419,28523 8419,28520 8449,28448C8466,28408 8480,28369 8480,28360C8480,28352 8466,28318 8450,28285C8421,28226 8420,28222 8420,28069C8420,27947 8424,27897 8439,27839C8466,27736 8505,27627 8530,27582C8557,27535 8685,27450 8730,27450C8769,27450 8814,27497 8905,27630C8941,27682 8984,27743 9000,27765C9042,27821 9110,28007 9120,28093C9133,28197 9147,28271 9159,28303C9165,28319 9170,28368 9170,28414C9170,28463 9176,28515 9186,28544C9204,28597 9202,28622 9171,28735C9139,28849 9125,28870 9055,28904C9003,28929 8982,28933 8905,28935C8807,28936 8762,28952 8734,28995C8715,29024 8728,29055 8763,29064C8787,29070 8944,29055 8959,29045C8964,29042 9008,29028 9057,29014C9141,28989 9161,28987 9475,28980C9670,28975 9830,28967 9867,28959C9921,28948 9940,28949 10002,28963C10042,28972 10125,28982 10187,28986L10299,28992L10477,28810C10575,28710 10667,28609 10681,28586C10718,28529 10850,28406 10945,28340C10989,28310 11072,28237 11130,28179C11188,28120 11260,28054 11290,28032C11320,28010 11370,27966 11400,27935C11430,27904 11487,27858 11525,27833C11564,27808 11611,27773 11630,27755C11669,27717 11707,27700 11751,27700C11790,27700 11813,27687 11858,27642C11899,27601 12031,27540 12078,27540C12093,27540 12137,27555 12176,27574C12256,27612 12305,27662 12345,27748C12360,27780 12389,27832 12409,27865C12430,27898 12456,27939 12466,27956C12500,28012 12554,28083 12610,28146C12640,28181 12684,28235 12708,28267C12775,28358 12845,28443 12855,28447C12892,28458 12908,28393 12909,28220C12910,28145 12905,28096 12891,28048C12875,27991 12873,27960 12877,27818C12882,27677 12880,27645 12865,27596C12847,27540 12848,27424 12866,27289C12871,27253 12868,27240 12855,27226C12833,27204 12802,27211 12746,27249C12723,27265 12689,27282 12670,27288C12557,27324 12534,27330 12512,27330C12499,27330 12463,27337 12432,27346C12344,27372 12243,27361 12072,27306C11918,27257 11895,27246 11783,27161C11620,27039 11520,26841 11520,26641C11520,26603 11513,26553 11505,26530C11483,26468 11484,26082 11506,26025C11532,25957 11534,25941 11515,25920C11491,25894 11454,25895 11405,25922C11365,25944 11310,25953 11130,25966C11048,25972 11042,25971 10940,25931C10808,25880 10749,25827 10688,25706C10611,25554 10610,25546 10610,25274C10610,25090 10614,25017 10625,24973C10633,24942 10640,24897 10640,24874C10640,24851 10655,24770 10674,24694C10693,24617 10718,24515 10729,24465C10740,24416 10765,24328 10785,24271C10804,24213 10820,24155 10820,24142C10820,24094 10971,23656 11021,23561C11091,23428 11085,23391 10996,23404C10954,23411 10948,23409 10917,23378C10880,23342 10839,23256 10809,23152C10788,23077 10785,22960 10801,22755C10815,22562 10825,22509 10894,22240C10977,21915 10994,21855 11020,21794C11032,21767 11059,21693 11080,21629C11101,21566 11129,21491 11142,21464C11184,21381 11184,21367 11146,21282C11085,21143 11010,20892 11010,20823C11010,20804 11003,20761 10995,20727C10987,20693 10974,20629 10965,20585C10956,20541 10945,20489 10940,20469C10934,20449 10930,20397 10930,20353C10930,20307 10924,20254 10915,20230C10907,20207 10900,20162 10900,20130C10900,20098 10907,20053 10915,20030C10925,20000 10930,19947 10930,19854C10930,19770 10935,19700 10945,19665C10953,19634 10957,19603 10953,19594C10946,19574 10961,19505 11112,18895C11215,18474 11253,18337 11296,18227C11377,18019 11392,17995 11462,17959C11547,17915 11633,17954 11690,18061C11708,18096 11748,18166 11779,18215C11867,18360 11905,18436 11965,18590C11996,18670 12055,18800 12096,18880C12189,19063 12290,19369 12320,19554C12326,19592 12335,19631 12341,19641C12356,19671 12400,19664 12455,19624C12507,19587 12655,19510 12676,19510C12682,19510 12727,19494 12776,19474C12918,19417 13039,19382 13123,19376C13218,19368 13262,19375 13295,19406C13316,19426 13320,19438 13320,19487C13320,19543 13322,19548 13361,19585C13424,19647 13442,19683 13443,19748C13443,19791 13436,19818 13415,19860C13355,19978 13281,20228 13280,20314C13280,20368 13273,20386 13210,20506C13126,20668 12967,20897 12888,20971C12843,21013 12836,21062 12871,21080C12903,21098 12937,21083 12966,21041C12980,21020 13036,20965 13091,20920C13146,20875 13199,20825 13210,20810C13237,20773 13414,20663 13475,20646C13669,20591 13721,20598 13736,20677C13740,20698 13754,20734 13767,20758C13789,20795 13792,20810 13788,20868C13782,20963 13706,21115 13542,21360C13363,21626 13348,21646 13287,21709C13224,21775 13197,21811 13143,21905C13120,21944 13088,21989 13070,22005C13053,22022 13013,22071 12982,22115C12951,22159 12900,22218 12870,22247L12815,22299L12818,22412L12820,22525L12860,22560C12909,22604 12926,22645 12936,22738C12949,22871 12985,22881 13073,22775C13299,22503 13309,22492 13368,22470C13399,22459 13443,22443 13465,22435C13487,22427 13529,22405 13559,22387C13588,22370 13622,22349 13634,22343C13681,22315 13715,22326 13794,22397C13875,22469 13884,22490 13855,22540C13847,22554 13841,22577 13840,22592C13839,22659 13748,22966 13692,23090C13623,23243 13608,23284 13600,23340C13590,23409 13579,23432 13529,23487C13498,23521 13490,23538 13490,23567C13490,23607 13472,23640 13427,23685C13412,23701 13393,23736 13385,23765C13376,23794 13356,23838 13340,23864C13324,23889 13302,23927 13291,23948C13281,23968 13246,24011 13215,24043L13157,24100L13164,24179C13169,24238 13166,24270 13155,24302C13135,24360 13135,24516 13155,24563C13167,24593 13170,24655 13170,24897C13170,25132 13173,25205 13185,25244C13206,25313 13206,25677 13185,25735C13174,25764 13170,25823 13170,25946C13170,26076 13166,26128 13154,26161C13145,26187 13135,26265 13130,26350C13125,26430 13116,26509 13110,26527C13085,26597 13116,26649 13167,26620C13181,26612 13197,26598 13201,26590C13225,26546 13409,26141 13415,26120C13419,26106 13446,26043 13475,25980C13525,25871 13546,25809 13642,25490C13664,25416 13699,25299 13721,25230C13760,25103 13795,24971 13810,24890C13814,24865 13826,24807 13835,24760C13844,24713 13856,24654 13860,24629C13865,24604 13883,24528 13901,24459C13919,24391 13936,24301 13940,24260C13943,24219 13956,24147 13967,24100C14007,23939 14020,23875 14020,23844C14020,23827 14027,23791 14035,23764C14043,23737 14050,23696 14050,23674C14050,23651 14057,23613 14066,23589C14078,23555 14080,23523 14075,23445C14070,23369 14073,23333 14084,23295C14093,23268 14100,23211 14100,23169C14100,23127 14107,23071 14115,23044C14123,23017 14130,22970 14130,22940C14130,22910 14137,22866 14145,22843C14153,22820 14157,22788 14154,22771C14151,22755 14155,22717 14164,22687C14173,22657 14180,22614 14180,22592C14180,22570 14187,22533 14195,22510C14215,22455 14214,22373 14194,22314C14179,22270 14179,22262 14196,22208C14212,22152 14212,22146 14197,22096C14182,22048 14180,21981 14180,21493C14181,21016 14178,20936 14164,20880C14152,20832 14149,20794 14154,20730C14159,20667 14157,20632 14146,20595C14137,20568 14130,20509 14130,20465C14130,20421 14123,20363 14115,20336C14107,20309 14100,20263 14100,20234C14100,20205 14095,20169 14089,20153C14083,20138 14074,20087 14069,20040C14054,19898 14042,19811 14035,19799C14031,19794 14025,19765 14020,19737C14016,19708 14003,19647 13992,19600C13980,19553 13964,19477 13955,19430C13922,19265 13818,18864 13783,18770C13698,18543 13484,18090 13411,17982C13390,17950 13363,17905 13351,17881C13325,17831 13209,17660 13168,17612C13153,17594 13131,17560 13119,17537C13062,17424 12914,17255 12817,17193C12724,17133 12610,17048 12580,17015C12566,17000 12535,16974 12510,16957C12485,16940 12439,16902 12407,16873C12333,16806 12310,16804 12242,16862C12214,16886 12166,16921 12134,16940C12082,16971 12068,16975 11976,16981C11920,16984 11860,16993 11842,17000C11808,17013 11755,17003 11659,16968C11609,16950 11454,16937 11205,16931C11042,16927 10945,16920 10927,16912C10911,16905 10857,16900 10803,16900C10745,16900 10686,16894 10653,16884C10613,16872 10578,16870 10531,16874C10484,16879 10450,16876 10415,16865C10388,16857 10342,16850 10315,16850C10287,16850 10249,16845 10230,16839C10211,16834 10170,16825 10140,16819C10014,16798 9941,16782 9875,16762C9773,16731 9653,16707 9641,16715C9635,16718 9603,16714 9569,16706C9536,16697 9485,16690 9457,16690C9428,16689 9387,16683 9365,16675C9333,16663 9244,16660 8899,16660C8546,16660 8465,16657 8430,16645C8407,16637 8368,16630 8343,16630C8299,16630 8298,16631 8138,16795C8050,16886 7965,16979 7950,17002C7935,17026 7826,17142 7708,17260C7590,17378 7483,17491 7470,17510C7458,17529 7415,17577 7376,17616C7246,17745 7200,17801 7200,17829C7200,17843 7231,17920 7270,18000C7308,18080 7355,18186 7374,18235C7423,18364 7476,18493 7515,18580C7550,18656 7600,18844 7600,18897C7600,18913 7618,18974 7640,19033C7668,19106 7680,19155 7680,19190C7680,19221 7690,19264 7705,19302C7719,19336 7730,19382 7730,19405C7730,19427 7741,19479 7755,19520C7772,19571 7780,19618 7780,19666C7780,19705 7787,19757 7795,19780C7804,19805 7810,19858 7810,19911C7810,19959 7815,20011 7821,20027C7837,20066 7850,20163 7859,20310C7863,20379 7872,20448 7878,20463C7885,20479 7890,20534 7890,20586C7890,20654 7896,20701 7912,20753C7929,20811 7935,20866 7942,21040C7946,21158 7950,21264 7949,21275C7949,21286 7947,21624 7944,22025C7942,22464 7936,22767 7930,22784C7924,22800 7920,22836 7920,22865C7920,22893 7913,22939 7905,22966C7897,22993 7890,23038 7890,23065C7890,23093 7885,23131 7879,23150C7869,23184 7862,23222 7841,23380C7836,23421 7827,23468 7821,23483C7815,23499 7810,23538 7810,23570C7810,23602 7805,23641 7799,23657C7788,23685 7780,23733 7761,23908C7755,23958 7746,24009 7740,24019C7735,24030 7730,24072 7730,24113C7730,24154 7723,24207 7715,24230C7707,24253 7700,24290 7700,24311C7700,24377 7682,24442 7602,24660C7518,24892 7489,24930 7396,24930C7332,24930 7324,24938 7279,25040C7261,25081 7232,25135 7213,25160C7195,25185 7133,25275 7076,25360C7019,25445 6962,25524 6950,25535C6938,25546 6911,25580 6890,25610C6869,25640 6833,25683 6810,25705C6758,25755 6669,25871 6589,25992C6513,26108 6449,26188 6338,26306C6289,26357 6250,26404 6250,26411C6250,26430 5862,26817 5800,26860C5770,26881 5720,26924 5690,26955C5660,26986 5609,27029 5578,27051C5547,27072 5500,27115 5473,27145C5417,27211 5359,27250 5267,27285L5200,27310L5137,27289C5103,27277 5045,27255 5008,27239C4964,27220 4935,27213 4922,27218C4911,27222 4840,27290 4765,27370C4574,27572 4487,27654 4403,27711C4363,27738 4315,27774 4297,27790C4232,27847 4189,27850 4097,27803C4017,27763 3980,27715 3932,27591C3909,27531 3890,27475 3890,27468C3890,27461 3867,27388 3840,27306C3812,27224 3785,27131 3780,27101C3776,27070 3767,27027 3761,27005C3755,26983 3751,26935 3751,26899C3752,26862 3747,26823 3741,26812C3735,26800 3730,26767 3730,26737C3730,26708 3723,26661 3715,26634C3706,26604 3700,26544 3700,26480C3700,26419 3694,26356 3686,26329C3675,26293 3673,26242 3677,26109C3683,25942 3682,25933 3660,25890C3647,25865 3627,25832 3614,25815C3573,25759 3502,25605 3475,25510C3460,25458 3435,25390 3420,25360C3405,25330 3387,25287 3380,25265C3373,25243 3351,25194 3330,25155C3290,25082 3207,24838 3196,24760C3188,24712 3176,24650 3155,24555C3147,24522 3139,24432 3136,24356L3132,24217L3171,24138C3192,24096 3220,24054 3233,24046C3307,23997 3441,23977 3692,23976C3825,23975 3882,23971 3891,23963C3912,23942 3904,23856 3874,23798C3849,23748 3720,23449 3643,23260C3624,23213 3603,23150 3597,23120C3592,23090 3560,22984 3527,22885C3482,22752 3465,22683 3459,22620C3455,22573 3435,22475 3416,22401C3385,22284 3380,22253 3380,22151C3380,22077 3374,22017 3365,21986C3357,21959 3350,21913 3350,21884C3350,21855 3346,21820 3340,21805C3335,21791 3329,21686 3328,21572C3326,21369 3327,21363 3353,21295C3368,21256 3390,21211 3403,21194C3415,21177 3441,21142 3460,21116C3491,21073 3590,21001 3638,20986C3649,20982 3691,20988 3731,21000C3801,21019 3809,21024 3883,21100C3961,21180 3991,21197 4029,21185C4066,21174 4055,21127 3989,21013C3956,20955 3906,20860 3878,20801C3850,20743 3797,20632 3760,20555C3698,20427 3620,20243 3620,20225C3620,20221 3600,20167 3575,20105C3551,20043 3517,19945 3501,19888C3485,19832 3462,19759 3451,19728C3439,19696 3430,19650 3430,19625C3430,19601 3419,19552 3406,19517C3369,19418 3362,19285 3389,19180C3418,19071 3425,19058 3513,18967C3585,18893 3590,18890 3633,18890C3658,18890 3700,18899 3727,18911C3770,18930 3786,18931 3885,18925C3946,18921 4011,18918 4030,18918C4067,18917 4248,18943 4328,18961C4386,18974 4649,19064 4689,19085C4733,19107 4768,19104 4781,19077C4792,19052 4788,19028 4756,18945C4745,18915 4741,18861 4740,18724L4740,18543L4806,18344C4886,18102 4912,18050 4991,17966C5066,17885 5131,17852 5294,17810C5402,17783 5426,17780 5574,17780C5689,17780 5746,17784 5775,17795C5797,17803 5834,17809 5856,17810C5914,17810 6113,17863 6193,17899C6273,17935 6342,17997 6383,18068C6420,18135 6447,18154 6484,18140C6499,18135 6519,18116 6528,18098C6537,18080 6571,18040 6602,18010C6633,17980 6672,17936 6687,17913C6702,17890 6748,17844 6788,17810C6871,17739 6875,17727 6828,17654C6797,17605 6783,17576 6688,17365C6637,17251 6631,17239 6521,17030C6462,16918 6370,16774 6232,16580C6207,16544 6055,16340 5895,16125C5735,15911 5593,15719 5580,15700C5567,15681 5491,15578 5411,15472C5331,15366 5245,15248 5220,15211C5195,15173 5159,15125 5140,15104C5121,15082 5078,15027 5045,14980C4975,14880 4621,14516 4540,14460C4479,14418 4283,14221 4233,14150C4199,14104 4153,14044 4098,13977C4070,13942 4013,13894 3875,13792C3848,13772 3763,13694 3687,13620C3568,13504 3538,13479 3467,13445L3385,13405L3347,13310C3319,13242 3310,13207 3314,13185C3322,13144 3407,13061 3491,13013C3571,12967 3639,12919 3700,12865C3725,12842 3763,12811 3785,12796C3807,12780 3830,12762 3835,12755C3841,12749 3870,12726 3900,12703C3930,12681 3962,12655 3970,12645C4019,12586 4236,12472 4371,12436C4507,12399 4768,12309 4895,12256C4996,12214 5202,12158 5420,12114C5505,12097 5640,12065 5945,11990C6226,11922 6241,11919 6291,11919C6315,11919 6362,11913 6395,11906C6564,11869 6611,11859 6683,11845C6726,11836 6765,11832 6771,11835C6776,11839 6807,11834 6841,11826C6874,11817 6916,11810 6934,11810C6952,11810 6989,11803 7016,11795C7043,11787 7105,11780 7155,11780C7205,11780 7267,11773 7294,11765C7358,11746 7500,11746 7575,11765C7627,11779 7640,11779 7694,11766C7775,11746 7994,11746 8058,11765C8088,11775 8151,11780 8237,11780C8349,11780 8383,11784 8456,11805C8503,11819 8561,11830 8585,11830C8608,11830 8649,11837 8676,11845C8703,11853 8734,11860 8744,11860C8755,11860 8809,11881 8864,11908C8959,11952 8970,11955 9050,11956C9133,11956 9137,11957 9247,12013C9376,12079 9531,12123 9632,12124C9685,12125 9705,12130 9730,12148C9784,12188 9893,12213 9982,12205C10052,12199 10064,12200 10117,12225C10149,12240 10202,12262 10235,12274C10268,12287 10313,12307 10335,12319C10361,12332 10393,12340 10425,12340C10452,12340 10513,12351 10560,12364C10607,12378 10683,12397 10730,12408C10777,12419 10858,12447 10910,12470C11053,12533 11190,12580 11349,12620C11442,12644 11471,12656 11545,12706C11603,12744 11701,12781 11814,12805C11926,12829 11995,12855 12070,12900C12106,12921 12191,12959 12260,12983C12329,13007 12444,13054 12515,13087C12587,13120 12676,13160 12715,13176C12759,13194 12805,13223 12840,13255C12915,13324 12956,13346 13019,13354C13086,13363 13157,13389 13201,13422C13220,13436 13264,13462 13300,13480C13336,13498 13388,13534 13416,13560C13444,13587 13499,13624 13537,13644C13607,13679 13673,13723 13753,13788C13776,13807 13820,13835 13851,13851C13922,13886 14249,14102 14334,14168C14368,14195 14405,14222 14415,14228C14426,14233 14464,14261 14499,14289C14573,14348 14615,14357 14626,14315ZM12781,34089C12794,34065 12789,34022 12766,33965C12758,33943 12751,33900 12750,33869C12750,33838 12743,33791 12735,33764C12727,33737 12720,33695 12720,33672C12720,33629 12679,33457 12638,33330C12598,33204 12438,32849 12411,32827C12404,32821 12371,32777 12340,32730C12308,32683 12259,32623 12230,32595C12176,32543 12147,32496 12136,32443C12130,32418 12136,32397 12166,32339C12186,32299 12239,32156 12284,32021C12330,31885 12386,31726 12410,31665C12510,31408 12648,30967 12660,30865C12664,30827 12678,30759 12689,30716C12710,30640 12723,30567 12740,30430C12744,30394 12753,30352 12759,30337C12765,30321 12770,30283 12770,30252C12770,30221 12777,30176 12785,30153C12795,30124 12799,30078 12798,30013C12797,29951 12800,29907 12808,29893C12816,29878 12820,29802 12820,29637C12820,29459 12823,29393 12834,29362C12845,29331 12849,29257 12851,29066L12853,28811L12789,28740C12754,28700 12671,28611 12604,28542C12537,28472 12469,28395 12452,28370C12435,28345 12393,28298 12358,28265C12323,28232 12275,28171 12250,28130C12190,28030 12094,27930 12057,27930C12019,27930 11982,27951 11940,27996C11910,28027 11793,28108 11598,28232C11556,28259 11525,28282 11418,28368C11389,28392 11347,28424 11325,28441C11303,28457 11263,28488 11235,28510C11208,28532 11155,28573 11117,28601C11080,28629 11045,28660 11040,28671C11034,28681 10995,28715 10952,28745C10879,28796 10734,28942 10736,28961C10739,28986 10741,28990 10760,29000C10775,29008 10808,29007 10886,28995C10970,28983 10999,28982 11028,28991C11048,28998 11133,29006 11215,29010C11479,29023 11580,29046 11677,29115C11704,29134 11748,29165 11775,29184C11879,29256 12046,29443 12098,29546C12127,29604 12180,29792 12180,29837C12180,29859 12187,29897 12195,29920C12205,29949 12210,30002 12210,30090C12210,30178 12205,30231 12195,30260C12186,30285 12180,30337 12180,30386C12180,30458 12174,30488 12140,30590C12114,30668 12100,30728 12100,30761C12100,30826 12024,31094 11960,31255C11942,31299 11913,31373 11895,31420C11865,31499 11797,31620 11710,31750C11690,31780 11661,31828 11646,31856C11631,31884 11605,31914 11589,31924C11573,31934 11538,31962 11512,31987C11407,32087 11248,32175 11100,32214C10990,32242 10897,32260 10854,32260C10837,32260 10790,32272 10749,32286C10689,32307 10666,32311 10625,32305C10541,32293 10478,32295 10405,32313C10306,32338 10166,32353 10090,32346C9964,32336 9726,32242 9590,32150C9516,32100 9404,31979 9357,31900C9307,31813 9250,31634 9250,31560C9250,31528 9243,31483 9235,31460C9216,31405 9216,31285 9235,31230C9244,31203 9250,31151 9250,31091C9250,31027 9256,30977 9266,30946C9278,30911 9281,30880 9277,30831C9272,30777 9276,30741 9302,30635C9347,30449 9387,30347 9516,30088C9579,29962 9641,29831 9654,29796C9667,29762 9688,29714 9700,29689C9736,29619 9876,29465 9983,29377C10032,29337 10041,29312 10015,29290C9996,29274 9691,29294 9614,29316C9581,29325 9515,29330 9426,29330C9346,29330 9280,29335 9268,29341C9257,29347 9216,29352 9176,29352C9137,29352 9085,29359 9060,29366C9035,29374 8997,29380 8976,29380C8954,29380 8914,29386 8886,29394C8662,29456 8654,29455 8511,29337C8431,29272 8423,29251 8434,29144C8445,29035 8420,29017 8327,29070C8264,29105 8224,29108 8170,29080C8117,29053 8054,29053 8040,29081C8030,29098 8041,29126 8110,29263C8182,29405 8197,29443 8232,29585C8270,29734 8272,29751 8266,29840C8263,29892 8256,29950 8250,29969C8243,29995 8245,30024 8262,30094C8276,30152 8286,30238 8290,30330C8294,30411 8302,30488 8310,30505C8321,30532 8319,30546 8292,30633C8267,30716 8264,30736 8273,30765C8280,30790 8280,30810 8272,30839C8265,30860 8260,30896 8260,30920C8260,30989 8213,31158 8156,31297C8099,31437 8050,31522 7990,31585C7970,31607 7939,31645 7922,31670C7884,31726 7760,31847 7700,31887C7622,31940 7318,32087 7230,32115C7084,32161 7006,32173 6805,32177C6614,32182 6572,32177 6450,32142C6377,32120 6253,32036 6213,31980C6195,31955 6163,31915 6141,31890C6120,31865 6089,31817 6071,31782C6033,31707 6021,31700 5863,31666C5722,31635 5609,31579 5547,31510C5523,31483 5484,31448 5459,31432C5435,31415 5405,31391 5393,31378C5357,31340 5283,31171 5260,31076C5248,31026 5231,30972 5223,30956C5209,30929 5155,30737 5143,30669C5140,30655 5145,30619 5154,30590C5163,30560 5170,30520 5170,30501C5170,30481 5180,30434 5191,30395C5205,30349 5215,30281 5219,30195C5225,30071 5228,30060 5271,29955C5305,29871 5345,29802 5440,29662C5509,29561 5579,29455 5597,29427C5667,29313 5692,29295 5894,29203C6011,29150 6044,29130 6090,29085C6164,29012 6209,28996 6323,29005C6391,29010 6421,29008 6460,28995C6506,28980 6513,28980 6564,28996C6617,29013 6619,29013 6716,28987C6771,28973 6845,28959 6883,28956C6920,28953 6967,28946 6988,28940C7014,28932 7078,28931 7200,28937C7296,28942 7385,28944 7398,28942C7411,28939 7428,28927 7437,28914C7451,28892 7450,28888 7433,28858C7417,28830 7329,28760 7243,28708C7228,28699 7188,28670 7155,28645C7122,28620 7071,28584 7042,28564C7013,28543 6974,28505 6955,28478C6915,28423 6891,28410 6841,28418C6816,28421 6791,28415 6746,28392C6713,28376 6652,28350 6612,28335C6572,28320 6516,28290 6487,28268L6435,28228L6354,28235C6294,28239 6261,28237 6229,28226C6168,28204 5920,28204 5825,28225C5701,28253 5494,28368 5263,28538C5203,28583 5065,28720 5031,28770C5017,28789 4990,28823 4970,28846C4950,28868 4921,28908 4905,28936C4890,28963 4854,29022 4824,29066C4754,29174 4717,29249 4671,29378C4631,29489 4525,29738 4440,29920C4413,29978 4386,30043 4380,30065C4373,30087 4353,30139 4335,30180C4253,30364 4226,30430 4205,30505C4154,30683 4130,30782 4130,30815C4130,30834 4124,30876 4116,30908C4108,30939 4097,30990 4091,31020C4086,31050 4076,31104 4069,31140C4063,31176 4054,31252 4050,31310C4046,31368 4038,31428 4032,31443C4025,31459 4020,31519 4020,31578C4020,31642 4014,31704 4005,31732C3995,31767 3993,31810 3997,31902C4002,32000 3999,32037 3986,32082C3966,32153 3962,32541 3982,32587C3990,32605 3994,32674 3995,32780C3995,32893 3999,32952 4008,32967C4015,32981 4020,33030 4020,33102C4020,33178 4025,33230 4036,33260C4046,33288 4051,33336 4050,33390C4048,33634 4057,33709 4092,33710C4096,33710 4139,33674 4187,33629C4283,33541 4484,33401 4625,33325C4718,33275 4770,33232 4770,33207C4770,33199 4755,33170 4736,33143C4678,33059 4650,32996 4624,32893L4599,32795L4631,32670C4671,32513 4688,32479 4762,32408C4857,32316 4916,32310 5057,32375C5099,32394 5158,32417 5188,32424C5274,32447 5360,32517 5398,32596C5416,32635 5412,32658 5353,32845C5313,32970 5292,33015 5244,33081C5182,33166 5200,33204 5315,33228C5343,33234 5388,33249 5415,33261C5633,33355 5795,33410 5861,33410C5880,33410 5918,33417 5945,33425C5982,33437 6016,33439 6076,33434C6136,33429 6170,33432 6212,33444C6258,33457 6318,33460 6533,33460C6743,33460 6806,33463 6840,33475C6868,33485 6921,33490 6997,33490C7069,33490 7119,33495 7133,33502C7149,33511 7207,33514 7332,33512C7468,33510 7518,33513 7552,33525C7579,33534 7632,33540 7698,33540C7755,33540 7809,33544 7819,33550C7836,33558 7900,33569 8060,33590C8096,33595 8138,33603 8153,33609C8169,33615 8237,33620 8304,33620C8388,33620 8441,33625 8470,33635C8505,33647 8577,33650 8860,33650C9143,33650 9215,33647 9250,33635C9286,33622 9387,33620 9911,33620C10345,33620 10537,33617 10557,33609C10583,33598 10631,33593 10880,33571C10932,33567 10988,33558 11003,33552C11019,33545 11051,33540 11074,33540C11098,33540 11130,33536 11146,33531C11290,33487 11483,33421 11565,33390C11960,33238 12027,33229 12075,33325C12087,33348 12152,33422 12221,33490C12289,33559 12372,33653 12405,33700C12438,33747 12488,33810 12516,33840C12544,33870 12583,33920 12602,33950C12651,34026 12728,34110 12751,34110C12761,34110 12774,34100 12781,34089ZM5025,32908C5073,32866 5074,32766 5027,32736C4986,32709 4956,32707 4927,32730C4893,32757 4890,32812 4920,32870C4952,32933 4983,32944 5025,32908ZM10335,32076C10364,32063 10370,32056 10370,32031C10370,32014 10359,31977 10346,31948C10319,31888 10290,31771 10290,31723C10290,31705 10283,31670 10274,31644C10257,31594 10258,31517 10278,31440C10284,31415 10296,31361 10306,31320C10332,31203 10378,31092 10419,31047C10462,30999 10604,30892 10634,30884C10646,30881 10676,30884 10700,30889C10725,30895 10766,30900 10792,30900C10849,30900 10927,30928 10997,30972C11137,31062 11162,31082 11181,31123C11208,31184 11206,31272 11176,31346C11162,31379 11133,31460 11110,31526C11047,31710 10984,31821 10895,31906C10854,31945 10820,31984 10820,31992C10820,32058 11014,31997 11190,31875C11366,31754 11579,31516 11645,31366C11716,31206 11796,30944 11811,30825C11827,30694 11841,30609 11850,30585C11855,30572 11860,30404 11861,30212C11862,29805 11860,29791 11765,29630C11699,29518 11688,29505 11635,29473C11613,29459 11577,29429 11555,29405C11525,29374 11500,29358 11460,29347C11355,29318 11284,29307 11155,29300C11084,29296 11009,29288 10990,29282C10936,29264 10607,29267 10546,29285C10519,29293 10481,29300 10461,29300C10410,29300 10367,29330 10327,29393C10308,29422 10271,29464 10245,29486C10108,29599 10053,29675 9931,29918C9872,30037 9819,30146 9815,30160C9811,30174 9782,30241 9750,30310C9691,30439 9629,30620 9610,30725C9604,30758 9592,30814 9584,30850C9576,30886 9570,30929 9570,30946C9570,30963 9563,30999 9555,31026C9546,31056 9540,31116 9540,31181C9540,31250 9535,31303 9525,31330C9503,31392 9506,31427 9546,31562C9587,31702 9581,31688 9633,31760C9728,31888 9806,31951 9969,32028C10058,32071 10072,32074 10170,32080C10228,32084 10281,32088 10288,32088C10295,32089 10316,32083 10335,32076ZM7083,31844C7153,31825 7419,31698 7510,31640C7778,31468 7979,31079 8020,30654C8024,30610 8033,30563 8040,30551C8047,30537 8050,30508 8046,30476C8043,30448 8036,30365 8031,30293C8026,30220 8017,30146 8012,30128C8006,30110 7999,30065 7996,30028C7992,29992 7985,29949 7979,29932C7971,29909 7973,29890 7990,29841C8016,29768 8009,29716 7960,29620C7943,29587 7921,29536 7909,29506C7898,29476 7882,29446 7873,29438C7864,29431 7838,29385 7814,29335C7787,29278 7751,29223 7716,29185L7661,29125L7593,29125C7537,29125 7512,29132 7454,29159C7414,29177 7365,29210 7344,29232C7289,29288 7255,29303 7193,29300C7139,29298 7114,29298 6950,29298C6898,29299 6830,29298 6800,29297C6759,29296 6727,29303 6675,29324C6621,29346 6589,29352 6536,29352C6498,29352 6446,29358 6421,29366C6396,29374 6352,29380 6324,29380C6246,29380 6113,29418 6025,29465C5881,29541 5833,29577 5791,29638C5770,29670 5744,29702 5735,29710C5710,29731 5628,29855 5591,29927C5523,30062 5490,30184 5490,30298C5490,30343 5484,30396 5475,30420C5466,30447 5460,30499 5460,30560C5460,30621 5466,30673 5475,30700C5484,30725 5490,30778 5490,30829C5490,30903 5494,30923 5518,30970C5612,31155 5671,31225 5791,31295C5868,31341 5918,31351 5938,31327C5944,31320 5954,31292 5960,31265C5976,31193 5997,31164 6075,31110C6113,31083 6169,31036 6198,31006C6259,30942 6350,30895 6480,30860C6526,30848 6580,30827 6599,30814C6619,30801 6647,30790 6662,30790C6719,30790 6803,30906 6834,31026C6843,31064 6857,31118 6865,31146C6873,31174 6880,31210 6880,31226C6880,31257 6810,31482 6786,31528C6747,31603 6666,31649 6530,31674C6419,31695 6382,31733 6430,31778C6454,31801 6565,31840 6605,31841C6622,31841 6659,31846 6688,31853C6759,31870 7007,31864 7083,31844ZM10695,31864C10704,31860 10719,31841 10729,31821C10759,31761 10843,31528 10852,31480C10856,31455 10866,31413 10873,31385C10897,31298 10868,31239 10772,31183C10701,31141 10629,31155 10596,31218C10577,31255 10556,31393 10564,31427C10568,31442 10575,31500 10579,31555C10592,31714 10617,31832 10641,31853C10664,31872 10670,31873 10695,31864ZM6437,31418C6564,31344 6604,31268 6544,31221C6496,31183 6447,31199 6350,31283C6257,31365 6241,31401 6283,31440C6313,31469 6364,31462 6437,31418ZM16042,31028C16068,31007 16088,30787 16069,30720C16062,30695 16053,30566 16049,30425C16039,30116 16027,29939 16013,29880C16007,29855 15996,29808 15989,29775C15952,29599 15819,29291 15723,29162C15693,29122 15645,29096 15614,29104C15578,29113 15530,29185 15530,29230C15530,29294 15612,29395 15680,29415C15728,29429 15790,29471 15805,29500C15816,29521 15820,29562 15820,29647C15820,29731 15826,29788 15840,29845C15864,29941 15865,30006 15845,30083C15837,30115 15830,30166 15830,30196C15830,30226 15837,30267 15845,30287C15865,30334 15864,30369 15841,30405C15820,30439 15683,30530 15652,30530C15640,30530 15611,30513 15587,30492C15551,30461 15520,30447 15429,30420C15284,30378 15263,30369 15181,30314C15135,30283 15087,30262 15029,30247C14904,30214 14854,30181 14822,30112C14797,30056 14797,30056 14813,29994C14833,29920 14835,29862 14818,29823C14811,29806 14803,29705 14798,29570C14788,29265 14779,29183 14743,29058C14710,28948 14655,28812 14617,28750C14566,28668 14477,28560 14442,28539C14422,28527 14385,28498 14360,28474C14328,28444 14294,28424 14245,28406C14207,28393 14155,28374 14130,28364C14049,28333 13992,28371 14019,28438C14036,28480 14236,28656 14355,28735C14480,28818 14545,28881 14576,28945C14597,28988 14600,29010 14600,29105C14600,29173 14606,29234 14615,29264C14636,29332 14636,29606 14615,29674C14604,29712 14600,29778 14600,29956C14600,30219 14597,30208 14687,30268C14784,30332 14887,30405 14917,30431C14937,30448 14994,30473 15074,30499C15190,30536 15259,30570 15505,30706C15543,30728 15604,30773 15640,30807C15680,30844 15756,30898 15831,30941C16024,31053 16014,31049 16042,31028ZM8814,28689C8837,28662 8840,28650 8840,28577C8840,28532 8833,28473 8824,28445C8813,28407 8811,28372 8816,28299C8821,28221 8819,28192 8805,28151C8774,28058 8730,28064 8710,28164C8693,28249 8693,28684 8710,28705C8732,28732 8785,28724 8814,28689ZM4328,27423C4344,27413 4435,27330 4530,27238C4663,27108 4703,27065 4703,27045C4703,27012 4686,26993 4630,26965C4605,26952 4577,26934 4570,26925C4562,26915 4531,26891 4500,26870C4419,26815 4085,26470 4055,26409C4001,26303 3927,26250 3900,26299C3892,26314 3898,26340 3925,26416C3945,26471 3960,26531 3960,26556C3960,26580 3974,26646 3990,26703C4007,26761 4020,26831 4020,26859C4020,26921 4132,27261 4182,27349C4225,27426 4239,27440 4271,27440C4287,27440 4312,27432 4328,27423ZM12530,27040C12575,27028 12619,27015 12628,27010C12638,27004 12675,26987 12711,26971C12787,26938 12845,26891 12854,26855C12858,26841 12852,26810 12840,26780C12821,26732 12820,26706 12820,26281C12820,25913 12823,25824 12835,25784C12856,25715 12856,25427 12835,25377C12816,25332 12816,25281 12834,25216C12868,25094 12872,25068 12880,24935C12885,24858 12892,24766 12895,24729C12901,24675 12900,24661 12886,24647C12876,24638 12864,24630 12858,24630C12839,24630 12785,24697 12741,24776C12716,24819 12666,24887 12630,24925C12593,24964 12542,25023 12517,25057C12491,25090 12446,25140 12416,25167C12387,25193 12348,25236 12330,25263C12312,25290 12275,25325 12245,25345C12211,25366 12182,25396 12165,25424C12137,25472 12078,25530 12033,25554C12018,25562 11968,25606 11923,25652C11828,25750 11824,25760 11815,25945C11811,26018 11801,26097 11792,26125C11774,26184 11773,26320 11791,26365C11797,26382 11806,26431 11811,26475C11835,26708 11836,26713 11889,26818C11917,26874 11950,26926 11962,26933C12085,27007 12133,27031 12180,27040C12209,27046 12236,27052 12238,27055C12253,27069 12453,27058 12530,27040ZM5273,26971C5287,26966 5331,26931 5371,26895C5412,26858 5495,26790 5555,26745C5665,26662 6110,26226 6110,26201C6110,26195 6143,26155 6183,26112C6223,26070 6267,26019 6280,26000C6293,25981 6318,25949 6336,25930C6354,25911 6404,25841 6447,25775C6491,25709 6534,25649 6543,25641C6552,25634 6580,25600 6604,25566C6628,25533 6683,25474 6725,25435C6768,25397 6836,25320 6876,25265C6917,25210 6963,25149 6978,25130C6994,25111 7050,25030 7103,24950C7203,24799 7206,24794 7331,24450C7364,24357 7380,24299 7380,24265C7380,24237 7385,24199 7391,24180C7396,24161 7405,24123 7409,24095C7420,24028 7458,23836 7472,23780C7478,23755 7486,23715 7491,23690C7495,23665 7506,23602 7515,23550C7525,23498 7535,23419 7539,23375C7543,23331 7550,23288 7555,23281C7559,23273 7567,23237 7571,23201C7585,23078 7601,22980 7610,22954C7616,22940 7620,22905 7620,22876C7620,22846 7627,22804 7635,22780C7647,22746 7650,22652 7651,22247C7652,21976 7657,21683 7662,21595C7672,21410 7672,21441 7661,21055C7647,20605 7634,20338 7623,20310C7617,20296 7610,20241 7606,20188C7603,20135 7596,20080 7590,20065C7585,20051 7580,20018 7580,19992C7580,19966 7573,19920 7565,19890C7557,19860 7550,19805 7550,19769C7550,19733 7543,19681 7535,19654C7527,19627 7520,19579 7520,19547C7520,19505 7510,19465 7484,19397C7464,19347 7444,19275 7439,19237C7434,19200 7420,19132 7406,19087C7393,19042 7378,18987 7372,18965C7366,18943 7336,18855 7305,18770C7273,18685 7233,18574 7215,18524C7197,18474 7162,18395 7139,18349C7116,18303 7080,18218 7061,18161C7022,18047 6990,18008 6951,18026C6931,18036 6810,18176 6810,18190C6810,18195 6778,18233 6740,18275C6662,18359 6646,18388 6660,18423C6665,18435 6702,18489 6742,18542C6782,18595 6835,18676 6859,18722C6884,18768 6922,18832 6946,18865C6969,18898 7009,18968 7035,19020C7061,19072 7103,19138 7128,19165C7195,19239 7307,19495 7359,19691C7431,19964 7482,20229 7499,20420C7504,20472 7513,20538 7519,20566C7528,20602 7530,20721 7526,20981C7521,21357 7511,21540 7491,21600C7485,21619 7480,21665 7480,21703C7480,21742 7470,21808 7456,21863C7442,21913 7426,21982 7420,22015C7410,22069 7401,22115 7370,22270C7351,22361 7268,22698 7243,22780C7229,22827 7209,22883 7198,22905C7186,22927 7174,22974 7170,23011C7166,23050 7152,23098 7135,23131C7112,23178 7040,23404 7040,23431C7040,23455 6919,23771 6860,23900C6839,23947 6807,24023 6790,24070C6772,24116 6745,24179 6730,24210C6715,24241 6697,24286 6690,24310C6684,24335 6666,24378 6650,24405C6635,24433 6614,24484 6604,24520C6589,24576 6465,24836 6418,24910C6409,24924 6395,24962 6385,24995C6376,25028 6350,25086 6328,25124C6305,25163 6282,25219 6275,25255C6261,25319 6186,25480 6143,25538C6129,25556 6104,25595 6087,25625C6041,25702 5821,26021 5749,26115C5715,26159 5671,26220 5652,26250C5633,26280 5605,26319 5589,26337C5574,26354 5542,26399 5517,26437C5493,26474 5451,26525 5426,26550C5396,26578 5366,26622 5346,26665C5323,26714 5290,26760 5237,26816C5148,26910 5141,26937 5195,26968C5220,26982 5241,26983 5273,26971ZM5010,26715C5035,26682 5098,26590 5150,26510C5201,26430 5259,26345 5280,26320C5300,26295 5338,26241 5365,26200C5408,26132 5501,26006 5587,25896C5605,25874 5637,25830 5657,25800C5678,25770 5717,25718 5746,25685C5824,25594 5900,25483 5937,25406C5956,25369 5986,25315 6004,25286C6022,25258 6068,25168 6107,25085C6233,24818 6307,24656 6315,24630C6319,24616 6351,24547 6386,24476C6421,24405 6450,24342 6450,24334C6450,24317 6533,24110 6610,23935C6702,23726 6725,23656 6941,22950C6962,22881 6988,22785 6999,22735C7010,22686 7028,22605 7039,22555C7065,22446 7084,22355 7100,22275C7107,22242 7119,22188 7126,22155C7134,22122 7144,22070 7149,22040C7154,22010 7163,21965 7169,21940C7194,21841 7200,21809 7200,21785C7200,21772 7207,21735 7215,21703C7226,21661 7229,21618 7224,21540C7219,21458 7222,21426 7234,21391C7245,21360 7250,21312 7250,21226C7250,21148 7255,21088 7265,21056C7286,20988 7286,20712 7265,20644C7257,20617 7250,20570 7250,20539C7250,20508 7243,20463 7235,20440C7227,20417 7220,20374 7220,20344C7220,20315 7216,20281 7211,20267C7206,20254 7199,20218 7196,20188C7188,20112 7097,19759 7067,19685C6966,19439 6889,19277 6840,19205C6825,19183 6796,19132 6776,19091C6755,19051 6704,18959 6661,18886C6618,18814 6570,18730 6554,18700C6502,18601 6452,18602 6404,18702C6378,18757 6345,18804 6225,18960C6203,18989 6151,19049 6110,19095C5967,19253 5700,19634 5700,19680C5701,19699 5726,19729 5802,19800C6020,20004 6104,20087 6142,20135C6163,20163 6206,20217 6238,20256C6269,20296 6315,20354 6340,20386C6365,20419 6413,20478 6448,20519C6492,20571 6515,20609 6526,20646C6534,20675 6556,20719 6575,20744C6594,20768 6675,20917 6755,21073C6861,21280 6911,21390 6940,21481C6962,21549 6997,21643 7017,21689C7061,21792 7072,21885 7045,21926C7021,21962 6928,22004 6884,21997C6833,21989 6686,21911 6567,21828C6245,21608 6208,21578 6009,21380C5869,21240 5838,21204 5806,21140C5785,21099 5753,21049 5735,21030C5701,20994 5697,20987 5602,20815C5572,20760 5540,20704 5531,20690C5505,20652 5431,20496 5409,20433C5388,20370 5365,20340 5340,20340C5311,20340 5291,20373 5265,20464C5251,20512 5217,20610 5190,20680C5162,20751 5140,20816 5140,20825C5140,20833 5111,20929 5076,21037C5041,21146 5004,21264 4994,21300C4984,21336 4961,21402 4943,21448C4925,21494 4910,21544 4910,21560C4910,21591 4921,21602 5017,21662C5075,21699 5150,21756 5218,21816C5244,21838 5281,21867 5300,21880C5319,21893 5365,21931 5401,21964C5438,21998 5494,22043 5526,22066C5571,22097 5595,22123 5625,22176C5666,22246 5732,22333 5799,22405C5878,22490 5967,22604 6005,22671C6046,22742 6093,22807 6168,22892C6191,22919 6238,22996 6271,23063C6305,23130 6341,23197 6351,23212C6376,23246 6441,23411 6474,23520C6520,23672 6511,23901 6457,23981C6429,24023 6301,24100 6250,24107C6215,24112 6200,24106 6103,24045C6044,24007 5970,23954 5940,23925C5910,23896 5869,23863 5850,23850C5831,23837 5797,23810 5775,23790C5752,23770 5707,23739 5675,23722C5631,23698 5572,23646 5450,23522C5359,23430 5269,23334 5250,23308C5231,23282 5176,23210 5129,23148C5082,23086 5033,23017 5022,22994C5011,22971 4984,22931 4964,22904C4943,22877 4912,22830 4895,22800C4877,22770 4836,22698 4802,22640C4769,22582 4729,22499 4714,22455C4684,22366 4659,22335 4630,22350C4608,22362 4596,22397 4574,22515C4565,22565 4546,22646 4530,22695C4515,22745 4495,22814 4485,22850C4476,22886 4458,22944 4446,22980C4433,23016 4418,23070 4412,23100C4406,23130 4393,23191 4385,23235C4376,23279 4358,23344 4345,23380C4332,23416 4305,23497 4285,23560C4265,23623 4238,23704 4225,23740C4207,23789 4201,23826 4200,23890C4200,24003 4207,24013 4318,24045C4462,24088 4484,24098 4530,24145C4566,24181 4589,24195 4645,24211C4683,24223 4747,24248 4785,24268C4824,24287 4891,24318 4935,24337C5032,24378 5070,24406 5110,24466C5130,24494 5157,24518 5186,24532C5221,24548 5237,24564 5255,24600C5271,24631 5302,24666 5344,24699C5380,24728 5438,24788 5474,24833C5509,24878 5554,24930 5574,24949C5594,24969 5616,25004 5625,25031C5634,25057 5648,25084 5657,25092C5686,25116 5779,25237 5802,25282C5831,25336 5831,25401 5803,25455C5780,25499 5657,25614 5616,25630C5581,25643 5508,25620 5431,25570C5397,25548 5346,25518 5317,25504C5250,25469 5067,25347 5014,25301C4951,25246 4860,25173 4812,25140C4788,25123 4755,25088 4737,25062C4720,25036 4627,24936 4531,24840C4349,24658 4294,24586 4233,24450C4190,24356 4166,24330 4124,24330C4077,24330 4065,24352 4063,24439C4062,24481 4054,24540 4045,24570C4029,24622 4022,24686 4002,24950C3997,25013 3988,25078 3981,25093C3975,25109 3970,25145 3970,25174C3970,25204 3963,25247 3955,25270C3947,25293 3940,25343 3940,25380C3940,25417 3933,25467 3925,25490C3901,25557 3905,25675 3934,25735C3976,25825 4063,25952 4156,26058C4178,26084 4211,26125 4227,26150C4271,26213 4562,26496 4640,26550C4675,26575 4751,26637 4808,26688C4934,26801 4942,26802 5010,26715ZM11316,25689C11402,25663 11579,25579 11602,25554C11619,25534 11655,25434 11685,25320C11695,25284 11724,25201 11750,25135C11776,25069 11808,24981 11822,24940C11836,24899 11878,24793 11915,24705C11952,24617 11997,24507 12017,24461C12078,24312 12131,24216 12185,24159C12238,24101 12270,24046 12270,24013C12270,23985 12347,23772 12374,23725C12439,23612 12564,23411 12616,23338C12728,23178 12720,23196 12720,23104C12720,23059 12715,23009 12709,22993C12698,22965 12688,22902 12671,22740C12661,22638 12645,22577 12626,22561C12601,22540 12562,22560 12521,22615C12499,22644 12462,22683 12439,22702C12416,22720 12364,22765 12323,22803C12282,22840 12244,22870 12239,22870C12234,22870 12197,22899 12157,22935C12012,23065 11974,23097 11940,23120C11921,23133 11882,23165 11854,23190C11799,23240 11526,23388 11403,23435C11305,23473 11286,23491 11294,23544C11299,23576 11294,23597 11275,23638C11261,23668 11250,23701 11250,23712C11250,23723 11230,23771 11206,23819C11139,23948 11110,24023 11110,24066C11109,24088 11102,24123 11094,24145C11085,24167 11072,24210 11064,24240C11024,24391 10995,24498 10959,24625C10917,24777 10911,24850 10930,24983C10939,25041 10937,25058 10920,25107C10891,25189 10892,25375 10921,25474C10939,25536 10950,25553 11003,25605C11052,25653 11078,25670 11130,25687C11212,25715 11232,25715 11316,25689ZM3720,25370C3732,25363 3735,25327 3736,25181C3737,25082 3741,24996 3745,24990C3752,24979 3756,24939 3779,24710C3784,24663 3792,24612 3799,24597C3805,24581 3810,24556 3810,24540C3810,24524 3819,24487 3831,24459C3871,24355 3836,24303 3748,24335C3708,24350 3641,24361 3495,24376C3462,24380 3427,24387 3418,24392C3396,24403 3395,24445 3415,24493C3423,24513 3430,24546 3430,24565C3430,24630 3507,24904 3611,25205C3673,25386 3679,25396 3720,25370ZM5377,25204C5385,25183 5359,25130 5318,25083C5299,25062 5272,25026 5257,25003C5239,24975 5208,24948 5163,24921C5125,24900 5077,24863 5055,24840C5033,24817 4990,24780 4960,24757C4930,24735 4868,24686 4823,24648C4707,24550 4640,24543 4640,24629C4640,24677 4657,24699 4727,24744C4763,24767 4799,24801 4820,24832C4859,24888 4909,24926 4957,24936C4975,24940 5014,24963 5043,24989C5303,25213 5359,25250 5377,25204ZM12208,25103C12233,25076 12278,25024 12308,24985C12339,24947 12391,24886 12425,24850C12524,24744 12614,24638 12644,24590C12660,24565 12691,24524 12713,24497C12748,24456 12754,24442 12757,24392C12763,24303 12768,24291 12813,24250L12855,24211L12852,24089C12850,24022 12844,23955 12838,23941C12832,23927 12826,23872 12824,23820C12819,23636 12808,23495 12798,23483C12781,23462 12741,23468 12714,23497C12700,23512 12679,23559 12664,23609C12650,23656 12627,23724 12613,23760C12599,23796 12577,23853 12565,23887C12552,23922 12528,23971 12511,23997C12494,24023 12480,24057 12480,24074C12479,24121 12382,24367 12321,24475C12305,24503 12276,24566 12255,24615C12235,24664 12182,24777 12139,24867C12063,25020 12047,25071 12065,25099C12075,25116 12132,25150 12149,25150C12157,25150 12184,25129 12208,25103ZM6249,23736C6255,23722 6254,23678 6245,23619C6233,23536 6223,23506 6155,23365C6113,23277 6063,23165 6044,23115C6010,23028 5937,22910 5830,22770C5802,22734 5770,22679 5758,22647C5741,22601 5728,22583 5694,22559C5670,22543 5636,22508 5619,22482C5578,22422 5477,22317 5423,22279C5399,22262 5373,22235 5364,22217C5355,22200 5323,22162 5293,22134C5246,22090 5231,22082 5188,22077C5126,22069 5116,22061 5080,21991C5046,21922 4932,21810 4898,21810C4886,21810 4857,21819 4834,21829C4788,21850 4760,21902 4760,21969C4760,21990 4753,22024 4744,22045C4736,22066 4731,22092 4734,22104C4737,22116 4770,22157 4807,22195C4880,22272 4930,22344 4930,22372C4930,22398 4953,22440 5023,22545C5057,22595 5097,22667 5112,22705C5129,22746 5157,22791 5180,22815C5202,22837 5233,22882 5249,22916C5313,23048 5567,23344 5664,23400C5692,23416 5733,23448 5755,23471C5777,23494 5818,23523 5845,23535C5873,23547 5904,23568 5915,23580C5926,23592 5964,23619 6000,23640C6036,23662 6090,23697 6120,23719C6186,23767 6235,23774 6249,23736ZM13129,23706C13160,23690 13186,23642 13250,23486C13273,23432 13321,23328 13357,23256C13393,23184 13447,23058 13476,22975C13505,22893 13540,22796 13553,22760C13581,22686 13595,22592 13581,22571C13567,22549 13516,22556 13465,22585C13440,22600 13378,22658 13327,22713C13226,22824 13056,22995 12991,23051C12945,23091 12941,23112 12964,23189C12996,23291 13004,23339 13006,23421C13007,23468 13013,23531 13020,23561C13027,23591 13037,23632 13042,23652C13051,23689 13073,23720 13091,23720C13097,23720 13114,23713 13129,23706ZM4050,23471C4059,23452 4113,23201 4130,23095C4138,23049 4155,22982 4211,22780C4222,22739 4262,22613 4299,22500C4374,22274 4412,22150 4436,22047C4456,21963 4454,21957 4338,21729C4276,21607 4244,21557 4195,21502C4137,21440 4126,21432 4086,21428C4057,21424 4029,21413 4010,21396C3977,21368 3957,21365 3899,21379C3879,21384 3816,21383 3756,21378C3633,21367 3615,21373 3585,21437C3569,21471 3567,21501 3569,21718C3571,21899 3575,21972 3586,22002C3594,22024 3600,22079 3600,22125C3600,22186 3606,22225 3625,22280C3639,22320 3650,22363 3650,22374C3650,22386 3661,22440 3675,22495C3689,22550 3700,22610 3700,22627C3700,22645 3718,22715 3739,22782C3760,22850 3792,22955 3810,23015C3827,23076 3853,23157 3866,23195C3880,23234 3899,23294 3908,23330C3918,23366 3938,23417 3953,23443C3976,23482 3986,23490 4010,23490C4029,23490 4043,23483 4050,23471ZM11228,23143C11240,23133 11267,23078 11290,23022C11344,22885 11441,22682 11478,22628C11495,22604 11522,22554 11540,22517C11567,22459 11637,22380 11660,22380C11673,22380 11787,22235 11837,22155C11865,22111 11891,22057 11895,22035C11902,21992 11925,21960 11947,21960C11976,21960 12020,21929 12050,21886C12068,21862 12129,21804 12187,21759C12304,21667 12330,21638 12330,21603C12330,21550 12280,21560 12184,21634C12111,21690 11987,21757 11915,21780C11893,21787 11853,21804 11826,21817C11799,21831 11763,21842 11746,21843C11729,21843 11666,21824 11605,21799C11515,21763 11486,21746 11441,21703C11382,21644 11350,21636 11326,21673C11318,21685 11297,21749 11280,21815C11263,21881 11238,21969 11225,22010C11212,22051 11199,22097 11196,22111C11193,22126 11174,22157 11155,22180C11129,22211 11120,22231 11120,22257C11120,22277 11115,22310 11109,22331C11100,22358 11100,22388 11108,22440C11116,22495 11116,22523 11105,22563C11098,22592 11090,22687 11087,22775C11082,22913 11084,22947 11102,23022C11118,23094 11127,23114 11152,23135C11187,23165 11201,23166 11228,23143ZM11646,23013C11672,22992 11719,22950 11750,22920C11812,22860 12013,22714 12073,22687C12094,22678 12139,22646 12173,22618C12208,22589 12275,22535 12322,22498C12395,22441 12411,22424 12420,22390C12429,22358 12441,22344 12485,22316C12514,22297 12544,22271 12551,22258C12566,22231 12565,22178 12549,22148C12537,22125 12527,22064 12510,21901C12496,21760 12484,21734 12440,21740C12408,21744 12312,21858 12270,21940C12258,21965 12210,22035 12165,22095C12120,22156 12073,22223 12062,22245C12051,22267 12030,22296 12015,22310C11974,22348 11862,22513 11834,22577C11820,22609 11792,22655 11771,22680C11737,22722 11644,22866 11606,22935C11597,22952 11580,22977 11568,22992C11550,23015 11549,23022 11560,23035C11579,23057 11592,23054 11646,23013ZM12779,21971C12803,21956 12926,21771 12971,21685C12994,21641 13032,21584 13056,21558C13080,21532 13100,21506 13100,21500C13100,21494 13119,21469 13141,21445C13164,21420 13196,21378 13214,21351C13231,21324 13276,21264 13313,21219C13373,21147 13381,21132 13378,21101L13375,21065L13323,21066C13284,21067 13258,21075 13223,21097C13196,21113 13149,21142 13118,21160C13071,21188 13056,21204 13036,21246C13015,21290 13000,21306 12933,21348C12890,21376 12841,21409 12825,21423C12808,21437 12767,21466 12732,21489C12695,21514 12665,21543 12659,21558C12645,21593 12656,21696 12681,21768C12692,21800 12700,21850 12700,21890C12700,21928 12705,21961 12712,21968C12726,21982 12759,21983 12779,21971ZM4540,21585C4557,21564 4543,21531 4507,21509C4468,21486 4446,21485 4426,21506C4405,21527 4406,21542 4431,21574C4447,21594 4460,21600 4490,21600C4511,21600 4533,21594 4540,21585ZM6758,21562C6760,21548 6748,21515 6727,21482C6708,21450 6667,21374 6635,21311C6604,21249 6564,21175 6546,21146C6508,21087 6449,20990 6397,20904C6377,20871 6352,20819 6340,20788C6329,20757 6312,20726 6303,20719C6295,20711 6261,20667 6230,20620C6198,20573 6146,20510 6115,20480C6083,20449 6045,20399 6028,20365C6011,20331 5973,20281 5941,20250C5910,20220 5866,20173 5845,20145C5786,20070 5690,19958 5663,19933C5610,19882 5565,19909 5506,20027C5469,20102 5472,20123 5536,20220C5567,20267 5608,20335 5626,20372C5644,20409 5675,20460 5695,20486C5715,20512 5752,20569 5778,20612C5804,20656 5835,20707 5847,20727C5858,20747 5878,20795 5891,20834C5909,20893 5923,20916 5975,20970C6010,21006 6051,21063 6068,21096C6101,21162 6155,21215 6259,21286C6294,21310 6339,21350 6359,21376C6389,21415 6416,21434 6515,21485C6581,21518 6651,21556 6670,21568C6715,21597 6754,21594 6758,21562ZM11960,21473C11974,21465 12014,21441 12050,21420C12086,21398 12141,21367 12172,21350C12203,21334 12244,21307 12262,21291C12280,21276 12309,21256 12325,21247C12379,21220 12394,21196 12387,21146C12383,21121 12371,21075 12360,21043C12349,21012 12340,20971 12340,20952C12340,20934 12334,20891 12326,20857C12318,20823 12307,20768 12300,20735C12294,20702 12284,20655 12278,20630C12267,20585 12260,20519 12242,20310C12230,20171 12226,20160 12191,20160C12159,20160 12131,20187 12100,20248C12088,20272 12062,20311 12041,20333C12020,20356 11990,20395 11975,20420C11959,20445 11923,20494 11895,20530C11866,20566 11832,20615 11820,20640C11808,20665 11789,20697 11779,20712C11768,20726 11747,20769 11732,20807C11717,20845 11680,20915 11651,20964C11605,21039 11570,21112 11517,21241C11512,21255 11510,21278 11514,21293C11522,21327 11674,21487 11703,21493C11748,21501 11935,21487 11960,21473ZM4652,21350C4707,21260 4720,21230 4749,21123C4895,20585 5012,20250 5100,20121C5155,20040 5160,20003 5125,19920C5099,19859 5079,19826 5011,19738C4985,19704 4957,19628 4916,19478C4895,19403 4862,19366 4776,19323C4704,19287 4587,19250 4539,19250C4525,19250 4480,19239 4440,19225C4400,19211 4350,19200 4330,19200C4310,19200 4271,19193 4244,19185C4211,19175 4150,19170 4052,19170C3916,19170 3907,19171 3872,19195C3847,19212 3822,19220 3790,19220C3735,19220 3666,19250 3650,19280C3635,19309 3645,19497 3667,19595C3735,19900 3778,20027 3885,20241C3916,20301 3952,20385 3965,20428C3979,20470 4019,20562 4055,20631C4090,20700 4135,20796 4153,20846C4188,20937 4311,21183 4369,21277C4396,21320 4412,21334 4463,21358C4550,21399 4551,21399 4589,21397C4619,21395 4628,21388 4652,21350ZM12608,20993C12651,20955 12733,20847 12755,20796C12776,20748 12809,20712 12873,20668C12898,20651 12922,20592 12934,20519C12940,20487 12992,20405 13060,20320C13086,20288 13110,20175 13110,20084C13110,20041 13118,19988 13130,19950C13150,19886 13156,19824 13142,19804C13138,19798 13115,19783 13091,19771C13048,19749 13048,19748 13054,19708C13063,19651 13050,19640 12974,19640C12899,19640 12865,19651 12825,19690C12809,19706 12764,19733 12726,19750C12688,19767 12641,19792 12621,19804C12601,19817 12556,19840 12520,19855C12484,19871 12444,19893 12431,19906L12407,19929L12424,19975C12434,20000 12444,20049 12447,20083C12450,20117 12457,20153 12462,20163C12471,20181 12485,20272 12500,20410C12504,20451 12513,20500 12520,20519C12530,20545 12531,20603 12526,20761C12520,20962 12520,20970 12540,20990C12565,21015 12582,21015 12608,20993ZM11403,20913C11411,20903 11424,20866 11430,20830C11447,20734 11510,20610 11564,20565C11594,20541 11615,20512 11630,20475C11646,20436 11667,20408 11701,20379C11750,20339 11750,20338 11750,20279C11750,20201 11769,20165 11817,20150C11875,20131 11898,20113 11915,20073C11924,20052 11951,20015 11975,19990C11999,19965 12040,19921 12065,19892C12121,19827 12123,19796 12080,19666C12063,19616 12025,19496 11993,19400C11950,19266 11913,19177 11835,19020C11779,18907 11721,18784 11707,18745C11663,18625 11611,18508 11594,18489C11574,18467 11528,18464 11512,18483C11501,18496 11498,18507 11455,18710C11441,18779 11420,18869 11408,18910C11397,18951 11371,19053 11350,19137C11329,19220 11304,19303 11294,19322C11282,19345 11276,19383 11275,19445C11274,19494 11267,19548 11261,19563C11255,19579 11250,19642 11250,19704C11250,19779 11245,19832 11235,19860C11223,19893 11220,19952 11220,20120C11220,20288 11223,20347 11235,20380C11243,20403 11250,20446 11250,20474C11250,20502 11264,20579 11280,20645C11296,20711 11310,20792 11310,20825C11310,20894 11329,20930 11364,20930C11377,20930 11394,20922 11403,20913ZM5355,19774C5372,19755 5380,19736 5380,19710C5380,19676 5373,19666 5316,19616C5249,19557 5231,19550 5210,19575C5195,19593 5199,19614 5235,19700C5276,19800 5311,19821 5355,19774ZM5479,19481C5489,19471 5506,19441 5516,19414C5526,19387 5545,19347 5559,19325C5594,19270 5719,19102 5731,19095C5736,19091 5767,19049 5799,19002C5832,18954 5884,18890 5915,18860C5970,18807 6030,18734 6137,18588C6165,18549 6204,18501 6223,18481C6283,18419 6294,18379 6263,18341C6239,18312 6011,18242 5895,18228C5846,18222 5715,18215 5605,18213C5439,18210 5394,18212 5340,18226C5193,18265 5162,18298 5125,18453C5111,18512 5091,18587 5080,18619C5061,18672 5060,18697 5062,18876C5066,19098 5083,19203 5127,19279C5170,19355 5197,19378 5251,19385C5291,19391 5310,19401 5360,19446C5425,19504 5449,19511 5479,19481ZM12214,16354C12232,16336 12237,16317 12244,16235C12253,16127 12268,16026 12285,15955C12308,15859 12367,15677 12397,15610C12411,15580 12438,15517 12457,15470C12476,15423 12502,15372 12514,15355C12555,15302 12590,15226 12601,15166C12607,15134 12627,15073 12646,15030C12686,14937 12689,14892 12657,14854C12621,14813 12596,14826 12494,14937C12445,14991 12369,15074 12325,15121C12233,15220 12193,15273 12157,15347C12125,15411 12043,15533 11998,15581C11980,15601 11951,15638 11933,15663C11914,15691 11890,15712 11874,15716C11838,15725 11702,15677 11674,15646C11662,15633 11645,15589 11635,15548C11626,15508 11606,15435 11592,15385C11569,15303 11566,15277 11566,15105C11565,15001 11561,14909 11557,14903C11544,14883 11513,14888 11493,14914C11473,14939 11468,14954 11424,15110C11409,15164 11370,15260 11333,15333C11278,15442 11261,15467 11214,15504C11143,15562 11113,15569 11063,15537C11042,15523 11009,15507 10989,15501C10969,15494 10945,15481 10936,15471C10919,15452 10880,15348 10880,15320C10880,15310 10867,15261 10851,15209C10781,14982 10745,14822 10729,14675C10714,14533 10691,14489 10640,14505C10616,14513 10613,14526 10605,14660C10601,14718 10588,14815 10575,14875C10562,14936 10546,15010 10540,15040C10534,15070 10522,15118 10515,15145C10507,15173 10498,15239 10494,15292L10487,15389L10516,15418C10539,15440 10564,15451 10625,15464C10669,15474 10743,15499 10790,15520C10908,15574 10997,15606 11050,15615C11098,15622 11274,15682 11325,15708C11359,15725 11435,15777 11527,15848C11561,15874 11635,15929 11690,15970C11745,16011 11819,16066 11853,16092C11887,16118 11926,16147 11940,16157C11954,16166 12011,16218 12067,16272C12123,16326 12175,16370 12184,16370C12192,16370 12206,16363 12214,16354ZM8360,16235C8391,16204 8449,16157 8487,16132C8567,16079 8699,15940 8748,15858C8766,15827 8797,15767 8815,15724C8844,15659 8850,15632 8850,15575C8850,15537 8857,15483 8865,15456C8887,15385 8887,14845 8865,14774C8856,14744 8850,14684 8850,14619C8850,14550 8845,14497 8835,14470C8825,14442 8820,14390 8820,14320C8820,14216 8818,14207 8775,14093C8707,13917 8679,13861 8641,13828C8611,13801 8601,13798 8559,13802C8445,13813 8361,13951 8340,14160C8336,14207 8328,14259 8323,14275C8317,14292 8313,14471 8312,14673C8312,14969 8314,15049 8326,15082C8343,15131 8344,15179 8329,15217C8322,15233 8318,15294 8318,15355C8320,15495 8303,15546 8247,15574C8218,15588 8198,15591 8162,15585C8122,15579 8107,15570 8059,15521C8001,15462 7953,15381 7845,15160C7765,14997 7636,14696 7585,14554C7534,14410 7517,14375 7494,14366C7442,14346 7422,14395 7440,14500C7446,14536 7453,14687 7456,14835C7460,15028 7466,15118 7476,15149C7494,15207 7494,15326 7475,15380C7467,15403 7460,15451 7460,15486C7460,15616 7384,15740 7304,15740C7232,15740 7189,15709 7136,15618C7109,15572 7073,15510 7055,15480C7012,15406 6784,14952 6775,14920C6771,14906 6748,14858 6724,14812C6700,14766 6680,14721 6680,14712C6680,14680 6621,14610 6594,14610C6572,14610 6570,14614 6570,14653C6571,14676 6578,14713 6587,14735C6602,14774 6634,14860 6703,15050C6741,15155 6798,15282 6861,15405C6884,15449 6933,15544 6970,15615C7074,15819 7167,15980 7204,16020C7222,16040 7245,16071 7255,16088C7266,16105 7281,16122 7289,16126C7334,16143 7441,16154 7580,16155C7665,16155 7741,16159 7747,16163C7754,16168 7813,16191 7877,16216C7970,16251 8008,16260 8060,16261C8098,16261 8146,16269 8175,16281C8255,16311 8293,16302 8360,16235Z" style="fill-rule:nonzero;"/>
        </g>
    </g>
</svg>
